<?xml version="1.0" encoding="UTF-8" standalone="no"?>
<!-- Created with Inkscape (http://www.inkscape.org/) -->

<svg
   version="1.1"
   id="svg2"
   width="384"
   height="480"
   viewBox="0 0 384 480"
   sodipodi:docname="77-Logo-3-fii-oficial-rgb.ai"
   xmlns:inkscape="http://www.inkscape.org/namespaces/inkscape"
   xmlns:sodipodi="http://sodipodi.sourceforge.net/DTD/sodipodi-0.dtd"
   xmlns="http://www.w3.org/2000/svg"
   xmlns:svg="http://www.w3.org/2000/svg">
  <defs
     id="defs6">
    <clipPath
       clipPathUnits="userSpaceOnUse"
       id="clipPath28">
      <path
         d="M 0,360 H 288 V 0 H 0 Z"
         id="path26" />
    </clipPath>
  </defs>
  <sodipodi:namedview
     id="namedview4"
     pagecolor="#ffffff"
     bordercolor="#000000"
     borderopacity="0.25"
     inkscape:showpageshadow="2"
     inkscape:pageopacity="0.0"
     inkscape:pagecheckerboard="0"
     inkscape:deskcolor="#d1d1d1" />
  <g
     id="g8"
     inkscape:groupmode="layer"
     inkscape:label="77-Logo-3-fii-oficial-rgb"
     transform="matrix(1.3333333,0,0,-1.3333333,0,480)">
    <g
       id="g10"
       transform="translate(263.3547,180)">
      <path
         d="M 0,0 -119.355,171 -238.709,0 -119.355,-171 Z"
         style="fill:#ffffff;fill-opacity:1;fill-rule:nonzero;stroke:none"
         id="path12" />
    </g>
    <g
       id="g14"
       transform="translate(144,21.6396)">
      <path
         d="M 0,0 -110.369,158.36 0,316.721 110.369,158.36 Z"
         style="fill:#ffd000;fill-opacity:1;fill-rule:nonzero;stroke:none"
         id="path16" />
    </g>
    <g
       id="g18"
       transform="translate(144,39.5112)">
      <path
         d="M 0,0 -97.913,140.489 0,280.978 97.913,140.489 Z"
         style="fill:#ffffff;fill-opacity:1;fill-rule:nonzero;stroke:none"
         id="path20" />
    </g>
    <g
       id="g22">
      <g
         id="g24"
         clip-path="url(#clipPath28)">
        <g
           id="g30"
           transform="translate(205.7441,184.0591)">
          <path
             d="m 0,0 c 0,-34.1 -27.644,-61.744 -61.744,-61.744 -34.1,0 -61.744,27.644 -61.744,61.744 0,34.1 27.644,61.744 61.744,61.744 C -27.644,61.744 0,34.1 0,0"
             style="fill:#005dc4;fill-opacity:1;fill-rule:nonzero;stroke:none"
             id="path32" />
        </g>
        <g
           id="g34"
           transform="translate(137.3895,279.9656)">
          <path
             d="M 0,0 V -2.298 H -5.605 V -10.91 H -9.097 V 8.057 h 9.81 V 5.758 H -5.605 V 0 Z"
             style="fill:#000000;fill-opacity:1;fill-rule:nonzero;stroke:none"
             id="path36" />
        </g>
        <g
           id="g38"
           transform="translate(148.9076,285.5759)">
          <path
             d="M 0,0 V 2.369 H -1.24 V 2.446 H -4.734 V 2.369 H -6.151 V 0 h 1.417 v -14.125 h -1.417 v -2.37 h 1.417 v -0.025 h 3.494 v 0.025 H 0 v 2.37 H -1.24 L -1.24,0 Z"
             style="fill:#000000;fill-opacity:1;fill-rule:nonzero;stroke:none"
             id="path40" />
        </g>
        <g
           id="g42"
           transform="translate(159.7078,285.5759)">
          <path
             d="M 0,0 V 2.369 H -1.242 V 2.446 H -4.734 V 2.369 H -6.151 V 0 h 1.417 v -14.125 h -1.417 v -2.37 h 1.417 v -0.025 h 3.492 v 0.025 H 0 v 2.37 H -1.242 V 0 Z"
             style="fill:#000000;fill-opacity:1;fill-rule:nonzero;stroke:none"
             id="path44" />
        </g>
        <g
           id="g46"
           transform="translate(138.9151,66.2119)">
          <path
             d="m 0,0 c -0.258,0.066 -1.296,0.216 -1.808,0.478 l 0.01,0.078 c 0.264,2.085 -1.375,2.934 -2.795,3.28 l -0.142,0.035 0.025,-0.16 c 0.205,-1.257 0.68,-2.164 1.392,-2.7 -0.579,0.232 -1.137,0.491 -1.674,0.779 l 0.027,0.072 C -4.21,3.848 -5.612,5.007 -6.92,5.63 L -7.045,5.689 -7.057,5.541 c -0.099,-1.312 0.173,-2.313 0.779,-2.98 -0.53,0.352 -1.037,0.733 -1.513,1.141 l 0.046,0.067 c 0.42,0.623 0.587,1.251 0.497,1.869 C -7.362,6.415 -7.87,7.16 -8.765,7.849 L -8.868,7.928 -8.912,7.797 C -9.318,6.541 -9.298,5.505 -8.87,4.731 -9.294,5.178 -9.69,5.649 -10.055,6.144 l 0.053,0.049 c 0.581,0.546 0.895,1.155 0.93,1.807 0.043,0.76 -0.283,1.561 -0.966,2.379 l -0.083,0.1 -0.068,-0.113 c -0.682,-1.119 -0.912,-2.115 -0.7,-2.947 -0.199,0.34 -0.388,0.685 -0.559,1.043 -0.083,0.173 -0.16,0.347 -0.236,0.52 l 0.054,0.032 c 0.724,0.433 1.18,0.987 1.355,1.651 0.187,0.716 0.053,1.537 -0.402,2.438 l -0.06,0.12 -0.091,-0.093 c -0.932,-0.958 -1.392,-1.885 -1.378,-2.744 -0.176,0.557 -0.315,1.118 -0.42,1.68 l 0.079,0.028 c 2.132,0.729 2.206,2.466 1.893,3.794 l -0.034,0.138 -0.11,-0.072 c -1.19,-0.783 -1.869,-1.639 -2.017,-2.525 -0.061,0.703 -0.065,1.398 -0.016,2.077 0.006,-0.042 0.008,-0.086 0.014,-0.133 l 0.015,-0.1 0.092,0.011 c 2.246,0.284 2.729,1.96 2.738,3.316 v 0.154 l -0.13,-0.051 c -1.418,-0.552 -2.299,-1.3 -2.612,-2.193 0.098,0.61 0.244,1.204 0.44,1.767 0.019,0.057 0.042,0.108 0.061,0.164 V 18.44 l 0.1,-0.009 c 0.118,-0.007 0.231,-0.013 0.341,-0.013 2.011,0 2.8,1.464 3.109,2.691 l 0.04,0.161 -0.147,-0.025 c -1.323,-0.224 -2.283,-0.673 -2.849,-1.32 0.236,0.527 0.48,1.022 0.733,1.485 l 0.101,-0.029 c 0.362,-0.105 0.712,-0.158 1.046,-0.158 1.544,0 2.456,1.129 2.948,2.075 l 0.081,0.155 -0.162,0.006 c -0.101,0.004 -0.213,0.007 -0.333,0.007 -1.405,0 -2.448,-0.355 -3.085,-1.026 0.457,0.737 0.916,1.377 1.341,1.912 -0.002,-0.006 -0.006,-0.01 -0.006,-0.014 l -0.048,-0.109 0.102,-0.04 c 0.456,-0.179 0.899,-0.27 1.317,-0.27 h 10e-4 c 1.386,0 2.294,0.98 2.809,1.803 l 0.093,0.147 -0.161,0.021 c -1.349,0.177 -2.396,0.036 -3.129,-0.411 0.375,0.396 0.676,0.677 0.856,0.838 1.92,0.049 2.641,1.476 2.906,2.679 l 0.035,0.156 -0.143,-0.024 c -2.064,-0.343 -3.217,-1.245 -3.343,-2.609 -0.136,-0.122 -0.29,-0.271 -0.468,-0.452 0.024,0.07 0.044,0.144 0.06,0.218 0.162,0.729 -0.022,1.564 -0.542,2.48 l -0.066,0.115 -0.085,-0.098 c -1.346,-1.524 -1.577,-2.947 -0.669,-4.117 l 0.034,-0.046 c -0.23,-0.294 -0.468,-0.613 -0.71,-0.962 0.067,0.712 -0.18,1.488 -0.741,2.31 l -0.073,0.11 -0.078,-0.105 c -1.224,-1.647 -1.345,-3.086 -0.351,-4.166 l 0.058,-0.062 0.021,0.015 c -0.236,-0.431 -0.467,-0.883 -0.689,-1.369 0.004,0.071 0.004,0.141 -0.001,0.21 -0.048,0.774 -0.481,1.547 -1.29,2.299 l -0.095,0.089 -0.054,-0.126 c -0.806,-1.851 -0.585,-3.28 0.639,-4.131 l 0.068,-0.048 0.054,0.066 c 0.01,0.013 0.018,0.026 0.028,0.037 -0.038,-0.106 -0.079,-0.207 -0.118,-0.314 -0.125,-0.362 -0.228,-0.734 -0.316,-1.114 0,0 0,0.002 -10e-4,0.005 -0.209,0.775 -0.822,1.466 -1.823,2.054 l -0.115,0.068 -0.025,-0.142 c -0.346,-1.967 0.205,-3.314 1.597,-3.897 l 0.079,-0.032 0.008,0.017 c -0.029,-0.462 -0.034,-0.931 -0.014,-1.404 -0.45,0.863 -1.398,1.374 -2.279,1.67 l -0.136,0.045 0.011,-0.156 c 0.126,-1.986 0.981,-3.187 2.473,-3.476 l 0.09,-0.017 0.021,0.097 c 0.003,0.015 0.005,0.027 0.008,0.041 0.086,-0.515 0.201,-1.032 0.345,-1.545 -0.636,0.795 -1.709,1.115 -2.663,1.229 l -0.151,0.018 0.05,-0.16 c 0.586,-1.89 1.691,-2.889 3.193,-2.889 l 0.135,10e-4 -0.002,0.108 c 0,0.022 -0.003,0.04 -0.004,0.06 0.116,-0.283 0.236,-0.566 0.369,-0.843 0.101,-0.212 0.21,-0.416 0.32,-0.622 -0.566,0.45 -1.336,0.689 -2.308,0.689 -0.194,0 -0.38,-0.009 -0.558,-0.025 l -0.164,-0.013 0.091,-0.154 c 0.868,-1.462 1.961,-2.234 3.167,-2.235 0.216,0 0.44,0.025 0.663,0.074 l 0.103,0.022 -0.015,0.057 c 0.277,-0.39 0.574,-0.762 0.887,-1.124 -0.386,0.167 -0.821,0.255 -1.306,0.255 -0.475,0 -0.992,-0.082 -1.538,-0.244 l -0.168,-0.05 0.126,-0.132 c 1.009,-1.063 2.037,-1.602 3.05,-1.602 0.404,0 0.805,0.088 1.193,0.261 l 0.092,0.041 C -7.903,3.107 -7.544,2.823 -7.175,2.552 -7.992,2.706 -8.916,2.518 -9.9,1.985 l -0.16,-0.087 0.152,-0.102 c 0.994,-0.668 1.925,-1.008 2.766,-1.008 0.62,0 1.19,0.187 1.693,0.555 l 0.072,0.053 c 0.401,-0.222 0.817,-0.424 1.242,-0.615 -0.823,-0.02 -1.67,-0.388 -2.503,-1.1 l -0.14,-0.119 0.166,-0.067 c 0.817,-0.331 1.568,-0.499 2.234,-0.499 0.923,0 1.672,0.32 2.226,0.951 l 0.052,0.06 c 0.74,-0.365 1.651,-0.643 1.97,-0.724 z"
             style="fill:#000000;fill-opacity:1;fill-rule:nonzero;stroke:none"
             id="path48" />
        </g>
        <g
           id="g50"
           transform="translate(149.0859,66.2119)">
          <path
             d="M 0,0 C 0.258,0.066 1.296,0.216 1.806,0.478 L 1.796,0.556 C 1.534,2.641 3.173,3.49 4.592,3.836 L 4.734,3.871 4.71,3.711 C 4.503,2.454 4.027,1.547 3.317,1.011 3.896,1.243 4.454,1.502 4.991,1.79 L 4.963,1.862 C 4.209,3.848 5.612,5.007 6.919,5.63 L 7.044,5.689 7.056,5.541 C 7.156,4.229 6.883,3.228 6.277,2.561 6.808,2.913 7.313,3.294 7.789,3.702 L 7.743,3.769 C 7.324,4.392 7.157,5.02 7.247,5.638 7.361,6.415 7.872,7.16 8.764,7.849 L 8.868,7.928 8.911,7.797 C 9.317,6.541 9.297,5.505 8.869,4.731 9.294,5.178 9.69,5.649 10.054,6.144 L 10.002,6.193 C 9.42,6.739 9.107,7.348 9.071,8 9.028,8.76 9.354,9.561 10.037,10.379 l 0.083,0.1 0.069,-0.113 c 0.68,-1.119 0.911,-2.115 0.699,-2.947 0.198,0.34 0.388,0.685 0.559,1.043 0.083,0.173 0.161,0.347 0.234,0.52 l -0.052,0.032 c -0.725,0.433 -1.18,0.987 -1.354,1.651 -0.19,0.716 -0.055,1.537 0.402,2.438 l 0.059,0.12 0.091,-0.093 c 0.931,-0.958 1.391,-1.885 1.379,-2.744 0.175,0.557 0.314,1.118 0.419,1.68 l -0.079,0.028 c -2.133,0.729 -2.205,2.466 -1.892,3.794 l 0.031,0.138 0.11,-0.072 c 1.193,-0.783 1.871,-1.639 2.018,-2.525 0.063,0.703 0.067,1.398 0.016,2.077 -0.005,-0.042 -0.007,-0.086 -0.013,-0.133 l -0.016,-0.1 -0.09,0.011 c -2.247,0.284 -2.73,1.96 -2.736,3.316 l -0.003,0.154 0.131,-0.051 c 1.418,-0.552 2.299,-1.3 2.612,-2.193 -0.098,0.61 -0.245,1.204 -0.441,1.767 -0.019,0.057 -0.042,0.108 -0.06,0.164 V 18.44 l -0.101,-0.009 c -0.117,-0.007 -0.23,-0.013 -0.34,-0.013 -2.012,0 -2.801,1.464 -3.111,2.691 L 8.622,21.27 8.771,21.245 c 1.322,-0.224 2.282,-0.673 2.847,-1.32 -0.234,0.527 -0.48,1.022 -0.731,1.485 l -0.102,-0.029 c -0.364,-0.105 -0.713,-0.158 -1.046,-0.158 -1.546,0 -2.457,1.129 -2.95,2.075 l -0.082,0.155 0.162,0.006 c 0.104,0.004 0.215,0.007 0.336,0.007 1.405,0 2.446,-0.355 3.085,-1.026 -0.458,0.737 -0.916,1.377 -1.342,1.912 10e-4,-0.006 0.007,-0.01 0.009,-0.014 l 0.044,-0.109 -0.102,-0.04 c -0.454,-0.179 -0.897,-0.27 -1.317,-0.27 -1.385,0 -2.293,0.98 -2.809,1.803 L 4.679,25.869 4.84,25.89 c 1.351,0.177 2.398,0.036 3.131,-0.411 -0.376,0.396 -0.677,0.677 -0.858,0.838 -1.917,0.049 -2.641,1.476 -2.905,2.679 l -0.034,0.156 0.142,-0.024 c 2.064,-0.343 3.217,-1.245 3.344,-2.609 0.134,-0.122 0.29,-0.271 0.466,-0.452 -0.022,0.07 -0.043,0.144 -0.06,0.218 -0.161,0.729 0.022,1.564 0.543,2.48 l 0.065,0.115 0.085,-0.098 c 1.346,-1.524 1.579,-2.947 0.67,-4.117 L 9.393,24.619 c 0.233,-0.294 0.47,-0.613 0.712,-0.962 -0.065,0.712 0.18,1.488 0.74,2.31 l 0.074,0.11 0.079,-0.105 c 1.224,-1.647 1.346,-3.086 0.348,-4.166 l -0.057,-0.062 -0.019,0.015 c 0.234,-0.431 0.466,-0.883 0.688,-1.369 -0.003,0.071 -0.003,0.141 0,0.21 0.048,0.774 0.483,1.547 1.291,2.299 l 0.095,0.089 0.054,-0.126 c 0.807,-1.851 0.585,-3.28 -0.639,-4.131 l -0.068,-0.048 -0.056,0.066 c -0.008,0.013 -0.017,0.026 -0.028,0.037 0.04,-0.106 0.082,-0.207 0.12,-0.314 0.125,-0.362 0.23,-0.734 0.316,-1.114 0,0 0.001,0.002 0.001,0.005 0.209,0.775 0.822,1.466 1.822,2.054 l 0.116,0.068 0.025,-0.142 c 0.346,-1.967 -0.204,-3.314 -1.597,-3.897 l -0.079,-0.032 -0.008,0.017 c 0.03,-0.462 0.035,-0.931 0.014,-1.404 0.45,0.863 1.396,1.374 2.279,1.67 l 0.136,0.045 -0.01,-0.156 C 15.615,13.6 14.76,12.399 13.268,12.11 l -0.09,-0.017 -0.02,0.097 c -0.005,0.015 -0.006,0.027 -0.008,0.041 -0.086,-0.515 -0.202,-1.032 -0.346,-1.545 0.637,0.795 1.71,1.115 2.662,1.229 l 0.152,0.018 -0.049,-0.16 C 14.982,9.883 13.877,8.884 12.375,8.884 l -0.134,10e-4 v 0.108 c 0,0.022 0.004,0.04 0.006,0.06 C 12.131,8.77 12.01,8.487 11.878,8.21 11.776,7.998 11.667,7.794 11.556,7.588 c 0.567,0.45 1.339,0.689 2.309,0.689 0.193,0 0.382,-0.009 0.559,-0.025 L 14.588,8.239 14.497,8.085 C 13.627,6.623 12.534,5.851 11.329,5.85 c -0.217,0 -0.439,0.025 -0.661,0.074 l -0.105,0.022 0.016,0.057 C 10.301,5.613 10.003,5.241 9.693,4.879 c 0.383,0.167 0.818,0.255 1.304,0.255 0.475,0 0.992,-0.082 1.539,-0.244 L 12.703,4.84 12.578,4.708 C 11.567,3.645 10.54,3.106 9.527,3.106 9.123,3.106 8.723,3.194 8.333,3.367 L 8.243,3.408 C 7.902,3.107 7.543,2.823 7.175,2.552 7.991,2.706 8.914,2.518 9.9,1.985 L 10.059,1.898 9.907,1.796 C 8.912,1.128 7.982,0.788 7.142,0.788 6.521,0.788 5.952,0.975 5.449,1.343 L 5.376,1.396 C 4.975,1.174 4.558,0.972 4.134,0.781 4.958,0.761 5.804,0.393 6.638,-0.319 L 6.778,-0.438 6.611,-0.505 C 5.794,-0.836 5.043,-1.004 4.377,-1.004 c -0.923,0 -1.672,0.32 -2.226,0.951 L 2.099,0.007 C 1.36,-0.358 0.449,-0.636 0.129,-0.717 Z"
             style="fill:#000000;fill-opacity:1;fill-rule:nonzero;stroke:none"
             id="path52" />
        </g>
        <g
           id="g54"
           transform="translate(132.3994,76.4357)">
          <path
             d="M 0,0 C 0.003,0.301 0.007,0.666 0.012,1.094 0.017,1.522 0.02,1.782 0.02,1.873 V 6.397 C -0.29,6.312 -0.592,6.218 -0.887,6.115 -1.182,6.012 -1.336,5.96 -1.349,5.96 c -0.06,0 -0.108,0.022 -0.146,0.066 -0.038,0.044 -0.057,0.102 -0.057,0.173 0,0.054 0.018,0.099 0.052,0.134 0.035,0.036 0.093,0.067 0.175,0.094 0.027,0.007 0.144,0.034 0.351,0.081 C 0.318,6.802 1.644,7.15 3.005,7.549 2.998,7.251 2.994,6.964 2.99,6.689 2.987,6.413 2.985,6.131 2.985,5.844 v -3.9 C 2.985,1.568 2.989,1.223 2.995,0.906 3.002,0.59 3.012,0.288 3.025,0 Z"
             style="fill:#000000;fill-opacity:1;fill-rule:nonzero;stroke:none"
             id="path56" />
        </g>
        <g
           id="g58"
           transform="translate(140.8905,76.5424)">
          <path
             d="m 0,0 v 7.138 c -0.026,0 -0.065,0.003 -0.116,0.007 -0.051,0.005 -0.09,0.008 -0.116,0.008 -0.857,0 -1.55,-0.248 -2.079,-0.743 -0.528,-0.496 -0.793,-1.141 -0.793,-1.932 0,-0.546 0.15,-0.99 0.45,-1.333 0.3,-0.344 0.682,-0.515 1.146,-0.515 0.225,0 0.446,0.041 0.665,0.124 0.22,0.083 0.336,0.124 0.349,0.124 0.033,0 0.063,-0.012 0.091,-0.037 0.028,-0.026 0.042,-0.053 0.042,-0.08 0,-0.125 -0.1,-0.231 -0.301,-0.317 -0.201,-0.086 -0.452,-0.129 -0.752,-0.129 -0.612,0 -1.1,0.196 -1.462,0.589 -0.363,0.392 -0.544,0.92 -0.544,1.584 0,0.859 0.29,1.565 0.87,2.117 0.58,0.552 1.329,0.827 2.249,0.827 0.543,0 1.003,-0.072 1.379,-0.216 C 1.453,7.073 1.79,6.844 2.086,6.529 2.409,6.186 2.658,5.758 2.834,5.242 3.011,4.726 3.099,4.166 3.099,3.564 3.099,2.399 2.771,1.464 2.115,0.756 1.46,0.049 0.593,-0.305 -0.484,-0.305 c -0.613,0 -1.146,0.12 -1.599,0.358 -0.453,0.239 -0.68,0.493 -0.68,0.764 0,0.065 0.023,0.118 0.067,0.163 0.045,0.044 0.096,0.066 0.156,0.066 0.076,0 0.174,-0.082 0.294,-0.247 0.12,-0.164 0.225,-0.287 0.314,-0.367 0.187,-0.16 0.397,-0.277 0.627,-0.354 0.231,-0.075 0.501,-0.114 0.811,-0.114 0.076,0 0.155,0.003 0.239,0.008 C -0.171,-0.023 -0.086,-0.013 0,0"
             style="fill:#000000;fill-opacity:1;fill-rule:nonzero;stroke:none"
             id="path60" />
        </g>
        <g
           id="g62"
           transform="translate(144.8544,76.4357)">
          <path
             d="M 0,0 3.623,6.996 H 1.71 C 0.866,6.996 0.191,6.935 -0.316,6.813 -0.359,6.802 -0.382,6.798 -0.385,6.798 c -0.067,0 -0.115,0.018 -0.146,0.056 -0.032,0.037 -0.047,0.091 -0.047,0.162 0,0.126 0.021,0.214 0.064,0.267 0.042,0.052 0.115,0.078 0.218,0.078 0.006,0 0.027,-0.002 0.064,-0.005 C -0.051,7.346 0.14,7.341 0.341,7.341 H 6.316 L 3.583,0 Z"
             style="fill:#000000;fill-opacity:1;fill-rule:nonzero;stroke:none"
             id="path64" />
        </g>
        <g
           id="g66"
           transform="translate(154.8133,76.6033)">
          <path
             d="m 0,0 v 5.3 c -0.122,0.02 -0.223,0.034 -0.304,0.041 -0.08,0.006 -0.154,0.01 -0.22,0.01 -0.53,0 -1.01,-0.157 -1.438,-0.472 -0.076,-0.058 -0.124,-0.086 -0.143,-0.086 -0.05,0 -0.09,0.015 -0.122,0.048 -0.031,0.032 -0.046,0.075 -0.046,0.129 0,0.023 0.009,0.066 0.029,0.127 0.013,0.034 0.023,0.061 0.03,0.081 l 0.677,1.995 h 3.059 c 0.211,0 0.425,0.005 0.643,0.016 0.052,0.003 0.084,0.005 0.094,0.005 0.075,0 0.133,-0.01 0.173,-0.031 C 2.471,7.143 2.491,7.114 2.491,7.077 2.491,6.993 2.456,6.911 2.387,6.833 2.318,6.755 2.234,6.716 2.135,6.716 2.099,6.716 1.915,6.73 1.584,6.758 1.253,6.784 0.941,6.798 0.648,6.798 H -1.295 L -1.77,5.417 c 0.234,0.085 0.471,0.149 0.71,0.193 0.239,0.043 0.482,0.065 0.729,0.065 1.107,0 1.987,-0.262 2.642,-0.789 C 2.964,4.36 3.292,3.657 3.292,2.777 3.292,1.863 2.966,1.111 2.315,0.521 1.665,-0.07 0.837,-0.366 -0.168,-0.366 c -0.88,0 -1.608,0.247 -2.185,0.742 -0.576,0.494 -0.865,1.106 -0.865,1.837 0,0.376 0.083,0.723 0.25,1.041 0.166,0.318 0.326,0.478 0.482,0.478 0.056,0 0.105,-0.021 0.148,-0.061 0.043,-0.042 0.065,-0.087 0.065,-0.138 0,-0.057 -0.05,-0.135 -0.149,-0.233 C -2.465,3.259 -2.498,3.225 -2.521,3.198 -2.649,3.063 -2.743,2.917 -2.803,2.759 -2.862,2.602 -2.891,2.423 -2.891,2.224 c 0,-0.65 0.248,-1.183 0.746,-1.6 C -1.648,0.208 -1,0 -0.203,0 Z"
             style="fill:#000000;fill-opacity:1;fill-rule:nonzero;stroke:none"
             id="path68" />
        </g>
        <g
           id="g70"
           transform="translate(76.9605,170.2382)">
          <path
             d="M 0,0 3.636,0.783 C 3.66,0.788 3.769,0.814 3.961,0.86 4.153,0.905 4.333,0.947 4.501,0.987 L 5.465,-3.737 C 5.486,-3.839 5.489,-3.907 5.475,-3.941 5.462,-3.974 5.429,-3.997 5.377,-4.008 5.323,-4.02 5.282,-4.012 5.254,-3.982 5.226,-3.953 5.202,-3.892 5.183,-3.798 5.178,-3.774 5.166,-3.7 5.145,-3.575 5.052,-3.019 4.952,-2.474 4.843,-1.941 L 4.784,-1.651 3.547,-1.918 3.621,-2.28 C 3.739,-2.856 3.865,-3.435 3.999,-4.015 4.027,-4.13 4.043,-4.196 4.047,-4.215 4.071,-4.332 4.076,-4.413 4.061,-4.455 4.047,-4.498 4.008,-4.525 3.947,-4.539 3.894,-4.55 3.856,-4.544 3.83,-4.52 c -0.026,0.024 -0.046,0.071 -0.059,0.141 -0.005,0.024 -0.019,0.095 -0.04,0.214 -0.108,0.589 -0.22,1.171 -0.337,1.744 l -0.092,0.45 -2.778,-0.598 c -0.009,-0.002 -0.11,-0.027 -0.3,-0.075 -0.191,-0.048 -0.377,-0.093 -0.56,-0.135 l -0.532,2.609 c 0.163,0.032 0.344,0.068 0.54,0.106 C -0.132,-0.026 -0.022,-0.005 0,0"
             style="fill:#000000;fill-opacity:1;fill-rule:nonzero;stroke:none"
             id="path72" />
        </g>
        <g
           id="g74"
           transform="translate(79.0423,162.0989)">
          <path
             d="m 0,0 c 0.315,0.34 0.613,0.669 0.892,0.988 0.279,0.319 0.542,0.631 0.789,0.937 l -2.468,0.663 z m -0.8,-0.872 0.59,0.637 -0.883,2.901 C -1.217,2.701 -1.377,2.74 -1.573,2.783 -1.85,2.847 -1.998,2.914 -2.02,2.985 -2.033,3.026 -2.029,3.068 -2.009,3.111 -1.988,3.153 -1.959,3.18 -1.92,3.193 -1.887,3.204 -1.597,3.128 -1.052,2.966 -0.508,2.803 0.005,2.66 0.485,2.536 L 4.638,1.453 0.094,-3.812 Z"
             style="fill:#000000;fill-opacity:1;fill-rule:nonzero;stroke:none"
             id="path76" />
        </g>
        <g
           id="g78"
           transform="translate(80.4792,155.4129)">
          <path
             d="M 0,0 C 0.01,-0.032 0.023,-0.066 0.039,-0.106 0.054,-0.145 0.077,-0.202 0.108,-0.274 0.299,-0.723 0.551,-1.096 0.865,-1.394 1.179,-1.691 1.549,-1.906 1.976,-2.041 2.088,-2.077 2.23,-2.105 2.401,-2.124 2.571,-2.143 2.67,-2.183 2.695,-2.243 2.713,-2.283 2.715,-2.318 2.703,-2.349 2.691,-2.38 2.667,-2.403 2.63,-2.42 2.565,-2.449 2.447,-2.45 2.275,-2.422 c -0.172,0.027 -0.356,0.08 -0.551,0.156 -0.417,0.169 -0.78,0.407 -1.088,0.716 -0.309,0.308 -0.554,0.675 -0.735,1.102 -0.18,0.421 -0.279,0.84 -0.299,1.253 -0.02,0.414 0.04,0.82 0.181,1.217 C -0.08,2.413 0.12,2.752 0.38,3.041 0.642,3.33 0.952,3.555 1.311,3.715 1.668,3.876 2.041,3.954 2.43,3.952 2.818,3.95 3.199,3.867 3.573,3.703 3.948,3.54 4.275,3.312 4.554,3.02 4.832,2.728 5.061,2.373 5.239,1.953 5.402,1.569 5.498,1.188 5.528,0.808 5.559,0.429 5.522,0.035 5.419,-0.372 5.374,-0.557 5.322,-0.708 5.266,-0.824 5.209,-0.941 5.154,-1.011 5.1,-1.035 5.073,-1.047 5.044,-1.046 5.014,-1.031 c -0.03,0.015 -0.051,0.039 -0.065,0.072 -0.024,0.054 -0.005,0.151 0.058,0.29 0.049,0.112 0.086,0.206 0.108,0.281 0.114,0.395 0.162,0.78 0.144,1.154 C 5.241,1.14 5.155,1.507 5.003,1.865 4.987,1.904 4.969,1.942 4.951,1.983 4.932,2.024 4.9,2.089 4.854,2.176 Z"
             style="fill:#000000;fill-opacity:1;fill-rule:nonzero;stroke:none"
             id="path80" />
        </g>
        <g
           id="g82"
           transform="translate(83.7796,152.4813)">
          <path
             d="m 0,0 2.319,1.362 c 0.022,0.012 0.118,0.072 0.29,0.177 0.171,0.106 0.329,0.202 0.472,0.289 l 1.287,-2.31 C 4.207,-0.576 4.043,-0.669 3.873,-0.76 3.704,-0.852 3.614,-0.901 3.603,-0.907 l -3.949,-2.319 0.118,-0.211 C 0.051,-3.938 0.33,-4.32 0.609,-4.58 c 0.279,-0.261 0.574,-0.417 0.887,-0.471 0.254,-0.043 0.566,0.005 0.935,0.143 0.369,0.137 0.998,0.468 1.887,0.99 l 0.573,0.337 c 0.228,0.134 0.452,0.274 0.67,0.421 0.036,0.025 0.058,0.039 0.067,0.045 0.072,0.042 0.13,0.059 0.173,0.051 C 5.843,-3.072 5.882,-3.108 5.918,-3.173 5.949,-3.229 5.96,-3.276 5.949,-3.312 5.939,-3.348 5.903,-3.385 5.842,-3.42 5.038,-3.892 4.323,-4.294 3.697,-4.624 3.07,-4.954 2.643,-5.159 2.414,-5.24 1.872,-5.432 1.365,-5.389 0.893,-5.111 c -0.471,0.278 -0.919,0.8 -1.344,1.562 -0.498,0.897 -0.713,1.615 -0.644,2.155 C -1.026,-0.853 -0.661,-0.389 0,0"
             style="fill:#000000;fill-opacity:1;fill-rule:nonzero;stroke:none"
             id="path84" />
        </g>
        <g
           id="g86"
           transform="translate(85.6435,145.3278)">
          <path
             d="M 0,0 C 0.137,0.097 0.289,0.204 0.454,0.32 0.619,0.436 0.71,0.5 0.729,0.514 L 3.752,2.731 C 3.773,2.746 3.863,2.814 4.024,2.937 4.184,3.06 4.331,3.172 4.465,3.274 L 5.973,1.104 C 5.819,0.994 5.661,0.884 5.497,0.773 5.334,0.661 5.247,0.602 5.237,0.594 L 2.411,-1.478 C 2.401,-1.485 2.319,-1.549 2.166,-1.671 2.011,-1.792 1.861,-1.909 1.714,-2.024 L 1.983,-2.412 C 2.381,-2.985 2.777,-3.526 3.168,-4.036 3.226,-4.111 3.26,-4.154 3.267,-4.165 3.298,-4.21 3.311,-4.25 3.305,-4.287 3.299,-4.323 3.275,-4.357 3.231,-4.389 3.184,-4.423 3.142,-4.433 3.107,-4.417 3.071,-4.401 3.026,-4.355 2.974,-4.28 Z"
             style="fill:#000000;fill-opacity:1;fill-rule:nonzero;stroke:none"
             id="path88" />
        </g>
        <g
           id="g90"
           transform="translate(89.5506,139.9056)">
          <path
             d="M 0,0 C 0.129,0.109 0.271,0.228 0.426,0.358 0.581,0.487 0.667,0.56 0.684,0.575 l 2.645,2.304 c 0.018,0.015 0.1,0.09 0.248,0.224 0.148,0.134 0.285,0.258 0.41,0.371 C 3.779,3.714 3.568,3.952 3.353,4.19 3.138,4.428 3.026,4.553 3.018,4.563 2.966,4.626 2.938,4.678 2.934,4.719 2.93,4.76 2.948,4.799 2.989,4.834 3.036,4.876 3.08,4.892 3.117,4.884 3.154,4.875 3.206,4.829 3.274,4.748 L 6.768,0.516 C 6.835,0.435 6.87,0.374 6.873,0.335 6.875,0.296 6.852,0.255 6.804,0.214 6.764,0.178 6.723,0.167 6.684,0.179 6.644,0.191 6.598,0.228 6.546,0.29 6.539,0.299 6.44,0.431 6.248,0.685 6.056,0.94 5.862,1.191 5.666,1.441 5.537,1.332 5.396,1.214 5.243,1.086 5.09,0.958 5.004,0.886 4.987,0.871 L 2.343,-1.433 C 2.325,-1.448 2.242,-1.523 2.092,-1.659 1.942,-1.796 1.804,-1.92 1.679,-2.033 Z"
             style="fill:#000000;fill-opacity:1;fill-rule:nonzero;stroke:none"
             id="path92" />
        </g>
        <g
           id="g94"
           transform="translate(95.2161,135.0996)">
          <path
             d="m 0,0 c 0.122,0.452 0.233,0.886 0.333,1.303 0.1,0.417 0.188,0.82 0.264,1.209 L -1.883,1.9 Z m -0.305,-1.157 0.227,0.847 -2.11,2.131 C -2.314,1.791 -2.473,1.748 -2.666,1.691 -2.938,1.613 -3.101,1.6 -3.152,1.651 c -0.03,0.031 -0.047,0.07 -0.048,0.117 -0.002,0.048 0.012,0.086 0.04,0.116 0.025,0.025 0.315,0.099 0.87,0.22 0.555,0.121 1.072,0.244 1.553,0.367 L 3.421,3.53 1.834,-3.316 Z"
             style="fill:#000000;fill-opacity:1;fill-rule:nonzero;stroke:none"
             id="path96" />
        </g>
        <g
           id="g98"
           transform="translate(99.6081,130.0261)">
          <path
             d="M 0,0 0.109,-0.09 C 0.53,-0.436 0.884,-0.668 1.172,-0.787 1.46,-0.905 1.765,-0.958 2.087,-0.944 2.432,-0.927 2.759,-0.832 3.07,-0.659 3.382,-0.485 3.659,-0.243 3.902,0.07 4.146,0.382 4.316,0.713 4.413,1.063 4.51,1.413 4.529,1.762 4.469,2.11 4.413,2.437 4.296,2.731 4.12,2.994 3.945,3.257 3.647,3.561 3.226,3.907 L 3.117,3.997 Z M -1.598,2.149 0.724,5.127 C 0.74,5.147 0.809,5.239 0.931,5.401 1.052,5.565 1.164,5.714 1.267,5.849 L 3.274,4.198 C 3.779,3.782 4.132,3.426 4.331,3.13 4.531,2.834 4.663,2.505 4.725,2.144 4.792,1.756 4.773,1.369 4.667,0.981 4.561,0.594 4.377,0.232 4.115,-0.105 3.852,-0.441 3.548,-0.705 3.204,-0.896 2.858,-1.086 2.495,-1.19 2.112,-1.208 1.753,-1.226 1.412,-1.166 1.088,-1.03 0.764,-0.893 0.349,-0.617 -0.156,-0.201 L -2.164,1.45 c 0.107,0.133 0.224,0.278 0.353,0.435 0.127,0.158 0.199,0.246 0.213,0.264"
             style="fill:#000000;fill-opacity:1;fill-rule:nonzero;stroke:none"
             id="path100" />
        </g>
        <g
           id="g102"
           transform="translate(107.7132,124.2472)">
          <path
             d="m 0,0 0.121,-0.073 c 0.464,-0.28 0.847,-0.458 1.149,-0.533 0.302,-0.075 0.611,-0.082 0.927,-0.02 0.339,0.067 0.65,0.21 0.933,0.426 C 3.414,0.018 3.655,0.299 3.852,0.644 4.05,0.99 4.172,1.342 4.219,1.702 4.266,2.062 4.236,2.411 4.128,2.747 4.027,3.062 3.87,3.336 3.66,3.57 3.449,3.804 3.112,4.062 2.647,4.342 L 2.527,4.415 Z M -1.882,1.891 0,5.181 c 0.013,0.022 0.069,0.123 0.167,0.301 0.097,0.18 0.187,0.344 0.27,0.493 L 2.653,4.636 C 3.212,4.299 3.61,3.999 3.85,3.736 4.088,3.473 4.264,3.166 4.377,2.819 4.497,2.444 4.532,2.058 4.482,1.659 4.431,1.26 4.3,0.875 4.087,0.503 3.874,0.131 3.61,-0.175 3.295,-0.414 2.981,-0.653 2.635,-0.81 2.259,-0.884 1.906,-0.955 1.56,-0.946 1.221,-0.859 c -0.34,0.088 -0.789,0.3 -1.348,0.637 l -2.217,1.339 c 0.087,0.146 0.183,0.307 0.288,0.482 0.105,0.175 0.163,0.272 0.174,0.292"
             style="fill:#000000;fill-opacity:1;fill-rule:nonzero;stroke:none"
             id="path104" />
        </g>
        <g
           id="g106"
           transform="translate(115.9889,119.6158)">
          <path
             d="m 0,0 -4.638,2.224 c 0.073,0.155 0.154,0.324 0.242,0.509 0.088,0.184 0.137,0.286 0.147,0.308 l 1.572,3.457 c 0.01,0.023 0.056,0.129 0.137,0.317 0.081,0.187 0.156,0.359 0.224,0.516 L 1.974,5.273 C 2.063,5.23 2.117,5.193 2.135,5.162 2.153,5.13 2.151,5.089 2.128,5.04 2.104,4.988 2.073,4.959 2.034,4.954 1.994,4.948 1.934,4.965 1.852,5.005 1.83,5.015 1.767,5.048 1.663,5.104 1.161,5.367 0.663,5.618 0.168,5.855 L -0.093,5.98 -0.627,4.804 -0.294,4.644 C 0.238,4.39 0.772,4.141 1.31,3.901 1.414,3.857 1.474,3.831 1.491,3.822 1.6,3.771 1.666,3.726 1.689,3.69 1.711,3.652 1.709,3.605 1.683,3.546 1.661,3.499 1.633,3.471 1.597,3.464 1.561,3.457 1.513,3.468 1.453,3.497 1.431,3.507 1.36,3.543 1.241,3.603 0.591,3.929 -0.066,4.252 -0.733,4.571 L -2.202,1.341 C -1.803,1.149 -1.383,0.945 -0.941,0.727 -0.831,0.671 -0.763,0.638 -0.74,0.626 -0.459,0.491 -0.179,0.37 0.101,0.262 0.154,0.242 0.184,0.23 0.191,0.226 0.235,0.206 0.264,0.178 0.279,0.142 0.293,0.106 0.291,0.068 0.273,0.029 0.25,-0.024 0.221,-0.053 0.187,-0.058 0.155,-0.063 0.092,-0.044 0,0"
             style="fill:#000000;fill-opacity:1;fill-rule:nonzero;stroke:none"
             id="path108" />
        </g>
        <g
           id="g110"
           transform="translate(119.8357,118.1215)">
          <path
             d="M 0,0 C 0.055,0.162 0.116,0.339 0.184,0.531 0.25,0.723 0.287,0.832 0.295,0.856 L 1.474,4.474 C 1.483,4.501 1.516,4.611 1.575,4.803 1.633,4.995 1.689,5.175 1.74,5.341 L 4.202,4.499 C 4.139,4.314 4.073,4.128 4.005,3.939 3.937,3.751 3.901,3.651 3.897,3.642 L 2.719,0.023 C 2.717,0.016 2.687,-0.085 2.631,-0.279 2.574,-0.474 2.518,-0.663 2.461,-0.846 Z"
             style="fill:#000000;fill-opacity:1;fill-rule:nonzero;stroke:none"
             id="path112" />
        </g>
        <g
           id="g114"
           transform="translate(124.3603,119.4047)">
          <path
             d="m 0,0 -0.305,-1.239 c -0.061,-0.247 -0.117,-0.506 -0.168,-0.777 -0.051,-0.271 -0.079,-0.415 -0.084,-0.432 -0.021,-0.086 -0.048,-0.141 -0.082,-0.166 -0.033,-0.025 -0.082,-0.029 -0.147,-0.012 -0.069,0.018 -0.116,0.044 -0.139,0.08 -0.023,0.036 -0.026,0.088 -0.009,0.155 0.036,0.146 0.114,0.417 0.234,0.812 0.121,0.395 0.213,0.722 0.277,0.981 L 0.484,3.094 C 1.234,2.363 1.985,1.654 2.737,0.966 3.489,0.278 4.244,-0.388 5.001,-1.033 L 5.305,0.203 C 5.366,0.45 5.42,0.708 5.47,0.976 5.52,1.245 5.547,1.389 5.552,1.41 5.573,1.497 5.601,1.555 5.635,1.581 5.669,1.607 5.718,1.611 5.783,1.594 5.855,1.576 5.903,1.548 5.926,1.511 5.948,1.475 5.951,1.423 5.935,1.358 5.899,1.212 5.821,0.94 5.701,0.541 5.581,0.142 5.489,-0.186 5.426,-0.443 L 4.518,-4.135 C 3.742,-3.379 2.978,-2.656 2.226,-1.967 1.475,-1.277 0.733,-0.622 0,0"
             style="fill:#000000;fill-opacity:1;fill-rule:nonzero;stroke:none"
             id="path116" />
        </g>
        <g
           id="g118"
           transform="translate(133.5448,120.2638)">
          <path
             d="m 0,0 -0.785,-5.381 c 0.041,-0.011 0.083,-0.02 0.127,-0.027 0.044,-0.007 0.109,-0.017 0.196,-0.03 0.809,-0.125 1.493,-0.009 2.052,0.348 0.559,0.356 0.953,0.929 1.181,1.719 l -2.44,0.376 c -0.113,0.018 -0.184,0.038 -0.213,0.062 -0.029,0.025 -0.039,0.062 -0.032,0.113 0.007,0.049 0.024,0.081 0.052,0.093 0.027,0.013 0.096,0.011 0.207,-0.006 L 3.102,-3.158 C 2.911,-4.098 2.499,-4.793 1.867,-5.243 1.235,-5.694 0.457,-5.848 -0.469,-5.705 c -0.443,0.068 -0.84,0.203 -1.192,0.406 -0.352,0.202 -0.655,0.471 -0.908,0.804 -0.246,0.324 -0.42,0.678 -0.52,1.061 -0.101,0.383 -0.122,0.773 -0.064,1.169 0.057,0.396 0.191,0.762 0.399,1.099 0.208,0.337 0.479,0.624 0.813,0.862 0.334,0.24 0.696,0.404 1.085,0.49 0.388,0.088 0.803,0.098 1.243,0.03 C 0.788,0.154 1.152,0.036 1.48,-0.139 1.807,-0.315 2.114,-0.556 2.401,-0.862 2.52,-0.989 2.611,-1.104 2.672,-1.208 2.734,-1.312 2.761,-1.393 2.752,-1.449 2.747,-1.482 2.732,-1.509 2.706,-1.528 2.681,-1.548 2.649,-1.555 2.612,-1.549 2.554,-1.541 2.484,-1.472 2.4,-1.343 2.343,-1.256 2.293,-1.186 2.253,-1.135 1.987,-0.827 1.696,-0.581 1.378,-0.397 1.059,-0.215 0.711,-0.094 0.334,-0.036 0.295,-0.03 0.253,-0.024 0.209,-0.018 0.166,-0.013 0.096,-0.007 0,0"
             style="fill:#000000;fill-opacity:1;fill-rule:nonzero;stroke:none"
             id="path120" />
        </g>
        <g
           id="g122"
           transform="translate(142.3665,113.8783)">
          <path
             d="m 0,0 -5.11,0.296 c 0.012,0.171 0.025,0.358 0.04,0.564 0.016,0.204 0.024,0.318 0.025,0.342 l 0.209,3.809 c 0.002,0.025 0.006,0.141 0.013,0.346 0.008,0.206 0.014,0.394 0.021,0.565 L -0.075,5.649 C 0.024,5.643 0.087,5.629 0.115,5.606 0.144,5.584 0.156,5.545 0.153,5.491 0.15,5.434 0.131,5.395 0.096,5.375 0.062,5.355 0,5.347 -0.091,5.353 -0.115,5.354 -0.186,5.361 -0.302,5.373 -0.862,5.426 -1.415,5.469 -1.961,5.5 L -2.249,5.517 -2.32,4.221 -1.953,4.2 C -1.367,4.166 -0.781,4.14 -0.194,4.121 -0.083,4.12 -0.017,4.119 0.001,4.118 0.121,4.111 0.198,4.095 0.233,4.069 0.268,4.044 0.283,3.999 0.28,3.934 0.277,3.882 0.26,3.845 0.23,3.826 0.199,3.805 0.151,3.797 0.084,3.801 0.061,3.802 -0.018,3.808 -0.151,3.818 -0.871,3.873 -1.599,3.922 -2.334,3.964 L -2.529,0.404 C -2.09,0.379 -1.626,0.349 -1.136,0.315 -1.014,0.306 -0.94,0.3 -0.913,0.299 -0.604,0.281 -0.3,0.275 0,0.281 0.055,0.283 0.088,0.284 0.095,0.284 0.144,0.28 0.181,0.266 0.207,0.238 0.234,0.21 0.246,0.174 0.243,0.13 0.24,0.073 0.224,0.035 0.195,0.018 0.166,0 0.101,-0.006 0,0"
             style="fill:#000000;fill-opacity:1;fill-rule:nonzero;stroke:none"
             id="path124" />
        </g>
        <g
           id="g126"
           transform="translate(143.7073,116.5524)">
          <path
             d="M 0,0 0.041,-1.278 C 0.05,-1.532 0.065,-1.797 0.089,-2.072 0.112,-2.347 0.124,-2.493 0.125,-2.511 0.128,-2.599 0.116,-2.66 0.091,-2.693 0.066,-2.727 0.019,-2.744 -0.047,-2.747 c -0.072,-0.003 -0.124,0.011 -0.155,0.038 -0.032,0.027 -0.049,0.076 -0.051,0.146 -0.005,0.151 -0.003,0.433 0.006,0.847 0.01,0.413 0.01,0.753 0.001,1.021 L -0.369,3.111 C 0.549,2.622 1.461,2.154 2.37,1.707 3.277,1.26 4.182,0.834 5.083,0.431 L 5.042,1.705 C 5.033,1.959 5.017,2.222 4.993,2.495 4.967,2.766 4.955,2.913 4.955,2.934 4.952,3.024 4.963,3.087 4.988,3.122 5.014,3.157 5.06,3.175 5.127,3.178 5.201,3.18 5.254,3.167 5.286,3.138 5.317,3.109 5.335,3.061 5.336,2.993 5.341,2.843 5.339,2.559 5.332,2.141 5.324,1.724 5.325,1.383 5.334,1.118 L 5.456,-2.688 C 4.506,-2.182 3.577,-1.705 2.669,-1.256 1.761,-0.808 0.871,-0.389 0,0"
             style="fill:#000000;fill-opacity:1;fill-rule:nonzero;stroke:none"
             id="path128" />
        </g>
        <g
           id="g130"
           transform="translate(150.3829,114.1925)">
          <path
             d="m 0,0 c -0.015,0.171 -0.031,0.358 -0.048,0.561 -0.018,0.203 -0.027,0.318 -0.03,0.344 L -0.473,4.699 C -0.476,4.727 -0.489,4.841 -0.514,5.041 -0.54,5.241 -0.562,5.427 -0.583,5.6 l 2.58,0.287 C 2.015,5.693 2.031,5.496 2.045,5.294 2.059,5.094 2.067,4.988 2.068,4.978 L 2.463,1.184 C 2.463,1.177 2.477,1.072 2.505,0.871 2.533,0.67 2.558,0.475 2.58,0.284 Z"
             style="fill:#000000;fill-opacity:1;fill-rule:nonzero;stroke:none"
             id="path132" />
        </g>
        <g
           id="g134"
           transform="translate(159.1946,115.5272)">
          <path
             d="m 0,0 -5.039,-0.921 c -0.027,0.169 -0.056,0.355 -0.087,0.558 -0.031,0.203 -0.049,0.315 -0.053,0.338 L -5.83,3.732 C -5.834,3.758 -5.855,3.871 -5.895,4.073 -5.934,4.274 -5.969,4.459 -6,4.627 l 4.661,0.852 c 0.097,0.018 0.162,0.019 0.194,0.004 0.033,-0.015 0.054,-0.05 0.063,-0.103 0.01,-0.057 0,-0.099 -0.029,-0.127 C -1.14,5.226 -1.199,5.204 -1.289,5.188 -1.313,5.183 -1.382,5.173 -1.499,5.157 -2.056,5.077 -2.604,4.987 -3.141,4.888 l -0.284,-0.051 0.221,-1.278 0.362,0.066 c 0.577,0.105 1.153,0.218 1.729,0.34 0.109,0.025 0.172,0.039 0.191,0.043 0.118,0.021 0.197,0.024 0.237,0.007 C -0.646,3.999 -0.621,3.958 -0.61,3.895 -0.601,3.843 -0.609,3.804 -0.634,3.778 -0.659,3.75 -0.705,3.731 -0.77,3.719 -0.794,3.715 -0.871,3.701 -1.003,3.68 -1.716,3.563 -2.435,3.438 -3.16,3.306 l 0.608,-3.511 c 0.433,0.079 0.892,0.16 1.376,0.243 0.121,0.02 0.194,0.032 0.221,0.037 0.304,0.055 0.601,0.122 0.891,0.198 C -0.009,0.288 0.022,0.297 0.03,0.298 0.077,0.307 0.116,0.301 0.148,0.28 0.18,0.26 0.2,0.228 0.208,0.184 0.217,0.128 0.21,0.088 0.186,0.064 0.162,0.039 0.099,0.018 0,0"
             style="fill:#000000;fill-opacity:1;fill-rule:nonzero;stroke:none"
             id="path136" />
        </g>
        <g
           id="g138"
           transform="translate(161.4206,121.6663)">
          <path
             d="M 0,0 0.959,-3.577 C 1.082,-3.642 1.207,-3.7 1.335,-3.75 c 0.128,-0.049 0.26,-0.093 0.394,-0.131 0.718,0.252 1.232,0.614 1.542,1.087 0.31,0.474 0.385,1.009 0.224,1.608 C 3.323,-0.543 2.964,-0.108 2.42,0.117 1.876,0.341 1.19,0.336 0.363,0.102 Z m -1.088,-5.886 c -0.042,0.166 -0.088,0.348 -0.137,0.547 -0.05,0.198 -0.077,0.309 -0.083,0.332 l -0.986,3.678 c -0.007,0.026 -0.039,0.137 -0.096,0.333 -0.057,0.197 -0.108,0.378 -0.156,0.542 L 0.296,0.35 C 1.198,0.606 1.953,0.605 2.561,0.348 3.169,0.092 3.569,-0.392 3.759,-1.103 3.93,-1.74 3.867,-2.311 3.574,-2.818 3.28,-3.324 2.781,-3.719 2.077,-4.004 2.445,-4.095 2.795,-4.156 3.128,-4.186 3.461,-4.217 3.77,-4.22 4.053,-4.193 4.154,-4.181 4.22,-4.179 4.25,-4.188 4.28,-4.197 4.299,-4.215 4.306,-4.243 4.322,-4.301 4.315,-4.356 4.284,-4.409 4.254,-4.462 4.209,-4.497 4.147,-4.515 3.898,-4.585 3.48,-4.567 2.894,-4.461 2.309,-4.354 1.693,-4.17 1.047,-3.908 L 1.39,-5.185 Z"
             style="fill:#000000;fill-opacity:1;fill-rule:nonzero;stroke:none"
             id="path140" />
        </g>
        <g
           id="g142"
           transform="translate(166.3831,124.1913)">
          <path
             d="m 0,0 -0.948,-0.35 0.041,1.196 1.418,0.523 z M 0.571,-6.426 C 0.517,-6.265 0.459,-6.087 0.395,-5.893 0.332,-5.7 0.296,-5.591 0.287,-5.567 l -1.254,3.592 c -0.009,0.027 -0.049,0.134 -0.119,0.322 -0.07,0.188 -0.135,0.364 -0.195,0.527 l 2.442,0.904 c 0.062,-0.185 0.122,-0.373 0.182,-0.564 0.06,-0.192 0.092,-0.293 0.095,-0.303 L 2.693,-4.68 c 0.002,-0.007 0.04,-0.105 0.113,-0.294 0.073,-0.188 0.142,-0.372 0.208,-0.552 z"
             style="fill:#000000;fill-opacity:1;fill-rule:nonzero;stroke:none"
             id="path144" />
        </g>
        <g
           id="g146"
           transform="translate(172.6366,121.1809)">
          <path
             d="M 0,0 C -0.365,0.283 -0.718,0.547 -1.059,0.795 -1.4,1.043 -1.733,1.274 -2.057,1.49 l -0.354,-2.595 z m 0.937,-0.714 -0.685,0.527 -2.703,-1.239 c -0.018,-0.131 -0.037,-0.299 -0.056,-0.504 -0.03,-0.289 -0.077,-0.449 -0.142,-0.479 -0.039,-0.018 -0.081,-0.019 -0.124,-0.003 -0.043,0.016 -0.073,0.042 -0.09,0.081 -0.014,0.033 0.026,0.336 0.119,0.912 0.093,0.575 0.172,1.113 0.236,1.618 l 0.562,4.363 5.622,-4.021 z"
             style="fill:#000000;fill-opacity:1;fill-rule:nonzero;stroke:none"
             id="path148" />
        </g>
        <g
           id="g150"
           transform="translate(179.2898,123.4639)">
          <path
             d="m 0,0 c -0.084,0.148 -0.175,0.311 -0.273,0.488 -0.098,0.178 -0.153,0.277 -0.167,0.3 l -1.904,3.276 c -0.014,0.025 -0.073,0.122 -0.177,0.293 -0.104,0.17 -0.201,0.33 -0.289,0.478 l 2.226,1.37 C -0.489,6.036 -0.394,5.864 -0.299,5.687 -0.204,5.511 -0.155,5.418 -0.15,5.409 L 1.754,2.133 C 1.758,2.126 1.813,2.038 1.92,1.867 2.027,1.697 2.13,1.53 2.228,1.366 Z"
             style="fill:#000000;fill-opacity:1;fill-rule:nonzero;stroke:none"
             id="path152" />
        </g>
        <g
           id="g154"
           transform="translate(181.2977,127.8284)">
          <path
             d="M 0,0 0.719,-1.043 C 0.861,-1.251 1.017,-1.463 1.184,-1.679 1.35,-1.895 1.439,-2.011 1.449,-2.026 1.499,-2.098 1.522,-2.155 1.518,-2.197 1.515,-2.24 1.486,-2.281 1.432,-2.32 1.373,-2.363 1.323,-2.382 1.282,-2.376 1.241,-2.372 1.201,-2.34 1.161,-2.283 1.076,-2.16 0.927,-1.923 0.713,-1.573 0.499,-1.222 0.317,-0.937 0.167,-0.719 L -1.975,2.389 C -0.947,2.5 0.066,2.625 1.064,2.764 2.062,2.904 3.045,3.06 4.014,3.233 L 3.297,4.273 C 3.154,4.481 2.999,4.692 2.832,4.905 2.666,5.118 2.577,5.233 2.565,5.25 2.515,5.324 2.49,5.383 2.493,5.427 2.496,5.47 2.524,5.511 2.579,5.551 2.64,5.595 2.691,5.614 2.733,5.608 2.774,5.602 2.815,5.571 2.852,5.516 2.937,5.393 3.088,5.155 3.305,4.802 3.522,4.449 3.705,4.164 3.855,3.948 L 5.996,0.84 C 4.931,0.725 3.9,0.599 2.902,0.46 1.903,0.321 0.936,0.168 0,0"
             style="fill:#000000;fill-opacity:1;fill-rule:nonzero;stroke:none"
             id="path156" />
        </g>
        <g
           id="g158"
           transform="translate(189.9807,131.5692)">
          <path
             d="m 0,0 0.106,0.095 c 0.405,0.363 0.691,0.68 0.856,0.95 0.165,0.27 0.269,0.569 0.312,0.898 C 1.32,2.293 1.287,2.642 1.176,2.987 1.065,3.332 0.881,3.655 0.625,3.957 0.369,4.259 0.082,4.49 -0.236,4.65 -0.554,4.809 -0.885,4.89 -1.23,4.892 -1.552,4.892 -1.855,4.827 -2.138,4.696 -2.421,4.565 -2.765,4.318 -3.171,3.954 L -3.277,3.86 Z M -2.342,-1.235 -4.783,1.641 C -4.8,1.66 -4.876,1.746 -5.01,1.898 -5.144,2.05 -5.268,2.19 -5.379,2.317 l 1.938,1.736 c 0.488,0.438 0.892,0.731 1.211,0.88 0.318,0.15 0.656,0.224 1.014,0.224 0.383,-0.001 0.751,-0.09 1.103,-0.265 C 0.24,4.716 0.554,4.466 0.83,4.141 1.106,3.816 1.305,3.462 1.426,3.079 1.547,2.697 1.583,2.31 1.532,1.92 1.485,1.555 1.368,1.22 1.18,0.917 0.991,0.614 0.653,0.244 0.165,-0.194 L -1.773,-1.93 c -0.108,0.131 -0.226,0.276 -0.354,0.433 -0.129,0.157 -0.2,0.245 -0.215,0.262"
             style="fill:#000000;fill-opacity:1;fill-rule:nonzero;stroke:none"
             id="path160" />
        </g>
        <g
           id="g162"
           transform="translate(191.9542,135.6923)">
          <path
             d="m 0,0 -1.953,1.871 c -0.019,0.018 -0.103,0.096 -0.251,0.232 -0.149,0.138 -0.285,0.263 -0.41,0.378 l 1.768,1.947 c 0.135,-0.129 0.271,-0.264 0.405,-0.402 0.136,-0.14 0.207,-0.213 0.217,-0.222 L 3.102,0.617 3.264,0.794 c 0.383,0.422 0.655,0.809 0.814,1.16 0.16,0.351 0.218,0.687 0.175,1.01 C 4.217,3.225 4.081,3.517 3.844,3.839 3.606,4.16 3.113,4.679 2.364,5.397 L 1.881,5.859 C 1.689,6.044 1.492,6.221 1.291,6.392 1.257,6.42 1.236,6.438 1.229,6.444 1.168,6.503 1.135,6.554 1.13,6.598 1.126,6.643 1.147,6.692 1.197,6.746 1.24,6.794 1.28,6.818 1.317,6.818 1.354,6.819 1.398,6.794 1.45,6.744 2.127,6.096 2.711,5.513 3.204,4.996 3.696,4.48 4.014,4.121 4.156,3.921 4.497,3.445 4.607,2.935 4.487,2.39 4.368,1.846 4.016,1.252 3.433,0.609 2.747,-0.146 2.143,-0.569 1.62,-0.662 1.097,-0.754 0.557,-0.533 0,0"
             style="fill:#000000;fill-opacity:1;fill-rule:nonzero;stroke:none"
             id="path164" />
        </g>
        <g
           id="g166"
           transform="translate(198.1489,141.8315)">
          <path
             d="M 0,0 -1.227,-0.133 C -1.81,-0.2 -2.266,-0.21 -2.593,-0.163 c -0.327,0.046 -0.597,0.154 -0.809,0.322 -0.385,0.305 -0.566,0.729 -0.545,1.272 0.021,0.544 0.246,1.099 0.672,1.667 0.166,0.222 0.345,0.411 0.537,0.569 0.192,0.157 0.415,0.3 0.67,0.426 0.13,0.063 0.242,0.103 0.335,0.121 0.093,0.017 0.159,0.012 0.197,-0.019 C -1.514,4.178 -1.502,4.152 -1.5,4.119 -1.497,4.087 -1.507,4.055 -1.527,4.028 -1.557,3.989 -1.639,3.953 -1.774,3.923 -1.851,3.906 -1.91,3.891 -1.953,3.877 -2.137,3.819 -2.311,3.728 -2.476,3.607 -2.642,3.485 -2.787,3.34 -2.914,3.171 -3.017,3.034 -3.075,2.906 -3.088,2.789 -3.101,2.671 -3.066,2.58 -2.984,2.516 c 0.073,-0.059 0.191,-0.093 0.351,-0.103 0.161,-0.01 0.381,0.004 0.662,0.042 l 1.54,0.206 C -0.016,2.716 0.347,2.716 0.66,2.663 0.972,2.608 1.231,2.501 1.435,2.339 1.826,2.029 2.006,1.601 1.976,1.052 1.945,0.503 1.706,-0.069 1.258,-0.665 1.036,-0.963 0.783,-1.212 0.501,-1.416 0.218,-1.62 -0.092,-1.774 -0.43,-1.88 -0.6,-1.932 -0.719,-1.962 -0.787,-1.969 c -0.069,-0.009 -0.119,0 -0.151,0.025 -0.03,0.024 -0.047,0.056 -0.052,0.096 -0.005,0.04 0.004,0.075 0.027,0.106 0.035,0.048 0.129,0.09 0.28,0.125 0.094,0.023 0.169,0.043 0.223,0.061 0.335,0.106 0.605,0.221 0.809,0.346 0.204,0.125 0.37,0.274 0.499,0.445 0.111,0.147 0.172,0.283 0.184,0.407 0.011,0.123 -0.028,0.221 -0.118,0.293 C 0.846,-0.011 0.743,0.021 0.604,0.032 0.466,0.044 0.264,0.033 0,0"
             style="fill:#000000;fill-opacity:1;fill-rule:nonzero;stroke:none"
             id="path168" />
        </g>
        <g
           id="g170"
           transform="translate(201.9029,144.9896)">
          <path
             d="m 0,0 c -0.139,0.095 -0.292,0.2 -0.458,0.313 -0.166,0.115 -0.259,0.178 -0.278,0.191 l -2.92,1.921 C -3.676,2.437 -3.769,2.497 -3.937,2.602 -4.106,2.708 -4.26,2.806 -4.403,2.896 -4.565,2.622 -4.725,2.345 -4.883,2.064 -5.042,1.782 -5.125,1.636 -5.132,1.625 -5.175,1.556 -5.215,1.513 -5.253,1.497 -5.29,1.481 -5.331,1.487 -5.376,1.517 -5.429,1.552 -5.457,1.589 -5.46,1.628 c -0.002,0.04 0.025,0.104 0.081,0.193 l 2.913,4.674 c 0.056,0.09 0.102,0.141 0.138,0.156 0.036,0.014 0.08,0.003 0.134,-0.032 C -2.15,6.589 -2.127,6.553 -2.127,6.511 -2.126,6.468 -2.148,6.413 -2.19,6.343 -2.196,6.334 -2.29,6.198 -2.47,5.934 -2.651,5.671 -2.829,5.407 -3.003,5.141 -2.864,5.047 -2.713,4.943 -2.549,4.83 -2.384,4.717 -2.293,4.654 -2.273,4.642 L 0.647,2.721 C 0.665,2.708 0.76,2.648 0.931,2.541 1.101,2.434 1.257,2.335 1.399,2.245 Z"
             style="fill:#000000;fill-opacity:1;fill-rule:nonzero;stroke:none"
             id="path172" />
        </g>
        <g
           id="g174"
           transform="translate(201.0073,154.0558)">
          <path
             d="m 0,0 3.222,-1.676 c 0.13,0.049 0.255,0.106 0.377,0.17 0.123,0.064 0.243,0.134 0.36,0.211 C 4.26,-0.58 4.344,0.054 4.213,0.608 4.08,1.162 3.744,1.579 3.205,1.86 2.625,2.161 2.071,2.181 1.543,1.918 1.016,1.655 0.558,1.131 0.17,0.344 Z m 3.51,-4.786 c -0.148,0.08 -0.31,0.168 -0.487,0.264 -0.176,0.097 -0.275,0.15 -0.295,0.161 l -3.314,1.723 c -0.022,0.012 -0.124,0.063 -0.304,0.152 -0.179,0.089 -0.344,0.171 -0.495,0.246 l 1.332,2.7 C 0.369,1.318 0.877,1.892 1.471,2.181 2.065,2.471 2.682,2.45 3.323,2.116 3.896,1.818 4.266,1.387 4.433,0.823 4.6,0.258 4.549,-0.387 4.282,-1.114 4.594,-0.895 4.873,-0.67 5.12,-0.437 5.366,-0.204 5.575,0.029 5.747,0.262 5.806,0.347 5.85,0.398 5.876,0.415 5.903,0.432 5.929,0.434 5.953,0.421 6.005,0.394 6.04,0.351 6.058,0.293 6.076,0.234 6.07,0.176 6.041,0.117 5.925,-0.12 5.631,-0.425 5.161,-0.799 4.69,-1.172 4.143,-1.517 3.52,-1.831 L 4.671,-2.43 Z"
             style="fill:#000000;fill-opacity:1;fill-rule:nonzero;stroke:none"
             id="path176" />
        </g>
        <g
           id="g178"
           transform="translate(207.5396,155.6724)">
          <path
             d="M 0,0 C -0.154,0.067 -0.322,0.14 -0.505,0.221 -0.687,0.3 -0.79,0.345 -0.814,0.355 l -3.445,1.427 c -0.025,0.011 -0.13,0.052 -0.313,0.123 -0.184,0.072 -0.354,0.139 -0.513,0.201 L -4.117,4.58 C -3.943,4.505 -3.766,4.426 -3.586,4.345 -3.407,4.263 -3.312,4.22 -3.304,4.216 L 0.142,2.789 C 0.149,2.786 0.245,2.75 0.43,2.681 0.616,2.611 0.796,2.542 0.97,2.473 Z"
             style="fill:#000000;fill-opacity:1;fill-rule:nonzero;stroke:none"
             id="path180" />
        </g>
        <g
           id="g182"
           transform="translate(208.8204,162.3349)">
          <path
             d="m 0,0 c -0.447,-0.097 -0.874,-0.196 -1.28,-0.296 -0.406,-0.101 -0.794,-0.206 -1.166,-0.316 l 1.671,-1.979 z M 1.14,0.255 0.303,0.072 -0.566,-2.834 c 0.084,-0.101 0.194,-0.226 0.332,-0.375 0.193,-0.213 0.279,-0.355 0.258,-0.425 -0.013,-0.042 -0.039,-0.075 -0.079,-0.098 -0.04,-0.023 -0.079,-0.029 -0.118,-0.016 -0.034,0.01 -0.231,0.241 -0.591,0.691 -0.36,0.45 -0.704,0.866 -1.032,1.247 L -4.626,1.495 2.02,3.2 Z"
             style="fill:#000000;fill-opacity:1;fill-rule:nonzero;stroke:none"
             id="path184" />
        </g>
        <g
           id="g186"
           transform="translate(210.9046,166.0508)">
          <path
             d="M 0,0 C -0.163,0.036 -0.342,0.076 -0.538,0.119 -0.733,0.163 -0.842,0.187 -0.864,0.192 L -4.509,0.928 C -4.533,0.933 -4.644,0.954 -4.841,0.99 -5.038,1.025 -5.218,1.058 -5.382,1.089 l 0.5,2.615 C -4.699,3.664 -4.511,3.622 -4.321,3.576 -4.13,3.53 -4.028,3.506 -4.015,3.504 L -0.609,2.815 C -0.596,2.812 -0.495,2.796 -0.303,2.764 -0.113,2.732 0.074,2.701 0.257,2.67 l 0.089,0.467 c 0.132,0.691 0.244,1.357 0.337,2 0.013,0.095 0.021,0.149 0.023,0.162 0.01,0.055 0.03,0.092 0.06,0.112 0.03,0.021 0.071,0.026 0.123,0.015 C 0.946,5.415 0.981,5.39 0.995,5.353 1.008,5.314 1.006,5.25 0.988,5.159 Z"
             style="fill:#000000;fill-opacity:1;fill-rule:nonzero;stroke:none"
             id="path188" />
        </g>
        <g
           id="g190"
           transform="translate(78.0364,193.8517)">
          <path
             d="M 0,0 -2.646,0.569 C -2.67,0.575 -2.782,0.597 -2.981,0.635 -3.18,0.674 -3.362,0.71 -3.528,0.744 l 0.517,2.47 c 0.182,-0.039 0.367,-0.083 0.555,-0.13 0.188,-0.047 0.288,-0.072 0.301,-0.075 L 2.351,2.04 2.398,2.264 C 2.51,2.801 2.544,3.252 2.5,3.619 2.456,3.986 2.332,4.29 2.129,4.533 1.964,4.731 1.696,4.903 1.326,5.048 0.956,5.195 0.264,5.377 -0.751,5.595 l -0.654,0.141 c -0.26,0.056 -0.521,0.104 -0.782,0.145 -0.044,0.006 -0.07,0.011 -0.08,0.013 -0.083,0.018 -0.137,0.043 -0.165,0.077 -0.027,0.034 -0.033,0.085 -0.018,0.154 0.012,0.061 0.034,0.1 0.066,0.119 0.031,0.019 0.082,0.02 0.152,0.005 0.917,-0.198 1.72,-0.386 2.41,-0.567 C 0.868,5.502 1.327,5.365 1.553,5.271 2.091,5.048 2.449,4.685 2.627,4.179 2.805,3.673 2.809,3.012 2.639,2.197 2.439,1.238 2.137,0.592 1.735,0.258 1.333,-0.076 0.754,-0.162 0,0"
             style="fill:#000000;fill-opacity:1;fill-rule:nonzero;stroke:none"
             id="path192" />
        </g>
        <g
           id="g194"
           transform="translate(78.8314,200.7028)">
          <path
             d="M 0,0 1.202,-0.385 C 1.441,-0.461 1.693,-0.534 1.955,-0.603 2.218,-0.673 2.359,-0.711 2.376,-0.716 2.459,-0.742 2.512,-0.773 2.534,-0.808 2.557,-0.842 2.559,-0.89 2.54,-0.952 2.519,-1.019 2.491,-1.062 2.455,-1.082 2.42,-1.102 2.368,-1.102 2.303,-1.081 2.161,-1.035 1.899,-0.94 1.517,-0.794 1.136,-0.649 0.819,-0.537 0.568,-0.455 l -3.58,1.146 c 0.749,0.681 1.477,1.364 2.185,2.051 0.707,0.685 1.393,1.376 2.058,2.07 L 0.032,5.196 c -0.239,0.076 -0.489,0.148 -0.75,0.216 -0.261,0.066 -0.401,0.104 -0.421,0.11 -0.085,0.027 -0.14,0.058 -0.164,0.093 -0.024,0.035 -0.027,0.084 -0.007,0.146 0.021,0.069 0.05,0.114 0.087,0.133 0.037,0.019 0.087,0.019 0.151,-0.001 C -0.93,5.847 -0.667,5.752 -0.281,5.607 0.105,5.461 0.423,5.349 0.672,5.269 L 4.251,4.123 C 3.476,3.418 2.734,2.722 2.025,2.036 1.316,1.35 0.642,0.672 0,0"
             style="fill:#000000;fill-opacity:1;fill-rule:nonzero;stroke:none"
             id="path196" />
        </g>
        <g
           id="g198"
           transform="translate(83.2508,205.6829)">
          <path
             d="m 0,0 c -0.156,0.066 -0.326,0.139 -0.512,0.218 -0.185,0.08 -0.29,0.125 -0.313,0.134 l -3.493,1.417 c -0.026,0.01 -0.132,0.051 -0.317,0.122 -0.186,0.071 -0.359,0.138 -0.519,0.2 l 0.922,2.35 C -4.055,4.366 -3.875,4.288 -3.693,4.208 -3.512,4.127 -3.416,4.085 -3.406,4.081 L 0.086,2.664 C 0.093,2.661 0.19,2.625 0.378,2.556 0.566,2.486 0.749,2.417 0.925,2.349 Z"
             style="fill:#000000;fill-opacity:1;fill-rule:nonzero;stroke:none"
             id="path200" />
        </g>
        <g
           id="g202"
           transform="translate(86.0559,211.2424)">
          <path
             d="m 0,0 c -1.305,-0.1 -2.524,-0.198 -3.657,-0.297 -1.133,-0.099 -2.213,-0.2 -3.24,-0.304 l 1.256,2.613 3.638,0.32 -0.863,1.229 C -2.947,3.694 -3.097,3.907 -3.314,4.202 -3.532,4.496 -3.776,4.81 -4.044,5.146 -4.089,5.2 -4.115,5.244 -4.121,5.279 -4.127,5.314 -4.12,5.353 -4.1,5.395 c 0.02,0.042 0.05,0.07 0.087,0.084 0.039,0.014 0.078,0.012 0.117,-0.007 C -3.827,5.437 -3.369,4.799 -2.521,3.555 -1.672,2.311 -0.832,1.126 0,0"
             style="fill:#000000;fill-opacity:1;fill-rule:nonzero;stroke:none"
             id="path204" />
        </g>
        <g
           id="g206"
           transform="translate(89.7289,218.6338)">
          <path
             d="m 0,0 -2.546,-4.267 c -0.143,0.091 -0.301,0.192 -0.472,0.301 -0.17,0.11 -0.266,0.17 -0.286,0.183 l -3.217,1.976 c -0.022,0.013 -0.12,0.071 -0.296,0.175 -0.175,0.103 -0.335,0.197 -0.481,0.284 l 2.355,3.947 c 0.049,0.082 0.09,0.13 0.122,0.144 0.032,0.013 0.071,0.006 0.117,-0.022 0.048,-0.03 0.073,-0.064 0.075,-0.103 C -4.627,2.578 -4.648,2.521 -4.693,2.446 -4.705,2.426 -4.743,2.368 -4.805,2.273 -5.103,1.815 -5.387,1.358 -5.659,0.902 l -0.143,-0.24 1.094,-0.672 0.183,0.307 c 0.292,0.489 0.577,0.982 0.855,1.478 0.052,0.097 0.082,0.152 0.091,0.168 0.06,0.1 0.109,0.159 0.146,0.177 0.038,0.018 0.084,0.01 0.139,-0.024 C -3.25,2.069 -3.226,2.038 -3.222,2.002 -3.218,1.966 -3.233,1.921 -3.266,1.865 -3.278,1.845 -3.318,1.78 -3.386,1.67 -3.757,1.075 -4.125,0.47 -4.491,-0.143 l 3.007,-1.847 c 0.219,0.367 0.452,0.753 0.701,1.159 0.063,0.101 0.101,0.163 0.115,0.185 0.153,0.258 0.295,0.517 0.423,0.778 0.024,0.049 0.038,0.078 0.042,0.084 0.023,0.04 0.054,0.065 0.089,0.075 0.036,0.01 0.073,0.004 0.11,-0.02 C 0.044,0.242 0.07,0.21 0.072,0.177 0.074,0.144 0.05,0.085 0,0"
             style="fill:#000000;fill-opacity:1;fill-rule:nonzero;stroke:none"
             id="path208" />
        </g>
        <g
           id="g210"
           transform="translate(87.3154,224.447)">
          <path
             d="m 0,0 2.943,-2.204 c 0.134,0.023 0.265,0.053 0.394,0.09 0.129,0.038 0.257,0.082 0.383,0.132 0.395,0.622 0.565,1.208 0.511,1.759 C 4.176,0.328 3.903,0.788 3.41,1.157 2.881,1.553 2.338,1.677 1.782,1.528 1.227,1.379 0.704,0.968 0.215,0.295 Z m 2.799,-5.21 c -0.134,0.104 -0.282,0.218 -0.442,0.343 -0.161,0.125 -0.25,0.195 -0.269,0.208 l -3.026,2.266 c -0.021,0.015 -0.114,0.083 -0.279,0.202 -0.165,0.119 -0.316,0.228 -0.453,0.327 L 0.01,0.447 C 0.544,1.181 1.123,1.629 1.747,1.791 2.371,1.954 2.976,1.816 3.561,1.377 4.085,0.985 4.39,0.506 4.477,-0.061 4.564,-0.629 4.426,-1.232 4.063,-1.871 c 0.337,0.148 0.643,0.31 0.918,0.483 0.274,0.174 0.512,0.355 0.712,0.544 0.071,0.07 0.12,0.111 0.148,0.122 0.029,0.011 0.055,0.007 0.078,-0.01 C 5.966,-0.767 5.995,-0.814 6.004,-0.873 6.014,-0.932 6,-0.986 5.964,-1.036 5.816,-1.24 5.485,-1.473 4.971,-1.739 4.456,-2.004 3.871,-2.227 3.215,-2.407 l 1.051,-0.788 z"
             style="fill:#000000;fill-opacity:1;fill-rule:nonzero;stroke:none"
             id="path212" />
        </g>
        <g
           id="g214"
           transform="translate(94.0797,226.4344)">
          <path
             d="m 0,0 -1.218,-0.019 c -0.58,-0.012 -1.031,0.02 -1.353,0.095 -0.323,0.074 -0.586,0.203 -0.79,0.384 -0.369,0.33 -0.533,0.756 -0.492,1.28 0.041,0.523 0.283,1.041 0.726,1.552 0.172,0.199 0.356,0.366 0.552,0.501 0.195,0.136 0.422,0.253 0.678,0.353 0.131,0.048 0.243,0.078 0.337,0.086 0.092,0.009 0.157,-0.003 0.194,-0.035 C -1.345,4.178 -1.334,4.153 -1.333,4.12 -1.332,4.088 -1.342,4.06 -1.364,4.034 -1.395,3.999 -1.477,3.972 -1.612,3.955 -1.688,3.946 -1.747,3.936 -1.79,3.926 -1.975,3.887 -2.15,3.815 -2.318,3.712 -2.486,3.61 -2.636,3.482 -2.768,3.33 -2.874,3.206 -2.936,3.089 -2.953,2.976 -2.971,2.864 -2.94,2.772 -2.861,2.702 -2.79,2.638 -2.675,2.595 -2.517,2.571 -2.358,2.548 -2.139,2.541 -1.861,2.552 l 1.532,0.061 C 0.084,2.629 0.443,2.597 0.751,2.517 1.058,2.436 1.309,2.309 1.506,2.133 1.881,1.799 2.043,1.368 1.994,0.84 1.944,0.312 1.686,-0.22 1.221,-0.757 0.99,-1.024 0.731,-1.243 0.444,-1.415 c -0.287,-0.171 -0.6,-0.293 -0.938,-0.365 -0.17,-0.035 -0.289,-0.053 -0.357,-0.055 -0.068,-0.002 -0.117,0.011 -0.148,0.039 -0.029,0.025 -0.045,0.058 -0.049,0.097 -0.003,0.04 0.007,0.073 0.031,0.1 0.037,0.043 0.131,0.075 0.282,0.096 0.094,0.013 0.168,0.026 0.224,0.039 0.335,0.072 0.605,0.159 0.812,0.262 0.207,0.103 0.377,0.231 0.51,0.385 0.115,0.132 0.181,0.259 0.197,0.378 0.016,0.118 -0.019,0.217 -0.106,0.294 C 0.837,-0.087 0.736,-0.046 0.599,-0.023 0.462,0.001 0.262,0.008 0,0"
             style="fill:#000000;fill-opacity:1;fill-rule:nonzero;stroke:none"
             id="path216" />
        </g>
        <g
           id="g218"
           transform="translate(97.1565,228.0063)">
          <path
             d="m 0,0 c -0.118,0.123 -0.246,0.258 -0.386,0.405 -0.14,0.146 -0.219,0.229 -0.237,0.247 l -2.662,2.695 c -0.021,0.021 -0.102,0.1 -0.245,0.24 -0.144,0.139 -0.277,0.27 -0.4,0.391 l 1.758,1.793 c 0.134,-0.14 0.269,-0.282 0.405,-0.43 0.136,-0.147 0.208,-0.224 0.215,-0.231 L 1.111,2.415 C 1.116,2.409 1.192,2.338 1.338,2.199 1.484,2.06 1.625,1.924 1.761,1.79 Z"
             style="fill:#000000;fill-opacity:1;fill-rule:nonzero;stroke:none"
             id="path220" />
        </g>
        <g
           id="g222"
           transform="translate(101.2009,232.2529)">
          <path
             d="M 0,0 0.102,0.089 C 0.493,0.432 0.767,0.734 0.923,0.993 1.08,1.252 1.176,1.542 1.212,1.861 1.249,2.203 1.209,2.544 1.092,2.886 0.976,3.227 0.789,3.548 0.531,3.851 0.273,4.154 -0.013,4.388 -0.329,4.554 -0.645,4.72 -0.973,4.809 -1.312,4.821 -1.628,4.832 -1.925,4.777 -2.2,4.658 -2.476,4.538 -2.809,4.306 -3.2,3.963 L -3.302,3.874 Z M -2.276,-1.136 -4.736,1.75 C -4.753,1.769 -4.829,1.856 -4.964,2.009 -5.1,2.161 -5.224,2.302 -5.336,2.43 l 1.868,1.639 c 0.471,0.413 0.862,0.687 1.172,0.823 0.31,0.137 0.641,0.2 0.992,0.189 0.377,-0.014 0.74,-0.111 1.09,-0.294 C 0.137,4.605 0.451,4.351 0.729,4.024 1.007,3.699 1.21,3.346 1.337,2.968 1.464,2.59 1.507,2.212 1.466,1.831 1.427,1.475 1.319,1.151 1.14,0.861 0.962,0.57 0.637,0.218 0.166,-0.195 l -1.868,-1.638 c -0.109,0.131 -0.228,0.276 -0.357,0.434 -0.13,0.158 -0.202,0.245 -0.217,0.263"
             style="fill:#000000;fill-opacity:1;fill-rule:nonzero;stroke:none"
             id="path224" />
        </g>
        <g
           id="g226"
           transform="translate(105.6557,236.8257)">
          <path
             d="m 0,0 c -0.408,0.209 -0.801,0.403 -1.18,0.582 -0.378,0.179 -0.745,0.345 -1.1,0.496 l 0.217,-2.573 z M 1.045,-0.525 0.28,-0.137 -2.032,-1.813 c 0.01,-0.13 0.028,-0.297 0.053,-0.498 0.034,-0.286 0.023,-0.448 -0.033,-0.489 -0.033,-0.024 -0.072,-0.033 -0.117,-0.025 -0.045,0.008 -0.079,0.028 -0.103,0.062 -0.021,0.03 -0.048,0.331 -0.082,0.904 -0.033,0.573 -0.074,1.109 -0.12,1.608 L -2.83,4.071 3.389,1.174 Z"
             style="fill:#000000;fill-opacity:1;fill-rule:nonzero;stroke:none"
             id="path228" />
        </g>
        <g
           id="g230"
           transform="translate(111.0904,239.4632)">
          <path
             d="M 0,0 0.116,0.069 C 0.564,0.332 0.888,0.576 1.089,0.802 1.291,1.026 1.438,1.293 1.532,1.6 1.631,1.929 1.654,2.272 1.602,2.629 1.551,2.986 1.425,3.338 1.228,3.684 1.03,4.03 0.791,4.314 0.511,4.537 0.231,4.76 -0.075,4.909 -0.405,4.985 -0.715,5.055 -1.016,5.057 -1.308,4.991 -1.601,4.926 -1.971,4.761 -2.418,4.497 L -2.535,4.429 Z m -2.445,-0.687 -1.888,3.3 C -4.346,2.636 -4.405,2.734 -4.51,2.91 -4.615,3.085 -4.711,3.247 -4.798,3.394 l 2.136,1.258 C -2.123,4.968 -1.69,5.165 -1.36,5.24 -1.03,5.316 -0.694,5.315 -0.35,5.238 0.018,5.154 0.357,4.989 0.668,4.744 0.978,4.499 1.24,4.19 1.454,3.816 1.667,3.444 1.802,3.06 1.857,2.664 1.913,2.269 1.886,1.889 1.775,1.523 1.673,1.18 1.507,0.883 1.278,0.631 1.049,0.379 0.666,0.094 0.127,-0.222 L -2.009,-1.48 c -0.083,0.149 -0.173,0.314 -0.271,0.493 -0.099,0.18 -0.153,0.279 -0.165,0.3"
             style="fill:#000000;fill-opacity:1;fill-rule:nonzero;stroke:none"
             id="path232" />
        </g>
        <g
           id="g234"
           transform="translate(117.8397,242.6738)">
          <path
             d="M 0,0 C -0.063,0.159 -0.131,0.334 -0.205,0.525 -0.28,0.716 -0.321,0.822 -0.331,0.844 L -1.682,4.132 C -1.691,4.153 -1.735,4.257 -1.816,4.443 -1.896,4.629 -1.97,4.8 -2.037,4.957 -2.311,4.833 -2.585,4.705 -2.86,4.573 -3.135,4.442 -3.278,4.374 -3.29,4.369 -3.36,4.338 -3.415,4.328 -3.454,4.337 c -0.038,0.009 -0.068,0.039 -0.088,0.09 -0.025,0.059 -0.028,0.106 -0.01,0.138 0.019,0.034 0.074,0.07 0.166,0.109 L 1.404,6.7 C 1.496,6.739 1.56,6.753 1.596,6.743 1.633,6.733 1.663,6.698 1.687,6.638 1.708,6.588 1.707,6.545 1.685,6.51 1.664,6.476 1.617,6.444 1.547,6.414 1.537,6.409 1.391,6.356 1.108,6.252 0.824,6.147 0.543,6.04 0.264,5.93 0.326,5.771 0.394,5.597 0.468,5.408 0.541,5.22 0.582,5.115 0.591,5.094 L 1.942,1.805 C 1.951,1.784 1.997,1.679 2.078,1.492 2.159,1.303 2.234,1.131 2.301,0.973 Z"
             style="fill:#000000;fill-opacity:1;fill-rule:nonzero;stroke:none"
             id="path236" />
        </g>
        <g
           id="g238"
           transform="translate(126.4905,245.8544)">
          <path
             d="m 0,0 -4.682,-1.522 c -0.049,0.163 -0.103,0.344 -0.161,0.541 -0.058,0.196 -0.091,0.306 -0.098,0.328 L -6.089,2.98 c -0.008,0.025 -0.045,0.135 -0.11,0.329 -0.066,0.194 -0.125,0.372 -0.179,0.535 l 4.331,1.409 c 0.09,0.028 0.152,0.038 0.185,0.026 0.033,-0.01 0.058,-0.042 0.074,-0.094 C -1.771,5.13 -1.774,5.088 -1.798,5.057 -1.822,5.026 -1.875,4.997 -1.958,4.97 -1.98,4.963 -2.046,4.944 -2.154,4.915 -2.675,4.767 -3.186,4.612 -3.686,4.45 l -0.263,-0.086 0.391,-1.236 0.336,0.109 c 0.537,0.175 1.071,0.356 1.603,0.546 0.101,0.039 0.159,0.06 0.176,0.066 0.11,0.036 0.185,0.048 0.225,0.036 0.04,-0.012 0.07,-0.049 0.09,-0.11 C -1.113,3.726 -1.115,3.686 -1.136,3.656 -1.156,3.626 -1.196,3.601 -1.257,3.582 -1.279,3.575 -1.351,3.552 -1.474,3.515 -2.139,3.313 -2.808,3.102 -3.481,2.883 l 1.073,-3.396 c 0.403,0.131 0.829,0.267 1.28,0.408 0.112,0.034 0.181,0.055 0.205,0.063 0.283,0.091 0.558,0.193 0.824,0.304 0.05,0.022 0.078,0.034 0.085,0.036 C 0.03,0.312 0.069,0.311 0.103,0.295 0.136,0.279 0.159,0.249 0.172,0.207 0.19,0.153 0.189,0.113 0.169,0.085 0.149,0.058 0.093,0.03 0,0"
             style="fill:#000000;fill-opacity:1;fill-rule:nonzero;stroke:none"
             id="path240" />
        </g>
        <g
           id="g242"
           transform="translate(129.5733,246.6903)">
          <path
             d="M 0,0 C 0.031,0.004 0.065,0.011 0.105,0.018 0.143,0.025 0.199,0.037 0.272,0.054 0.719,0.155 1.107,0.333 1.435,0.589 1.763,0.844 2.026,1.172 2.224,1.574 2.277,1.679 2.327,1.815 2.374,1.983 2.421,2.151 2.475,2.241 2.535,2.255 2.575,2.264 2.607,2.259 2.634,2.242 2.66,2.223 2.678,2.194 2.687,2.154 2.702,2.082 2.683,1.964 2.628,1.797 2.572,1.63 2.493,1.455 2.388,1.275 2.16,0.891 1.878,0.575 1.54,0.327 1.202,0.079 0.821,-0.094 0.396,-0.19 c -0.42,-0.095 -0.823,-0.111 -1.208,-0.047 -0.385,0.063 -0.749,0.205 -1.091,0.425 -0.336,0.217 -0.615,0.486 -0.837,0.805 -0.221,0.32 -0.375,0.677 -0.461,1.07 -0.086,0.391 -0.095,0.78 -0.026,1.17 0.07,0.39 0.212,0.756 0.428,1.097 0.216,0.345 0.482,0.627 0.8,0.848 0.317,0.221 0.684,0.379 1.102,0.473 0.382,0.087 0.751,0.106 1.106,0.061 C 0.565,5.666 0.921,5.55 1.279,5.365 1.442,5.282 1.572,5.2 1.67,5.12 1.768,5.04 1.823,4.97 1.836,4.912 1.842,4.881 1.836,4.853 1.817,4.826 1.798,4.799 1.772,4.782 1.74,4.774 1.685,4.762 1.599,4.801 1.482,4.892 1.388,4.964 1.307,5.019 1.241,5.057 0.897,5.25 0.55,5.376 0.202,5.433 -0.146,5.49 -0.499,5.478 -0.857,5.396 -0.894,5.389 -0.934,5.379 -0.974,5.368 -1.016,5.358 -1.08,5.338 -1.168,5.31 Z"
             style="fill:#000000;fill-opacity:1;fill-rule:nonzero;stroke:none"
             id="path244" />
        </g>
        <g
           id="g246"
           transform="translate(133.0095,250.0498)">
          <path
             d="M 0,0 0.157,-1.268 C 0.188,-1.521 0.228,-1.783 0.276,-2.055 0.323,-2.326 0.348,-2.471 0.351,-2.489 0.361,-2.577 0.356,-2.638 0.334,-2.673 0.313,-2.709 0.27,-2.731 0.207,-2.739 c -0.069,-0.009 -0.119,0 -0.152,0.024 -0.033,0.025 -0.053,0.072 -0.062,0.142 -0.018,0.149 -0.042,0.43 -0.071,0.843 -0.029,0.413 -0.06,0.752 -0.093,1.017 L -0.639,3.065 C 0.284,2.659 1.2,2.272 2.11,1.906 3.02,1.54 3.925,1.195 4.825,0.872 L 4.668,2.137 C 4.637,2.39 4.597,2.65 4.548,2.919 4.499,3.188 4.474,3.333 4.471,3.353 4.46,3.443 4.465,3.507 4.486,3.544 4.508,3.58 4.55,3.602 4.613,3.611 4.685,3.62 4.737,3.611 4.77,3.585 4.802,3.559 4.823,3.513 4.831,3.446 4.85,3.297 4.875,3.013 4.905,2.597 4.936,2.181 4.968,1.841 5.001,1.578 L 5.468,-2.2 C 4.512,-1.779 3.579,-1.385 2.669,-1.018 1.759,-0.65 0.87,-0.311 0,0"
             style="fill:#000000;fill-opacity:1;fill-rule:nonzero;stroke:none"
             id="path248" />
        </g>
        <g
           id="g250"
           transform="translate(141.7336,248.2656)">
          <path
             d="M 0,0 C 0.028,-0.002 0.062,-0.003 0.1,-0.003 0.139,-0.004 0.195,-0.002 0.269,0 c 0.32,0.009 0.62,0.069 0.9,0.178 0.28,0.11 0.542,0.27 0.788,0.483 C 2.263,0.933 2.498,1.255 2.661,1.627 2.823,2 2.899,2.393 2.886,2.805 2.875,3.213 2.777,3.601 2.592,3.966 2.408,4.333 2.155,4.641 1.835,4.892 1.584,5.09 1.316,5.235 1.031,5.328 0.747,5.422 0.444,5.463 0.121,5.454 0.044,5.452 -0.014,5.449 -0.052,5.447 -0.09,5.445 -0.125,5.441 -0.155,5.438 Z m -2.758,2.641 c -0.011,0.402 0.052,0.787 0.19,1.154 0.138,0.366 0.345,0.697 0.621,0.994 0.269,0.289 0.58,0.513 0.934,0.673 0.354,0.16 0.729,0.245 1.126,0.257 C 0.51,5.731 0.889,5.667 1.25,5.528 1.612,5.389 1.935,5.183 2.219,4.911 2.506,4.636 2.73,4.318 2.89,3.956 3.05,3.594 3.136,3.213 3.148,2.813 3.159,2.411 3.095,2.025 2.956,1.655 2.817,1.286 2.612,0.956 2.341,0.665 2.073,0.374 1.762,0.149 1.409,-0.01 1.056,-0.168 0.681,-0.253 0.284,-0.265 c -0.399,-0.012 -0.779,0.052 -1.139,0.189 -0.36,0.138 -0.683,0.344 -0.971,0.619 -0.292,0.28 -0.518,0.599 -0.676,0.957 -0.159,0.358 -0.245,0.738 -0.256,1.141"
             style="fill:#000000;fill-opacity:1;fill-rule:nonzero;stroke:none"
             id="path252" />
        </g>
        <g
           id="g254"
           transform="translate(145.5651,248.2235)">
          <path
             d="m 0,0 c 0.012,0.171 0.027,0.359 0.043,0.564 0.015,0.204 0.024,0.318 0.025,0.341 l 0.225,3.81 C 0.294,4.74 0.299,4.856 0.307,5.06 0.315,5.266 0.323,5.454 0.331,5.626 L 2.819,5.474 C 2.806,5.283 2.789,5.086 2.771,4.885 2.753,4.685 2.744,4.578 2.743,4.565 L 2.533,1.006 C 2.532,0.993 2.53,0.887 2.524,0.688 2.519,0.49 2.513,0.295 2.507,0.106 L 2.952,0.078 C 3.609,0.038 4.242,0.016 4.85,0.01 4.939,0.01 4.99,0.009 5.003,0.008 5.054,0.005 5.091,-0.01 5.114,-0.038 5.137,-0.065 5.146,-0.105 5.143,-0.16 5.14,-0.22 5.121,-0.259 5.089,-0.277 5.055,-0.297 4.995,-0.303 4.908,-0.298 Z"
             style="fill:#000000;fill-opacity:1;fill-rule:nonzero;stroke:none"
             id="path256" />
        </g>
        <g
           id="g258"
           transform="translate(154.8232,253.6044)">
          <path
             d="m 0,0 -0.957,0.146 0.573,1.036 1.432,-0.219 z m -1.441,-5.999 c 0.027,-0.006 0.06,-0.014 0.098,-0.021 0.037,-0.007 0.093,-0.016 0.167,-0.027 0.316,-0.049 0.622,-0.044 0.916,0.013 0.295,0.058 0.582,0.169 0.86,0.334 0.35,0.212 0.638,0.486 0.863,0.824 0.224,0.338 0.367,0.71 0.428,1.119 0.059,0.403 0.03,0.802 -0.088,1.196 -0.117,0.393 -0.311,0.742 -0.583,1.046 -0.212,0.24 -0.451,0.432 -0.715,0.574 -0.263,0.144 -0.554,0.239 -0.874,0.288 -0.076,0.011 -0.133,0.02 -0.171,0.024 -0.038,0.004 -0.073,0.008 -0.103,0.01 z m -2.252,3.095 c 0.058,0.399 0.188,0.765 0.388,1.102 0.2,0.335 0.462,0.624 0.785,0.866 0.314,0.237 0.66,0.401 1.037,0.494 0.376,0.094 0.761,0.111 1.153,0.051 0.392,-0.06 0.755,-0.191 1.086,-0.393 0.331,-0.201 0.613,-0.462 0.845,-0.781 0.235,-0.323 0.4,-0.676 0.494,-1.061 C 2.19,-3.011 2.207,-3.401 2.149,-3.797 2.09,-4.195 1.959,-4.563 1.758,-4.901 1.556,-5.24 1.296,-5.528 0.979,-5.766 0.664,-6.004 0.319,-6.169 -0.056,-6.262 -0.431,-6.354 -0.815,-6.37 -1.207,-6.311 c -0.396,0.061 -0.758,0.191 -1.089,0.391 -0.33,0.201 -0.613,0.462 -0.847,0.784 -0.238,0.328 -0.405,0.683 -0.499,1.064 -0.093,0.38 -0.111,0.77 -0.051,1.168"
             style="fill:#000000;fill-opacity:1;fill-rule:nonzero;stroke:none"
             id="path260" />
        </g>
        <g
           id="g262"
           transform="translate(160.8765,251.6485)">
          <path
             d="m 0,0 -1.316,-5.274 c 0.039,-0.015 0.079,-0.028 0.119,-0.039 0.041,-0.01 0.103,-0.026 0.185,-0.047 0.762,-0.196 1.429,-0.142 2.002,0.163 0.573,0.304 1.01,0.838 1.311,1.603 l -2.297,0.59 c -0.107,0.028 -0.173,0.054 -0.198,0.081 -0.025,0.027 -0.032,0.065 -0.019,0.116 0.012,0.047 0.032,0.076 0.06,0.087 0.027,0.01 0.093,0.002 0.198,-0.025 L 2.64,-3.412 c -0.281,-0.917 -0.749,-1.57 -1.401,-1.962 -0.652,-0.391 -1.414,-0.474 -2.285,-0.25 -0.418,0.107 -0.784,0.277 -1.1,0.509 -0.315,0.233 -0.578,0.526 -0.785,0.879 -0.202,0.344 -0.331,0.711 -0.387,1.101 -0.056,0.389 -0.036,0.778 0.061,1.166 0.097,0.387 0.262,0.74 0.497,1.056 0.235,0.316 0.525,0.578 0.869,0.784 C -1.545,0.079 -1.182,0.21 -0.8,0.262 -0.419,0.314 -0.021,0.287 0.394,0.18 0.771,0.083 1.107,-0.067 1.403,-0.27 1.698,-0.473 1.967,-0.74 2.21,-1.07 2.311,-1.207 2.385,-1.329 2.433,-1.438 2.482,-1.547 2.499,-1.629 2.485,-1.684 2.477,-1.717 2.459,-1.741 2.433,-1.759 2.406,-1.776 2.375,-1.78 2.34,-1.771 c -0.054,0.014 -0.115,0.088 -0.182,0.223 -0.045,0.092 -0.085,0.166 -0.12,0.22 -0.22,0.33 -0.474,0.601 -0.76,0.811 -0.286,0.21 -0.606,0.361 -0.961,0.452 C 0.28,-0.056 0.241,-0.046 0.199,-0.037 0.157,-0.028 0.092,-0.015 0,0"
             style="fill:#000000;fill-opacity:1;fill-rule:nonzero;stroke:none"
             id="path264" />
        </g>
        <g
           id="g266"
           transform="translate(163.3898,245.1938)">
          <path
             d="m 0,0 c 0.056,0.161 0.118,0.338 0.186,0.531 0.068,0.192 0.106,0.3 0.113,0.325 L 1.497,4.472 C 1.507,4.499 1.541,4.609 1.6,4.801 1.659,4.993 1.716,5.172 1.768,5.338 L 4.133,4.536 C 4.069,4.352 4.003,4.166 3.933,3.976 3.864,3.788 3.828,3.688 3.825,3.678 L 2.627,0.062 C 2.624,0.054 2.594,-0.046 2.537,-0.24 2.479,-0.434 2.421,-0.623 2.364,-0.806 Z"
             style="fill:#000000;fill-opacity:1;fill-rule:nonzero;stroke:none"
             id="path268" />
        </g>
        <g
           id="g270"
           transform="translate(168.871,243.2546)">
          <path
             d="m 0,0 c 0.028,-0.015 0.059,-0.03 0.095,-0.047 0.036,-0.017 0.088,-0.04 0.157,-0.069 0.423,-0.18 0.841,-0.262 1.254,-0.246 0.414,0.015 0.815,0.129 1.205,0.34 0.104,0.055 0.222,0.137 0.356,0.246 0.134,0.109 0.23,0.152 0.287,0.128 C 3.391,0.336 3.416,0.312 3.427,0.283 3.438,0.252 3.436,0.218 3.42,0.18 3.392,0.113 3.308,0.027 3.168,-0.076 3.028,-0.18 2.864,-0.275 2.675,-0.361 2.27,-0.541 1.86,-0.633 1.443,-0.638 1.026,-0.642 0.617,-0.558 0.215,-0.387 -0.182,-0.218 -0.519,0.005 -0.798,0.282 -1.076,0.56 -1.292,0.889 -1.445,1.27 -1.596,1.644 -1.67,2.027 -1.669,2.418 c 0.002,0.39 0.08,0.772 0.233,1.142 0.153,0.37 0.368,0.693 0.647,0.97 0.279,0.277 0.603,0.492 0.974,0.644 C 0.558,5.328 0.937,5.403 1.321,5.396 1.706,5.39 2.095,5.303 2.49,5.135 2.852,4.982 3.164,4.781 3.427,4.536 3.691,4.29 3.916,3.986 4.103,3.625 4.188,3.462 4.248,3.318 4.282,3.196 4.315,3.073 4.321,2.984 4.298,2.929 4.286,2.9 4.265,2.88 4.234,2.87 4.203,2.859 4.172,2.86 4.142,2.873 4.09,2.895 4.041,2.977 3.998,3.12 3.962,3.234 3.928,3.326 3.896,3.396 3.725,3.756 3.514,4.061 3.262,4.312 3.01,4.563 2.716,4.76 2.378,4.904 2.342,4.919 2.305,4.934 2.265,4.95 2.226,4.965 2.162,4.987 2.075,5.017 Z"
             style="fill:#000000;fill-opacity:1;fill-rule:nonzero;stroke:none"
             id="path272" />
        </g>
        <g
           id="g274"
           transform="translate(175.0467,241.3204)">
          <path
             d="M 0,0 C 0.004,0.463 0.002,0.907 -0.005,1.33 -0.014,1.754 -0.029,2.16 -0.052,2.551 L -2.233,1.219 Z m -0.004,-1.184 0.007,0.868 -2.504,1.367 C -2.612,0.984 -2.751,0.895 -2.918,0.782 -3.155,0.626 -3.304,0.564 -3.365,0.598 c -0.036,0.019 -0.061,0.051 -0.074,0.095 -0.013,0.044 -0.01,0.084 0.01,0.121 0.016,0.032 0.271,0.19 0.763,0.473 0.492,0.283 0.948,0.556 1.37,0.819 l 3.648,2.265 0.181,-6.94 z"
             style="fill:#000000;fill-opacity:1;fill-rule:nonzero;stroke:none"
             id="path276" />
        </g>
        <g
           id="g278"
           transform="translate(182.0047,235.9694)">
          <path
             d="m 0,0 0.109,-0.081 c 0.418,-0.309 0.769,-0.511 1.053,-0.607 0.285,-0.097 0.584,-0.126 0.899,-0.089 0.337,0.041 0.656,0.157 0.957,0.349 0.301,0.192 0.567,0.45 0.8,0.773 0.232,0.323 0.392,0.66 0.481,1.01 0.087,0.349 0.099,0.693 0.034,1.03 C 4.271,2.7 4.151,2.981 3.974,3.227 3.797,3.471 3.499,3.749 3.081,4.057 L 2.973,4.138 Z M -1.606,1.993 0.608,5.076 C 0.624,5.097 0.689,5.191 0.805,5.359 0.921,5.528 1.028,5.681 1.126,5.822 L 3.122,4.346 C 3.625,3.974 3.977,3.65 4.178,3.375 4.379,3.098 4.515,2.786 4.583,2.436 4.656,2.061 4.644,1.68 4.549,1.293 4.453,0.905 4.279,0.537 4.029,0.189 3.779,-0.16 3.487,-0.439 3.153,-0.651 2.819,-0.862 2.465,-0.99 2.09,-1.035 1.739,-1.078 1.404,-1.044 1.085,-0.932 c -0.32,0.11 -0.732,0.352 -1.234,0.724 l -1.996,1.476 c 0.101,0.137 0.213,0.287 0.335,0.451 0.122,0.164 0.191,0.255 0.204,0.274"
             style="fill:#000000;fill-opacity:1;fill-rule:nonzero;stroke:none"
             id="path280" />
        </g>
        <g
           id="g282"
           transform="translate(188.5431,230.1955)">
          <path
             d="m 0,0 -3.695,3.291 c 0.114,0.127 0.239,0.267 0.375,0.419 0.136,0.151 0.212,0.236 0.227,0.254 l 2.481,2.866 c 0.016,0.02 0.091,0.108 0.221,0.265 0.131,0.156 0.251,0.3 0.36,0.431 L 3.388,4.481 C 3.459,4.418 3.498,4.369 3.506,4.335 3.513,4.3 3.499,4.262 3.464,4.221 3.426,4.178 3.389,4.159 3.351,4.163 3.312,4.169 3.26,4.201 3.195,4.258 3.178,4.274 3.128,4.321 3.047,4.4 2.654,4.778 2.261,5.143 1.866,5.494 L 1.658,5.679 0.815,4.704 1.08,4.467 C 1.503,4.09 1.932,3.719 2.365,3.353 2.449,3.285 2.499,3.245 2.512,3.234 2.598,3.156 2.648,3.097 2.658,3.056 2.669,3.015 2.654,2.971 2.611,2.923 2.577,2.883 2.542,2.864 2.507,2.867 2.471,2.87 2.429,2.892 2.382,2.935 2.364,2.95 2.308,3.002 2.214,3.089 1.701,3.564 1.179,4.037 0.647,4.51 L -1.672,1.831 C -1.354,1.549 -1.02,1.247 -0.669,0.928 -0.582,0.847 -0.529,0.798 -0.51,0.781 -0.287,0.583 -0.06,0.395 0.171,0.221 0.215,0.189 0.24,0.17 0.245,0.165 0.28,0.134 0.299,0.1 0.303,0.062 0.306,0.025 0.293,-0.01 0.264,-0.044 0.227,-0.086 0.192,-0.107 0.159,-0.103 0.126,-0.099 0.073,-0.065 0,0"
             style="fill:#000000;fill-opacity:1;fill-rule:nonzero;stroke:none"
             id="path284" />
        </g>
        <g
           id="g286"
           transform="translate(193.47,226.6658)">
          <path
             d="M 0,0 C 0.048,-0.071 0.096,-0.138 0.143,-0.199 0.191,-0.26 0.24,-0.32 0.291,-0.379 0.794,-0.964 1.331,-1.301 1.899,-1.391 2.467,-1.481 2.995,-1.31 3.481,-0.88 3.977,-0.44 4.212,0.071 4.188,0.654 4.164,1.236 3.881,1.842 3.339,2.472 L 3.101,2.749 Z m -2.516,1.098 c 0.129,0.111 0.271,0.233 0.426,0.364 0.155,0.132 0.241,0.206 0.258,0.221 L 1,4.193 C 1.02,4.211 1.104,4.288 1.254,4.426 1.404,4.564 1.541,4.69 1.667,4.805 L 3.53,2.642 C 4.121,1.954 4.427,1.286 4.447,0.634 4.467,-0.017 4.202,-0.587 3.65,-1.076 3.11,-1.555 2.523,-1.746 1.89,-1.65 c -0.633,0.096 -1.227,0.466 -1.782,1.11 -0.05,0.059 -0.1,0.119 -0.148,0.181 -0.049,0.063 -0.098,0.127 -0.148,0.193 l -0.703,-0.623 z"
             style="fill:#000000;fill-opacity:1;fill-rule:nonzero;stroke:none"
             id="path288" />
        </g>
        <g
           id="g290"
           transform="translate(197.1531,221.7577)">
          <path
             d="m 0,0 c 0.202,0.416 0.389,0.816 0.562,1.202 0.174,0.385 0.333,0.759 0.479,1.12 L -1.494,2.079 Z m -0.508,-1.066 0.376,0.78 -1.675,2.331 c -0.127,-0.011 -0.291,-0.03 -0.49,-0.059 -0.28,-0.036 -0.441,-0.027 -0.482,0.03 -0.024,0.033 -0.033,0.073 -0.025,0.118 0.006,0.046 0.027,0.08 0.059,0.105 0.029,0.021 0.326,0.052 0.891,0.091 0.564,0.04 1.092,0.085 1.584,0.137 L 3.985,2.908 1.189,-3.428 Z"
             style="fill:#000000;fill-opacity:1;fill-rule:nonzero;stroke:none"
             id="path292" />
        </g>
        <g
           id="g294"
           transform="translate(200.7491,219.4196)">
          <path
             d="m 0,0 -1.084,-0.652 c -0.216,-0.129 -0.437,-0.27 -0.663,-0.423 -0.227,-0.153 -0.348,-0.234 -0.363,-0.243 -0.074,-0.045 -0.133,-0.065 -0.173,-0.059 -0.041,0.006 -0.077,0.037 -0.11,0.093 -0.035,0.06 -0.048,0.11 -0.039,0.15 0.009,0.041 0.044,0.079 0.103,0.115 0.128,0.077 0.372,0.21 0.734,0.402 0.361,0.192 0.656,0.356 0.882,0.492 l 3.229,1.941 c 10e-4,-1.021 0.017,-2.027 0.049,-3.02 0.032,-0.992 0.082,-1.971 0.148,-2.937 l 1.081,0.65 c 0.216,0.129 0.435,0.271 0.659,0.423 0.223,0.152 0.344,0.234 0.362,0.244 0.077,0.046 0.136,0.067 0.178,0.062 0.041,-0.005 0.079,-0.036 0.111,-0.091 0.037,-0.063 0.05,-0.115 0.04,-0.156 C 5.134,-3.05 5.1,-3.087 5.042,-3.122 4.914,-3.198 4.669,-3.334 4.305,-3.529 3.941,-3.723 3.646,-3.888 3.421,-4.023 L 0.193,-5.964 C 0.192,-4.907 0.176,-3.883 0.145,-2.889 0.114,-1.896 0.066,-0.933 0,0"
             style="fill:#000000;fill-opacity:1;fill-rule:nonzero;stroke:none"
             id="path296" />
        </g>
        <g
           id="g298"
           transform="translate(203.5294,210.8428)">
          <path
             d="M 0,0 C 0.276,0.37 0.534,0.727 0.777,1.072 1.018,1.417 1.245,1.753 1.455,2.08 l -2.534,0.248 z m -0.698,-0.949 0.515,0.694 -1.209,2.61 C -1.52,2.368 -1.684,2.381 -1.885,2.392 -2.167,2.409 -2.323,2.449 -2.353,2.513 -2.37,2.55 -2.371,2.591 -2.356,2.634 c 0.015,0.043 0.041,0.074 0.079,0.091 0.032,0.016 0.329,-0.011 0.89,-0.081 0.562,-0.07 1.089,-0.126 1.582,-0.169 L 4.456,2.09 0.528,-3.594 Z"
             style="fill:#000000;fill-opacity:1;fill-rule:nonzero;stroke:none"
             id="path300" />
        </g>
        <g
           id="g302"
           transform="translate(206.9285,207.5743)">
          <path
             d="m 0,0 c -0.954,-0.048 -1.833,-0.119 -2.637,-0.214 -0.06,-0.006 -0.1,-0.011 -0.119,-0.012 -0.073,-0.007 -0.128,-0.002 -0.162,0.013 -0.035,0.015 -0.06,0.045 -0.075,0.089 -0.032,0.093 -0.044,0.16 -0.038,0.199 0.007,0.04 0.034,0.068 0.08,0.084 0.014,0.005 0.049,0.009 0.106,0.012 0.034,10e-4 0.062,0.003 0.083,0.005 L 3.021,0.365 C 2.583,-0.226 2.177,-0.786 1.802,-1.319 1.428,-1.852 1.08,-2.361 0.761,-2.846 1.357,-3.023 1.964,-3.197 2.581,-3.37 3.198,-3.543 3.827,-3.714 4.466,-3.883 3.627,-4.499 2.799,-5.101 1.981,-5.691 1.163,-6.281 0.352,-6.86 -0.452,-7.426 l -0.816,2.398 c 0.388,0.262 0.964,0.655 1.729,1.178 0.36,0.247 0.63,0.432 0.81,0.556 -0.47,0.14 -0.952,0.279 -1.444,0.416 -0.492,0.137 -0.996,0.27 -1.511,0.401 z"
             style="fill:#000000;fill-opacity:1;fill-rule:nonzero;stroke:none"
             id="path304" />
        </g>
        <g
           id="g306"
           transform="translate(213.158,198.3063)">
          <path
             d="m 0,0 -0.216,0.958 1.16,-0.163 0.323,-1.432 z m -5.062,-0.879 c 0.347,0.302 0.675,0.595 0.983,0.88 0.309,0.285 0.601,0.564 0.875,0.839 l -2.424,0.789 z m -0.881,-0.776 0.649,0.566 -0.635,2.811 c -0.122,0.041 -0.28,0.089 -0.473,0.142 -0.273,0.078 -0.417,0.152 -0.432,0.22 -0.01,0.04 -0.002,0.08 0.022,0.119 0.024,0.039 0.056,0.063 0.096,0.072 0.035,0.009 0.319,-0.082 0.853,-0.271 0.534,-0.189 1.037,-0.359 1.51,-0.508 L -0.27,0.201 -5.3,-4.505 Z"
             style="fill:#000000;fill-opacity:1;fill-rule:nonzero;stroke:none"
             id="path308" />
        </g>
        <g
           id="g310"
           transform="translate(163.3208,171.9983)">
          <path
             d="m 0,0 c 0,1.663 0.957,2.946 2.248,2.984 l 0.854,0.003 h 26.253 c -0.306,-0.808 -0.683,-1.912 -0.683,-3.128 0,-1.197 0.372,-2.284 0.67,-3.09 H 3.102 L 2.057,-3.123 C 0.767,-3.085 0,-1.663 0,0"
             style="fill:#e6e6e6;fill-opacity:1;fill-rule:nonzero;stroke:none"
             id="path312" />
        </g>
        <g
           id="g314"
           transform="translate(168.6748,169.2883)">
          <path
             d="m 0,0 -1.15,0.12 c -1.43,0.061 -2.242,1.355 -2.2,2.848 0.032,1.11 0.644,2.014 1.54,2.41 h -0.493 c -1.429,-0.033 -2.49,-1.186 -2.49,-2.679 0,-1.493 0.85,-2.769 2.279,-2.804 l 1.156,-0.097 h 11.594 z"
             style="fill:#c5c6c8;fill-opacity:1;fill-rule:nonzero;stroke:none"
             id="path316" />
        </g>
        <g
           id="g318"
           transform="translate(193.2224,174.9478)">
          <path
             d="m 0,0 v 0.616 h -83.787 -0.02 c -1.899,0 -3.44,-1.621 -3.44,-3.622 0,-2 1.541,-3.669 3.44,-3.669 l 0.02,0.05 8.046,-0.005 c 1.297,3.162 5.13,1.815 5.13,1.815 0.925,-0.588 1.707,-1.2 2.387,-1.82 l 46.763,-0.028 c 0.597,0.224 1.263,0.259 1.999,-10e-4 L 0,-6.675 v 0.666 h -0.62 c 0.02,-0.055 -27.224,-0.064 -27.224,-0.064 -1.291,0.038 -2.058,1.46 -2.058,3.124 0,0.648 0.149,1.235 0.404,1.717 0.122,0.293 0.301,0.531 0.54,0.716 0.362,0.334 0.808,0.536 1.304,0.55 L -26.8,0.037 H -0.546 C -0.55,0.026 -0.555,0.012 -0.559,0 Z"
             style="fill:#000000;fill-opacity:1;fill-rule:nonzero;stroke:none"
             id="path320" />
        </g>
        <g
           id="g322"
           transform="translate(162.4557,171.9415)">
          <path
             d="M 0,0 C 0,1.856 0.775,3.381 1.775,3.587 1.699,3.603 1.624,3.614 1.545,3.614 0.44,3.614 -0.457,1.993 -0.457,0 c 0,-1.997 0.897,-3.614 2.002,-3.614 0.079,0 0.154,0.01 0.23,0.024 C 0.775,-3.385 0,-1.857 0,0"
             style="fill:#ffffff;fill-opacity:1;fill-rule:nonzero;stroke:none"
             id="path324" />
        </g>
        <g
           id="g326"
           transform="translate(161.1973,171.9415)">
          <path
             d="M 0,0 C 0,1.856 0.776,3.381 1.773,3.587 1.699,3.603 1.622,3.614 1.545,3.614 0.441,3.614 -0.457,1.993 -0.457,0 c 0,-1.997 0.898,-3.614 2.002,-3.614 0.077,0 0.154,0.01 0.228,0.024 C 0.776,-3.385 0,-1.857 0,0"
             style="fill:#ffffff;fill-opacity:1;fill-rule:nonzero;stroke:none"
             id="path328" />
        </g>
        <g
           id="g330"
           transform="translate(110.2902,171.9415)">
          <path
             d="M 0,0 C 0,1.856 0.776,3.381 1.773,3.587 1.696,3.603 1.619,3.614 1.544,3.614 0.438,3.614 -0.459,1.993 -0.459,0 c 0,-1.997 0.897,-3.614 2.003,-3.614 0.075,0 0.152,0.01 0.229,0.024 C 0.776,-3.385 0,-1.857 0,0"
             style="fill:#ffffff;fill-opacity:1;fill-rule:nonzero;stroke:none"
             id="path332" />
        </g>
        <g
           id="g334"
           transform="translate(109.0302,171.9415)">
          <path
             d="M 0,0 C 0,1.856 0.777,3.381 1.775,3.587 1.698,3.603 1.621,3.614 1.544,3.614 0.44,3.614 -0.457,1.993 -0.457,0 c 0,-1.997 0.897,-3.614 2.001,-3.614 0.077,0 0.154,0.01 0.231,0.024 C 0.777,-3.385 0,-1.857 0,0"
             style="fill:#ffffff;fill-opacity:1;fill-rule:nonzero;stroke:none"
             id="path336" />
        </g>
        <g
           id="g338"
           transform="translate(193.2224,182.184)">
          <path
             d="m 0,0 v 0.667 h -83.787 -0.02 c -1.899,0 -3.44,-1.672 -3.44,-3.673 0,-2 1.541,-3.624 3.44,-3.624 l 0.02,0.005 h 56.331 c 0.17,-0.02 0.327,-0.05 0.519,-0.05 H 0 v 0.666 h -0.62 c 0.02,-0.055 -27.224,-0.064 -27.224,-0.064 -1.291,0.038 -2.058,1.46 -2.058,3.124 0,0.648 0.149,1.235 0.404,1.717 0.122,0.293 0.301,0.531 0.54,0.716 0.362,0.334 0.808,0.536 1.304,0.55 L -26.8,0.037 H -0.546 C -0.55,0.026 -0.555,0.012 -0.559,0 Z"
             style="fill:#a6a6a6;fill-opacity:1;fill-rule:nonzero;stroke:none"
             id="path340" />
        </g>
        <g
           id="g342"
           transform="translate(162.4557,179.1777)">
          <path
             d="M 0,0 C 0,1.856 0.775,3.381 1.775,3.587 1.699,3.603 1.624,3.614 1.545,3.614 0.44,3.614 -0.457,1.993 -0.457,0 c 0,-1.997 0.897,-3.614 2.002,-3.614 0.079,0 0.154,0.01 0.23,0.024 C 0.775,-3.385 0,-1.857 0,0"
             style="fill:#000000;fill-opacity:1;fill-rule:nonzero;stroke:none"
             id="path344" />
        </g>
        <g
           id="g346"
           transform="translate(161.1973,179.1777)">
          <path
             d="M 0,0 C 0,1.856 0.776,3.381 1.773,3.587 1.699,3.603 1.622,3.614 1.545,3.614 0.441,3.614 -0.457,1.993 -0.457,0 c 0,-1.997 0.898,-3.614 2.002,-3.614 0.077,0 0.154,0.01 0.228,0.024 C 0.776,-3.385 0,-1.857 0,0"
             style="fill:#000000;fill-opacity:1;fill-rule:nonzero;stroke:none"
             id="path348" />
        </g>
        <g
           id="g350"
           transform="translate(110.2902,179.1777)">
          <path
             d="M 0,0 C 0,1.856 0.776,3.381 1.773,3.587 1.696,3.603 1.619,3.614 1.544,3.614 0.438,3.614 -0.459,1.993 -0.459,0 c 0,-1.997 0.897,-3.614 2.003,-3.614 0.075,0 0.152,0.01 0.229,0.024 C 0.776,-3.385 0,-1.857 0,0"
             style="fill:#000000;fill-opacity:1;fill-rule:nonzero;stroke:none"
             id="path352" />
        </g>
        <g
           id="g354"
           transform="translate(109.0302,179.1777)">
          <path
             d="M 0,0 C 0,1.856 0.777,3.381 1.775,3.587 1.698,3.603 1.621,3.614 1.544,3.614 0.44,3.614 -0.457,1.993 -0.457,0 c 0,-1.997 0.897,-3.614 2.001,-3.614 0.077,0 0.154,0.01 0.231,0.024 C 0.777,-3.385 0,-1.857 0,0"
             style="fill:#000000;fill-opacity:1;fill-rule:nonzero;stroke:none"
             id="path356" />
        </g>
        <g
           id="g358"
           transform="translate(163.3208,179.2345)">
          <path
             d="m 0,0 c 0,1.663 0.957,2.946 2.248,2.984 l 0.854,0.003 h 26.253 c -0.306,-0.808 -0.683,-1.912 -0.683,-3.128 0,-1.197 0.372,-2.284 0.67,-3.09 H 3.102 L 2.057,-3.123 C 0.767,-3.085 0,-1.663 0,0"
             style="fill:#e6e6e6;fill-opacity:1;fill-rule:nonzero;stroke:none"
             id="path360" />
        </g>
        <g
           id="g362"
           transform="translate(168.6748,176.5245)">
          <path
             d="m 0,0 -1.15,0.12 c -1.43,0.061 -2.242,1.355 -2.2,2.848 0.032,1.11 0.644,2.014 1.54,2.41 h -0.493 c -1.429,-0.033 -2.49,-1.186 -2.49,-2.679 0,-1.493 0.85,-2.769 2.279,-2.804 l 1.156,-0.097 h 11.594 z"
             style="fill:#c5c5c5;fill-opacity:1;fill-rule:nonzero;stroke:none"
             id="path364" />
        </g>
        <g
           id="g366"
           transform="translate(142.2729,225.1579)">
          <path
             d="M 0,0 V -42.307 H 22.042 V 3.091 Z"
             style="fill:#ffffff;fill-opacity:1;fill-rule:nonzero;stroke:none"
             id="path368" />
        </g>
        <g
           id="g370"
           transform="translate(164.1901,182.9757)">
          <path
             d="M 0,0 H -21.792 V 42.073 L 0,45.13 Z M -22.042,42.291 V 42.182 -0.25 H 0.25 v 45.667 z"
             style="fill:#000000;fill-opacity:1;fill-rule:nonzero;stroke:none"
             id="path372" />
        </g>
        <g
           id="g374"
           transform="translate(164.3151,228.2493)">
          <path
             d="M 0,0 10.033,-2.721 V -45.396 H 0 Z"
             style="fill:#ffffff;fill-opacity:1;fill-rule:nonzero;stroke:none"
             id="path376" />
        </g>
        <g
           id="g378"
           transform="translate(174.2234,182.9782)">
          <path
             d="M 0,0 H -9.783 V 45.108 L 0,42.455 Z M -10.033,45.434 V 45.271 -0.25 H 0.25 v 42.896 z"
             style="fill:#000000;fill-opacity:1;fill-rule:nonzero;stroke:none"
             id="path380" />
        </g>
        <g
           id="g382"
           transform="translate(172.9682,225.1145)">
          <path
             d="M 0,0 4.838,0.633 V -42.261 H 0 Z"
             style="fill:#ffd000;fill-opacity:1;fill-rule:nonzero;stroke:none"
             id="path384" />
        </g>
        <g
           id="g386"
           transform="translate(177.8369,225.721)">
          <path
             d="M 0,0 7.8,-4.734 V -42.898 L 0,-42.889 Z"
             style="fill:#ffffff;fill-opacity:1;fill-rule:nonzero;stroke:none"
             id="path388" />
        </g>
        <g
           id="g390"
           transform="translate(172.9682,225.1145)">
          <path
             d="M 0,0 0.016,-0.124 4.713,0.491 V -42.136 H 0.125 V 0 H 0 L 0.016,-0.124 0,0 H -0.125 V -42.386 H 4.963 V 0.776 L -0.125,0.11 V 0 Z"
             style="fill:#000000;fill-opacity:1;fill-rule:nonzero;stroke:none"
             id="path392" />
        </g>
        <g
           id="g394"
           transform="translate(177.8369,225.721)">
          <path
             d="m 0,0 -0.065,-0.107 7.74,-4.697 v -37.968 l -7.55,0.007 V 0 H 0 L -0.065,-0.107 0,0 h -0.125 v -43.014 l 8.05,-0.009 v 38.359 l -8.05,4.886 V 0 Z"
             style="fill:#000000;fill-opacity:1;fill-rule:nonzero;stroke:none"
             id="path396" />
        </g>
        <g
           id="g398"
           transform="translate(170.8906,208.6404)">
          <path
             d="M 0,0 2.157,-0.662 2.125,-25.754 0,-25.787 Z"
             style="fill:#000000;fill-opacity:1;fill-rule:nonzero;stroke:none"
             id="path400" />
        </g>
        <g
           id="g402"
           transform="translate(179.7627,221.3434)">
          <path
             d="M 0,0 -0.003,-38.52 H 1.366 V -0.821 Z"
             style="fill:#000000;fill-opacity:1;fill-rule:nonzero;stroke:none"
             id="path404" />
        </g>
        <g
           id="g406"
           transform="translate(182.9747,219.4086)">
          <path
             d="M 0,0 0.085,-36.585 H 1.372 L 1.358,-0.81 Z"
             style="fill:#000000;fill-opacity:1;fill-rule:nonzero;stroke:none"
             id="path408" />
        </g>
        <g
           id="g410"
           transform="translate(145.3559,222.375)">
          <path
             d="M 0,0 3.73,0.531 V -4.492 L 0,-4.53 Z"
             style="fill:#000000;fill-opacity:1;fill-rule:nonzero;stroke:none"
             id="path412" />
        </g>
        <g
           id="g414"
           transform="translate(92.5784,196.9877)">
          <path
             d="M 0,0 -0.079,-14.137 H 56.815 V 5.022 Z"
             style="fill:#ffd000;fill-opacity:1;fill-rule:nonzero;stroke:none"
             id="path416" />
        </g>
        <g
           id="g418"
           transform="translate(157.1066,200.9261)">
          <path
             d="m 0,0 -0.016,-15.516 3.368,-0.005 V 1.068 Z"
             style="fill:#ffd000;fill-opacity:1;fill-rule:nonzero;stroke:none"
             id="path420" />
        </g>
        <g
           id="g422"
           transform="translate(151.5812,200.9558)">
          <path
             d="M 0,0 V -15.537 L 3.328,-15.551 3.31,1.019 Z"
             style="fill:#ffd000;fill-opacity:1;fill-rule:nonzero;stroke:none"
             id="path424" />
        </g>
        <g
           id="g426"
           transform="translate(154.9093,201.9905)">
          <path
             d="m 0,0 -0.002,-16.572 -3.318,0.005 -0.008,15.521 -2.187,1.063 v -16.603 -2.554 0.042 L 7.746,-19.14 V -1.046 L 5.561,0.017 5.539,-16.572 H 2.202 L 2.21,-1.035 Z"
             style="fill:#000000;fill-opacity:1;fill-rule:nonzero;stroke:none"
             id="path428" />
        </g>
        <g
           id="g430"
           transform="translate(94.5202,193.7632)">
          <path
             d="m 0,0 -0.066,-2.202 47.904,2.6 v 2.668 z"
             style="fill:#000000;fill-opacity:1;fill-rule:nonzero;stroke:none"
             id="path432" />
        </g>
        <g
           id="g434"
           transform="translate(92.625,182.9757)">
          <path
             d="m 0,0 0.078,13.898 56.667,5.009 2.155,-1.047 0.11,0.001 0.008,0.01 3.257,1.013 2.167,-1.014 0.09,-0.006 3.303,1.036 2.071,-1.007 V 0 Z m 70.085,18.084 -2.186,1.063 -0.092,0.006 -3.303,-1.036 -2.167,1.014 -0.09,0.006 -3.294,-1.025 -2.129,1.035 -0.048,-0.003 -0.019,0.015 -56.815,-5.022 -0.114,-0.124 -0.079,-14.137 0.037,-0.089 0.088,-0.037 h 70.157 l 0.088,0.037 0.037,0.088 v 18.097 z"
             style="fill:#000000;fill-opacity:1;fill-rule:nonzero;stroke:none"
             id="path436" />
        </g>
        <g
           id="g438"
           transform="translate(123.9941,164.9626)">
          <path
             d="m 0,0 c -0.023,0.181 -0.314,0.927 -0.644,1.671 -0.33,0.751 -0.707,1.538 -0.909,1.883 -0.271,0.453 -0.442,0.51 -0.584,0.513 -0.078,0 -0.17,-0.025 -0.274,-0.061 C -2.493,3.98 -3.2,3.683 -3.863,3.401 -4.53,3.117 -5.17,2.843 -5.171,2.842 L -5.24,3.003 -5.172,2.842 C -5.292,2.782 -5.285,2.75 -5.294,2.684 l 0.032,-0.14 c 0.042,-0.096 0.497,-0.985 0.951,-1.867 0.457,-0.886 0.917,-1.776 0.99,-1.924 0.085,-0.167 0.173,-0.218 0.207,-0.234 1.302,0.004 2.728,0.93 2.87,1.044 0.147,0.113 0.25,0.219 0.249,0.375 z"
             style="fill:#ffffff;fill-opacity:1;fill-rule:nonzero;stroke:none"
             id="path440" />
        </g>
        <g
           id="g442"
           transform="translate(174.1139,165.7867)">
          <path
             d="m 0,0 c -0.001,-0.001 -0.269,-0.391 -0.579,-0.848 -0.31,-0.456 -0.662,-0.981 -0.822,-1.241 l -0.017,-0.023 c -0.005,-0.006 -0.103,-0.119 -0.258,-0.236 -0.156,-0.115 -0.369,-0.244 -0.627,-0.246 -0.131,-0.001 -0.273,0.039 -0.397,0.129 -0.336,0.235 -0.7,0.564 -0.694,1.184 0,0.26 0.058,0.565 0.187,0.939 0.185,0.521 0.73,1.428 1.131,1.792 l -10e-4,0.001 c 0.015,0.009 0.223,0.298 0.597,0.31 0.134,0.001 0.28,-0.052 0.409,-0.161 l 10e-4,0.002 c 0.001,0 0.186,-0.128 0.423,-0.283 C -0.41,1.165 -0.12,0.984 0.075,0.886 L 0.212,0.79 0.294,0.577 C 0.286,0.401 0.193,0.253 0,0 Z m -50.054,-6.137 c -1.73,-0.459 -1.635,-0.335 -1.954,-0.263 l 3.78,1.219 c 0,0 0,-0.471 -1.826,-0.956 m 0.914,1.634 c 0,0 -2.106,-0.893 -2.965,-0.986 0,0 1.968,1.276 2.965,0.986 m -3.348,-0.042 c 0,0 1.062,1.026 2.046,1.22 0,0 0.402,0.139 1.025,0 0,0 -2.331,-0.986 -3.071,-1.22 m -0.762,1.889 h -0.008 v 0 l -0.042,0.004 c -0.034,0.005 -0.286,0.083 -0.454,0.424 -0.069,0.141 -0.532,1.036 -0.988,1.921 -0.457,0.889 -0.902,1.756 -0.96,1.887 -0.019,0.044 -0.061,0.146 -0.062,0.28 -0.008,0.159 0.093,0.385 0.335,0.479 V 2.34 c 0,0 0.642,0.275 1.31,0.559 0.672,0.285 1.352,0.573 1.477,0.615 0.11,0.037 0.237,0.078 0.386,0.079 0.299,0.003 0.603,-0.191 0.885,-0.687 0.218,-0.373 0.593,-1.158 0.927,-1.918 0.335,-0.767 0.623,-1.47 0.67,-1.76 l 0.009,-0.114 c -10e-4,-0.334 -0.228,-0.534 -0.386,-0.654 -0.198,-0.145 -1.634,-1.105 -3.099,-1.116 z M 0.083,1.616 c -1.397,0.841 -2.546,0.513 -3.466,-0.208 -0.92,-0.72 -2.76,-2.156 -3.932,-4.518 0,0 -1.375,0.449 -5.499,-4.559 0,0 -3.171,-0.977 -7.042,-4.392 0,0 -3.75,-1.643 -5.479,-2.721 0,0 -1.889,-0.848 -2.621,-2.267 0,0 -3.672,-0.093 -4.725,-0.021 -0.963,0.066 -4.773,0.336 -7.145,1.446 -0.223,0.104 -0.433,0.216 -0.626,0.335 0,0 0.144,-0.211 0.371,-0.534 0.589,-0.834 1.738,-2.414 2.405,-2.999 0,0 0.152,-0.328 -0.291,-0.299 -0.444,0.029 -4.06,4.912 -4.473,6.019 -0.413,1.106 -2.37,7.229 -3.177,7.513 0,0 0.221,5.321 -5.96,9.384 0,0 -3.782,1.387 -4.843,-2.042 0,0 0.133,-0.831 1.293,-3.057 0,0 2.219,-6.043 2.939,-7.697 0.721,-1.653 1.145,-3.93 1.366,-5.505 0.22,-1.575 1.457,-10.758 1.777,-13.051 0,0 0.322,-5.107 1.277,-6.517 l -2.649,-5.977 c 5.25,-1.829 10.823,-2.964 16.61,-3.306 0.05,0.14 0.453,1.261 1.164,2.826 1.066,2.347 2.815,5.662 5.063,8.04 0,0 8.717,6.509 10.275,8.45 0,0 2.708,3.142 3.768,5.493 0,0 -4.909,-4.096 -5.998,-6.124 0,0 -0.41,-0.206 -0.348,0.227 0,0 2.334,3.398 6.191,6.332 0,0 0.234,0.361 1.088,0.774 0,0 3.675,2.427 9.134,11.747 0,0 1.297,0.72 2.563,3.487 0,0 0.686,1.08 1.347,1.995 0,0 0.897,0.97 -0.357,1.726"
             style="fill:#ffffff;fill-opacity:1;fill-rule:nonzero;stroke:none"
             id="path444" />
        </g>
        <g
           id="g446"
           transform="translate(172.8452,167.101)">
          <path
             d="M 0,0 -0.015,0.012 -0.211,0.096 C -0.34,0.104 -0.505,-0.043 -0.532,-0.08 l -0.005,-0.005 -0.022,-0.023 c -0.307,-0.249 -0.902,-1.219 -1.049,-1.663 -0.12,-0.349 -0.168,-0.617 -0.167,-0.824 0.006,-0.478 0.223,-0.658 0.548,-0.9 l 0.193,-0.063 c 0.194,-0.009 0.461,0.195 0.567,0.305 l 0.047,0.049 c 0.343,0.554 1.399,2.087 1.4,2.088 l 0.007,0.009 c 0.094,0.119 0.154,0.209 0.188,0.273 l 0.032,0.081 -0.02,0.012 C 0.749,-0.519 0.004,-0.002 0,0"
             style="fill:#ffffff;fill-opacity:1;fill-rule:nonzero;stroke:none"
             id="path448" />
        </g>
        <g
           id="g450"
           transform="translate(157.7159,162.2528)">
          <path
             d="m 0,0 2.275,-4.118 c 0,0 0.311,0.163 1.152,0.395 0,0 2.099,2.508 3.087,3.276 0,0 -2.606,4.295 -5.002,6.467 h -4.72 c 0,0 -0.07,-2.022 2.683,-5.136 0,0 0.274,-0.43 0.525,-0.884"
             style="fill:#ffffff;fill-opacity:1;fill-rule:nonzero;stroke:none"
             id="path452" />
        </g>
        <g
           id="g454"
           transform="translate(154.6268,161.3199)">
          <path
             d="m 0,0 2.641,-4.77 c 0,0 1.75,1.136 2.342,1.406 l -2.741,4.92 c 0,0 -2.691,2.521 -2.783,5.397 h -1.796 c 0,0 -1.569,-1.801 1.245,-5.624 0,0 0.716,-0.979 1.092,-1.329"
             style="fill:#ffffff;fill-opacity:1;fill-rule:nonzero;stroke:none"
             id="path456" />
        </g>
        <g
           id="g458"
           transform="translate(153.9613,156.8114)">
          <path
             d="m 0,0 1.044,-1.877 c 0,0 1.354,0.983 1.916,1.375 L 0.249,4.342 c 0,0 -1.519,1.492 -2.171,3.178 0,0 -2.287,-1.814 0.559,-5.805 0,0 0.931,-1.331 1.363,-1.715"
             style="fill:#ffffff;fill-opacity:1;fill-rule:nonzero;stroke:none"
             id="path460" />
        </g>
        <g
           id="g462"
           transform="translate(144,320.0515)">
          <path
             d="M 0,0 97.609,-140.052 0,-280.103 -97.609,-140.052 Z M 0,0.874 -98.218,-140.052 0,-280.977 l 0.205,0.294 98.013,140.631 z"
             style="fill:#000000;fill-opacity:1;fill-rule:nonzero;stroke:none"
             id="path464" />
        </g>
      </g>
    </g>
  </g>
</svg>
