<?xml version="1.0" encoding="UTF-8" standalone="no"?>
<!-- Created with Inkscape (http://www.inkscape.org/) -->

<svg
   version="1.1"
   id="svg2"
   width="408"
   height="408"
   viewBox="0 0 408 408"
   sodipodi:docname="4-logo-utp-rgb-oficial.ai"
   xmlns:inkscape="http://www.inkscape.org/namespaces/inkscape"
   xmlns:sodipodi="http://sodipodi.sourceforge.net/DTD/sodipodi-0.dtd"
   xmlns="http://www.w3.org/2000/svg"
   xmlns:svg="http://www.w3.org/2000/svg">
  <defs
     id="defs6">
    <clipPath
       clipPathUnits="userSpaceOnUse"
       id="clipPath16">
      <path
         d="M 0,306 H 306 V 0 H 0 Z"
         id="path14" />
    </clipPath>
  </defs>
  <sodipodi:namedview
     id="namedview4"
     pagecolor="#ffffff"
     bordercolor="#000000"
     borderopacity="0.25"
     inkscape:showpageshadow="2"
     inkscape:pageopacity="0.0"
     inkscape:pagecheckerboard="0"
     inkscape:deskcolor="#d1d1d1" />
  <g
     id="g8"
     inkscape:groupmode="layer"
     inkscape:label="4-logo-utp-rgb-oficial"
     transform="matrix(1.3333333,0,0,-1.3333333,0,408)">
    <g
       id="g10">
      <g
         id="g12"
         clip-path="url(#clipPath16)">
        <g
           id="g18"
           transform="translate(297,152.9989)">
          <path
             d="M 0,0 C 0,-79.529 -64.469,-144 -144.002,-144 -223.529,-144 -288,-79.529 -288,0 c 0,79.531 64.471,144.002 143.998,144.002 C -64.469,144.002 0,79.531 0,0"
             style="fill:#ffffff;fill-opacity:1;fill-rule:nonzero;stroke:none"
             id="path20" />
        </g>
        <g
           id="g22"
           transform="translate(117.907,227.3818)">
          <path
             d="m 0,0 c 0,0 14.652,5.533 22.599,-4.033 15.937,11.111 26.133,0.63 26.133,0.63 L 63.7,20 c 0,0 -10.519,10.477 -23.253,1.554 -10.512,8.923 -21.012,3.083 -21.012,3.083 z"
             style="fill:#ffffff;fill-opacity:1;fill-rule:evenodd;stroke:none"
             id="path24" />
        </g>
        <g
           id="g26"
           transform="translate(118.3222,227.4818)">
          <path
             d="m 0,0 c 0,0 0.404,0.204 0.573,0.257 1.411,0.447 4.756,1.215 8.589,1.215 4.41,0 9.481,-1.18 13.122,-5.563 l 0.1,-0.119 0.119,0.088 c 5.494,3.83 10.289,5.072 14.214,5.072 3.699,0 6.625,-1.104 8.632,-2.215 1,-0.554 1.769,-1.107 2.284,-1.523 0.257,-0.207 0.465,-0.38 0.592,-0.503 0.131,-0.119 0.192,-0.185 0.192,-0.185 l 0.146,-0.146 15.145,23.688 -0.085,0.088 c -0.011,0.012 -5.213,5.194 -12.776,5.198 -3.214,0.004 -6.863,-0.942 -10.688,-3.625 l 0.092,-0.131 0.107,0.123 c -4.579,3.891 -9.173,4.998 -12.895,4.994 -4.883,0 -8.285,-1.891 -8.293,-1.899 L 19.139,24.799 0.015,0.361 0,0 l 0.592,0.542 0.089,0.196 18.697,23.838 -0.131,0.1 0.081,-0.139 c 0,0 0.196,0.112 0.592,0.285 1.157,0.526 3.944,1.572 7.543,1.572 3.66,0 8.159,-1.084 12.688,-4.917 l 0.088,-0.085 0.108,0.073 c 3.776,2.645 7.344,3.572 10.5,3.572 3.71,0 6.851,-1.276 9.058,-2.557 1.108,-0.638 1.976,-1.276 2.58,-1.757 0.289,-0.234 0.523,-0.434 0.673,-0.577 0.158,-0.138 0.234,-0.211 0.234,-0.211 l 0.112,0.108 -0.139,0.084 -14.967,-23.41 0.134,-0.081 0.12,0.107 C 48.644,-3.241 44.253,1.272 36.717,1.272 32.723,1.272 27.859,0 22.311,-3.86 l 0.1,-0.135 0.131,0.104 C 18.812,0.596 13.634,1.792 9.162,1.792 5.24,1.792 2.065,1.03 0.711,0.623 0.284,0.492 0,0 0,0"
             style="fill:#1d1d1b;fill-opacity:1;fill-rule:nonzero;stroke:none"
             id="path28" />
        </g>
        <g
           id="g30"
           transform="translate(166.3895,222.0761)">
          <path
             d="M 0,0 15.721,24.053 14.072,23.518 0.331,2.015 c 0,0 -10.197,10.48 -26.133,-0.627 -3.157,3.795 -7.367,5.206 -11.304,5.54 l -8.047,-2.614 c 1.603,0.33 3.618,0.623 5.813,0.623 4.429,0 9.543,-1.185 13.238,-5.575 5.498,3.81 10.323,5.059 14.279,5.059 C -4.864,4.421 -0.588,0.565 0,0"
             style="fill:#ffffff;fill-opacity:1;fill-rule:nonzero;stroke:none"
             id="path32" />
        </g>
        <g
           id="g34"
           transform="translate(166.3895,222.0761)">
          <path
             d="M 0,0 0.131,-0.092 16.11,24.349 13.964,23.653 0.177,2.099 0.331,2.015 0.446,2.122 c -0.019,0.019 -4.41,4.525 -11.942,4.529 -3.995,0 -8.862,-1.268 -14.406,-5.129 l 0.1,-0.134 0.127,0.1 c -3.196,3.837 -7.444,5.267 -11.408,5.594 l -0.031,0.004 -10.865,-3.522 -0.011,-0.323 2.856,0.823 c 1.604,0.327 3.618,0.711 5.794,0.711 V 4.837 4.775 4.837 4.775 c 4.403,0 9.462,-1.176 13.122,-5.521 l 0.089,-0.111 0.127,0.092 c 5.467,3.787 10.254,5.025 14.179,5.025 v 0.123 l -0.011,-0.119 0.011,-0.004 v 0.123 l -0.011,-0.119 0.011,-0.004 c 6.902,0 11.131,-3.826 11.708,-4.375 L 0.023,-0.254 0.131,-0.092 0,0 0.111,0.111 C -0.504,0.696 -4.795,4.579 -11.823,4.579 V 4.421 l 0.02,0.158 h -0.02 c -3.994,0.004 -8.846,-1.265 -14.368,-5.087 l 0.089,-0.13 0.131,0.1 c -3.737,4.44 -8.909,5.632 -13.369,5.632 h -0.011 l 0.011,-0.157 v 0.157 c -2.203,0 -4.24,-0.292 -5.852,-0.626 l 0.039,-0.154 0.05,-0.154 8.159,2.649 -0.162,0.119 -0.008,-0.161 c 3.903,-0.327 8.274,-1.654 11.181,-5.479 l 0.1,-0.119 0.115,0.088 c 5.502,3.833 10.293,5.075 14.222,5.075 3.699,0 6.625,-1.107 8.632,-2.218 C -1.869,3.556 -1.096,3.003 -0.573,2.591 -0.315,2.38 -0.115,2.207 0.011,2.092 0.138,1.972 0.2,1.903 0.2,1.903 L 0.35,1.757 14.179,23.384 15.337,23.761 -0.135,0.084 0,0 0.111,0.111 Z"
             style="fill:#1d1d1b;fill-opacity:1;fill-rule:nonzero;stroke:none"
             id="path36" />
        </g>
        <g
           id="g38"
           transform="translate(180.8841,244.2564)">
          <path
             d="m 0,0 -14.495,-22.18 c -0.588,0.565 -4.863,4.421 -11.822,4.421 -3.957,0 -8.782,-1.249 -14.28,-5.06 -3.222,3.83 -7.532,5.225 -11.526,5.51 l -10.489,-3.483 c 3.31,1.018 14.918,3.821 21.681,-4.307 15.929,11.097 26.113,0.616 26.113,0.616 L 1.434,0.481 Z"
             style="fill:#ffffff;fill-opacity:1;fill-rule:nonzero;stroke:none"
             id="path40" />
        </g>
        <g
           id="g42"
           transform="translate(180.8841,244.2564)">
          <path
             d="m 0,0 -0.127,0.092 -14.502,-22.188 0.134,-0.084 0.112,0.111 c -0.615,0.585 -4.906,4.468 -11.934,4.468 v -0.158 l 0.007,0.158 h -0.007 c -3.995,0.004 -8.847,-1.265 -14.368,-5.087 l 0.088,-0.131 0.131,0.1 c -3.264,3.876 -7.624,5.279 -11.638,5.571 l -0.039,0.004 -10.361,-3.433 0.019,-0.342 c 1.503,0.461 4.644,1.268 8.335,1.268 4.41,0 9.462,-1.18 13.092,-5.547 l 0.096,-0.116 0.131,0.085 c 5.486,3.825 10.273,5.063 14.187,5.063 3.71,0 6.624,-1.107 8.631,-2.218 1.011,-0.554 1.78,-1.108 2.292,-1.523 0.257,-0.207 0.457,-0.38 0.596,-0.5 0.127,-0.119 0.188,-0.188 0.188,-0.188 l 0.146,-0.146 L 1.822,0.777 -0.096,0.135 -0.127,0.092 0,0 0.062,-0.146 1.05,0.185 l -16.006,-24.58 0.138,-0.088 0.119,0.111 c -0.011,0.015 -4.402,4.529 -11.945,4.529 -3.983,0 -8.851,-1.265 -14.376,-5.121 l 0.089,-0.135 0.127,0.104 c -3.714,4.468 -8.89,5.664 -13.346,5.664 -3.737,0 -6.832,-0.781 -8.354,-1.246 l 0.019,-0.139 v -0.203 l 10.419,3.46 -0.057,0.15 -0.012,-0.158 c 3.964,-0.288 8.228,-1.664 11.423,-5.459 l 0.088,-0.112 0.127,0.093 c 5.467,3.787 10.254,5.025 14.18,5.025 v 0.088 -0.088 0.088 -0.088 c 6.901,0 11.13,-3.826 11.707,-4.376 l 0.138,-0.138 L 0.142,-0.084 0,0 0.062,-0.146 Z"
             style="fill:#1d1d1b;fill-opacity:1;fill-rule:nonzero;stroke:none"
             id="path44" />
        </g>
        <g
           id="g46"
           transform="translate(181.4878,243.4567)">
          <path
             d="m 0,0 -15.421,-23.684 c 0,0 -10.185,10.481 -26.114,-0.615 -3.222,3.876 -7.544,5.256 -11.55,5.536 l -10.173,-3.594 c 1.938,0.665 15.01,4.721 22.357,-4.107 15.937,11.093 26.133,0.631 26.133,0.631 L 2.73,0.969 Z"
             style="fill:#ffffff;fill-opacity:1;fill-rule:nonzero;stroke:none"
             id="path48" />
        </g>
        <g
           id="g50"
           transform="translate(181.4878,243.4567)">
          <path
             d="m 0,0 -0.138,0.085 -15.422,-23.68 0.139,-0.089 0.119,0.112 c -0.012,0.015 -4.402,4.529 -11.946,4.529 -3.983,0 -8.851,-1.265 -14.376,-5.121 l 0.089,-0.135 0.127,0.104 c -3.26,3.918 -7.632,5.309 -11.665,5.59 l -0.027,0.004 -10.008,-3.537 v -0.316 c 0.957,0.327 4.587,1.442 8.966,1.442 4.41,0 9.474,-1.176 13.111,-5.552 l 0.1,-0.115 0.115,0.081 c 5.509,3.833 10.292,5.071 14.222,5.071 3.698,0 6.624,-1.103 8.631,-2.215 0.996,-0.549 1.769,-1.099 2.292,-1.514 0.257,-0.216 0.457,-0.381 0.584,-0.504 0.127,-0.119 0.188,-0.181 0.188,-0.181 l 0.15,-0.153 L 3.126,1.28 -0.108,0.134 -0.138,0.085 0,0 0.061,-0.15 2.334,0.657 -14.91,-25.748 l 0.142,-0.085 0.116,0.112 c -0.02,0.011 -4.41,4.517 -11.942,4.517 -3.995,0 -8.862,-1.269 -14.407,-5.125 l 0.1,-0.135 0.127,0.104 c -3.725,4.472 -8.908,5.675 -13.368,5.675 -4.437,-0.004 -7.986,-1.115 -8.966,-1.453 v -0.316 l 10.073,3.542 -0.05,0.149 -0.011,-0.157 c 3.979,-0.288 8.251,-1.646 11.434,-5.479 l 0.096,-0.115 0.131,0.084 c 5.486,3.826 10.273,5.064 14.187,5.064 3.71,0 6.625,-1.107 8.631,-2.219 1.012,-0.553 1.781,-1.107 2.292,-1.522 0.258,-0.208 0.458,-0.381 0.596,-0.5 0.127,-0.119 0.188,-0.188 0.188,-0.188 l 0.147,-0.146 L 0.138,-0.085 0,0 0.061,-0.15 Z"
             style="fill:#1d1d1b;fill-opacity:1;fill-rule:nonzero;stroke:none"
             id="path52" />
        </g>
        <g
           id="g54"
           transform="translate(39.541,108.344)">
          <path
             d="m 0,0 c 4.787,2.211 7.793,3.941 10.808,-1.972 1.868,-3.668 1.957,-5.971 -2.196,-7.94 L 5.875,-11.227 3.341,-12.438 C 2.634,-12.78 1.969,-13.122 1.265,-13.461 l -2.638,5.214 c 0.185,0.081 0.346,0.15 0.435,0.185 0.296,0.153 0.976,0.449 1.988,0.922 l 2.157,1.015 2.864,1.365 3.806,1.819 0.534,0.261 c -0.126,0.365 -0.188,0.492 -0.334,0.769 C 8.343,1.488 6.655,2.168 3.145,0.742 1.969,0.281 1.107,-0.119 -0.842,-1.042 c -1.027,-0.488 -2.034,-1 -3.014,-1.503 0,-0.031 -0.05,-0.046 -0.05,-0.046 -0.273,-0.127 -0.535,-0.089 -0.642,0.153 -0.097,0.204 0,0.404 0.261,0.527 C -2.876,-1.234 -1.415,-0.623 0,0"
             style="fill:#1d1d1b;fill-opacity:1;fill-rule:evenodd;stroke:none"
             id="path56" />
        </g>
        <g
           id="g58"
           transform="translate(39.541,113.3537)">
          <path
             d="M 0,0 0.457,0.146 2.672,0.888 C 3.522,1.161 4.36,1.476 5.24,1.757 5.498,1.83 5.694,1.892 5.783,1.957 6.052,2.03 6.29,2.011 6.386,1.715 6.467,1.488 6.359,1.315 6.013,1.196 H 5.982 C 3.906,0.531 1.78,-0.062 -0.296,-0.723 -0.881,-0.9 -1.719,-1.173 -2.837,-1.565 -5.167,-2.303 -5.513,-2.418 -6.89,-2.91 c 0.807,3.421 1.58,6.866 2.284,10.327 l 0.615,3.041 C -4.625,10.25 -5.14,10.112 -5.556,9.977 -6.732,9.604 -7.901,9.193 -9.104,8.812 -9.4,8.728 -9.62,8.651 -9.72,8.601 c -0.276,-0.085 -0.642,-0.2 -0.738,0.134 -0.092,0.269 -0.011,0.385 0.435,0.531 l 1.749,0.561 2.191,0.631 c 1.219,0.365 2.177,0.661 2.911,0.899 2.018,0.65 4.003,1.361 5.998,1.981 C 1.711,8.92 0.8,4.437 0,0"
             style="fill:#1d1d1b;fill-opacity:1;fill-rule:evenodd;stroke:none"
             id="path60" />
        </g>
        <g
           id="g62"
           transform="translate(41.1827,129.671)">
          <path
             d="m 0,0 -0.75,-0.123 c -3.026,-0.604 -6.059,-1.192 -9.12,-1.822 l -2.752,-0.585 -0.5,-0.111 -1.223,5.682 0.65,0.135 2.76,0.519 3.261,0.653 2.949,0.604 3.026,0.627 0.476,0.104 z"
             style="fill:#1d1d1b;fill-opacity:1;fill-rule:evenodd;stroke:none"
             id="path64" />
        </g>
        <g
           id="g66"
           transform="translate(25.4613,151.4015)">
          <path
             d="m 0,0 c 0.089,-0.038 0.219,-0.108 0.465,-0.231 l 10.758,-4.56 2.918,-1.284 -9.67,-6.597 -3.925,-2.703 -0.623,6.617 7.405,4.963 -3.422,1.407 c -1.391,0.593 -2.849,1.058 -4.213,1.642 -0.612,0.212 -0.739,0.296 -0.769,0.542 -0.02,0.212 0.126,0.419 0.365,0.442 C -0.604,0.238 -0.434,0.2 0,0"
             style="fill:#1d1d1b;fill-opacity:1;fill-rule:evenodd;stroke:none"
             id="path68" />
        </g>
        <g
           id="g70"
           transform="translate(38.4837,165.9232)">
          <path
             d="m 0,0 -0.012,-0.288 -0.503,-10.785 -7.128,0.373 c -2.096,0.088 -4.172,0.1 -6.26,0.188 l 0.465,10.043 0.031,0.511 c 0.031,0.335 0.139,0.465 0.385,0.454 0.25,-0.008 0.346,-0.127 0.327,-0.473 V 0 l -0.289,-4.745 3.061,-0.161 0.007,0.231 0.146,4.859 c 0.02,0.516 0.112,0.623 0.385,0.604 0.261,0 0.35,-0.154 0.319,-0.604 -0.031,-0.915 -0.119,-1.856 -0.169,-2.764 l -0.096,-2.138 v -0.223 c 0.573,-0.038 1.126,-0.057 1.688,-0.092 l 6.743,-0.238 0.196,5.467 c 0.02,0.45 0.112,0.592 0.381,0.573 C -0.031,0.769 0.019,0.681 0,0"
             style="fill:#1d1d1b;fill-opacity:1;fill-rule:evenodd;stroke:none"
             id="path72" />
        </g>
        <g
           id="g74"
           transform="translate(28.4065,180.2064)">
          <path
             d="m 0,0 c -0.454,-0.873 -0.761,-1.803 -1.096,-3.349 l 0.546,-0.119 3.222,-0.634 2.722,-0.489 1.738,-0.303 c 0.096,-0.016 0.196,-0.035 0.442,-0.073 0.615,0.403 0.754,0.515 1.277,1.034 0.061,0.2 0.08,0.315 0.1,0.438 C 9.485,-0.692 7.843,1.822 5.156,2.311 3.099,2.672 0.973,1.726 0,0 m 9.543,-1.057 c 0.188,-0.746 0.211,-1.123 0.1,-2.1 1.115,1.135 1.937,2.438 2.549,3.864 0.073,0.189 0.188,0.274 0.35,0.243 C 12.738,0.923 12.845,0.723 12.788,0.481 12.43,-1.411 9.881,-3.825 8.455,-5.106 l 2.956,-0.523 -1.069,-5.678 -0.422,0.08 -3.146,0.558 -3.767,0.711 -3.007,0.519 -2.518,0.427 -0.316,0.038 0.719,3.764 c 0.623,3.368 1.069,4.814 1.792,5.883 1.234,1.761 3.441,2.63 5.644,2.249 1.988,-0.354 3.737,-1.995 4.222,-3.979"
             style="fill:#1d1d1b;fill-opacity:1;fill-rule:evenodd;stroke:none"
             id="path76" />
        </g>
        <g
           id="g78"
           transform="translate(43.7355,188.5266)">
          <path
             d="m 0,0 c -0.477,-1.411 -1.369,-2.588 -2.66,-3.399 -0.516,-0.338 -0.823,-0.446 -1.05,-0.388 -0.169,0.061 -0.288,0.242 -0.238,0.388 0.111,0.331 2.453,1.004 3.252,3.399 0.227,0.688 0.131,1.123 -0.304,1.261 -1.837,0.569 -6.597,-3.768 -10.054,-2.672 -2.276,0.704 -3.233,3.314 -2.276,6.209 0.427,1.258 1.077,2.265 1.927,2.938 0.457,0.357 0.899,0.538 1.111,0.488 0.146,-0.062 0.238,-0.204 0.177,-0.396 -0.058,-0.177 -1.9,-1.061 -2.492,-2.814 -0.177,-0.612 -0.031,-1.108 0.415,-1.258 1.796,-0.557 7.009,3.81 10.154,2.834 C 0.227,5.879 1.057,3.23 0,0"
             style="fill:#1d1d1b;fill-opacity:1;fill-rule:evenodd;stroke:none"
             id="path80" />
        </g>
        <g
           id="g82"
           transform="translate(46.2538,196.6737)">
          <path
             d="m 0,0 -0.681,0.3 c -2.825,1.184 -5.674,2.414 -8.512,3.618 l -2.61,1.038 -0.485,0.192 2.392,5.329 0.615,-0.258 L -6.732,9.108 -3.656,7.816 -0.9,6.663 1.938,5.494 2.384,5.317 Z"
             style="fill:#1d1d1b;fill-opacity:1;fill-rule:evenodd;stroke:none"
             id="path84" />
        </g>
        <g
           id="g86"
           transform="translate(43.3204,218.0774)">
          <path
             d="m 0,0 c -0.615,-0.577 -1.08,-1.242 -1.484,-1.969 l 4.102,-2.299 c 1.415,-0.807 2.461,-1.384 3.122,-1.753 0.585,-0.323 1.673,-0.907 3.307,-1.78 0.976,1.611 1.522,3.349 0.976,5.202 C 9.558,-1.15 8.551,0.104 7.186,0.873 4.921,2.134 1.915,1.776 0,0 m 9.916,-7.57 -0.812,-1.384 -2.472,-4.16 c -2.411,1.353 -4.252,2.399 -5.594,3.145 -1.611,0.888 -3.007,1.633 -6.032,3.283 l 2.56,4.325 c 1.088,1.819 1.58,2.465 2.434,3.184 2.015,1.68 5.198,1.857 7.493,0.58 3.392,-1.887 4.28,-5.698 2.423,-8.973"
             style="fill:#1d1d1b;fill-opacity:1;fill-rule:evenodd;stroke:none"
             id="path88" />
        </g>
        <g
           id="g90"
           transform="translate(54.501,226.1168)">
          <path
             d="m 0,0 0.181,-0.5 1.026,-2.537 0.869,-2.115 0.177,-0.354 c 1.219,1.507 3.63,4.468 3.63,4.468 z M 8.632,-1.53 6.636,-1.153 2.518,-6.232 3.026,-7.459 C 3.164,-7.716 3.472,-8.166 3.253,-8.409 3.145,-8.582 2.964,-8.616 2.826,-8.524 2.491,-8.27 1.819,-6.255 1.58,-5.717 L -0.1,-1.48 -1.919,3.049 c -0.403,1.026 -0.83,2.084 -1.276,3.099 L 12.822,3.656 Z"
             style="fill:#1d1d1b;fill-opacity:1;fill-rule:evenodd;stroke:none"
             id="path92" />
        </g>
        <g
           id="g94"
           transform="translate(66.2851,245.5944)">
          <path
             d="m 0,0 c -0.761,-0.369 -1.372,-0.884 -1.995,-1.465 l 3.252,-3.337 c 1.127,-1.15 1.969,-2.003 2.492,-2.534 0.465,-0.469 1.345,-1.349 2.66,-2.614 1.384,1.288 2.392,2.795 2.442,4.714 0,1.522 -0.604,2.987 -1.711,4.11 C 5.34,0.707 2.365,1.192 0,0 m 7.298,-9.966 -1.196,-1.107 -3.599,-3.318 c -1.888,1.961 -3.353,3.46 -4.422,4.556 -1.272,1.292 -2.41,2.403 -4.832,4.81 l 3.737,3.453 c 1.572,1.453 2.233,1.914 3.241,2.364 2.441,1.073 5.548,0.354 7.378,-1.48 2.687,-2.749 2.43,-6.648 -0.307,-9.278"
             style="fill:#1d1d1b;fill-opacity:1;fill-rule:evenodd;stroke:none"
             id="path96" />
        </g>
        <g
           id="g98"
           transform="translate(91.6184,263.6534)">
          <path
             d="m 0,0 c -0.973,-0.565 -1.892,-1.05 -2.857,-1.626 l 0.254,-0.45 1.326,-2.099 1.484,-2.427 1.896,-3.018 c 0.842,-1.249 1.307,-2.026 1.453,-2.257 0.043,-0.065 0.112,-0.169 0.189,-0.276 l -5.091,-3.019 c -0.603,0.954 -1.188,1.919 -1.78,2.892 l -2.234,3.556 -1.434,2.199 -1.207,1.861 c -0.969,-0.569 -1.896,-1.207 -2.857,-1.765 -0.303,-0.188 -0.473,-0.161 -0.6,0.027 -0.142,0.216 -0.073,0.373 0.247,0.554 l 0.196,0.146 8.777,5.187 1.496,0.895 0.346,0.177 C -0.05,0.75 0.107,0.75 0.254,0.515 0.373,0.354 0.304,0.188 0,0"
             style="fill:#1d1d1b;fill-opacity:1;fill-rule:evenodd;stroke:none"
             id="path100" />
        </g>
        <g
           id="g102"
           transform="translate(111.2843,258.9972)">
          <path
             d="m 0,0 -0.258,-0.1 -10.207,-4.402 -2.834,6.336 c -0.873,1.83 -1.799,3.641 -2.641,5.483 l 9.492,4.102 0.492,0.215 c 0.327,0.108 0.489,0.089 0.585,-0.146 0.1,-0.223 0.038,-0.35 -0.277,-0.476 l -0.038,-0.024 -4.518,-1.857 1.207,-2.729 0.235,0.096 4.567,2.034 c 0.485,0.215 0.623,0.2 0.742,-0.023 C -3.353,8.247 -3.441,8.105 -3.887,7.92 -4.748,7.551 -5.656,7.213 -6.517,6.832 L -8.524,5.967 -8.732,5.875 C -8.524,5.36 -8.309,4.86 -8.059,4.352 L -5.263,-1.576 -0.119,0.7 C 0.296,0.884 0.481,0.877 0.571,0.634 0.698,0.373 0.629,0.304 0,0"
             style="fill:#1d1d1b;fill-opacity:1;fill-rule:evenodd;stroke:none"
             id="path104" />
        </g>
        <g
           id="g106"
           transform="translate(124.6698,264.6683)">
          <path
             d="m 0,0 c -0.873,-1.465 -2.472,-2.688 -4.095,-3.168 -3.81,-1.08 -7.762,0.973 -8.887,4.637 -1.119,3.602 1.048,7.439 4.743,8.508 2.095,0.592 4.398,0.265 6.07,-0.88 0.3,-0.212 0.485,-0.346 0.516,-0.492 C -1.603,8.474 -1.711,8.316 -1.842,8.285 -2.03,8.232 -2.149,8.274 -2.426,8.474 -4.006,9.685 -6.202,9.958 -8.097,9.412 -8.397,9.339 -8.485,9.289 -8.743,9.15 l 0.111,-0.376 0.77,-2.603 0.93,-3.111 c 0.215,-0.672 0.504,-1.611 0.88,-2.764 l 0.827,-2.626 0.131,-0.434 c 0.415,0.076 0.592,0.076 0.799,0.153 2.284,0.642 3.949,2.496 4.453,4.829 C 0.234,2.53 0.315,2.63 0.423,2.668 0.623,2.718 0.788,2.649 0.838,2.53 0.957,2.165 0.531,0.915 0,0"
             style="fill:#1d1d1b;fill-opacity:1;fill-rule:evenodd;stroke:none"
             id="path108" />
        </g>
        <g
           id="g110"
           transform="translate(128.4339,270.3778)">
          <path
             d="M 0,0 0.088,-0.465 0.477,-2.699 C 0.592,-3.568 0.811,-4.41 0.931,-5.294 0.981,-5.56 1.011,-5.759 1.038,-5.852 1.077,-6.121 1.03,-6.344 0.704,-6.39 0.457,-6.425 0.308,-6.29 0.246,-5.948 v 0.042 C -0.069,-3.829 -0.346,-1.707 -0.673,0.392 -0.761,0.969 -0.888,1.826 -1.127,2.957 -1.492,5.29 -1.542,5.659 -1.83,7.055 1.534,5.706 4.914,4.41 8.328,3.16 l 3.003,-1.084 c -0.081,0.642 -0.158,1.157 -0.227,1.576 -0.189,1.181 -0.404,2.361 -0.592,3.58 -0.05,0.292 -0.081,0.504 -0.12,0.627 -0.05,0.261 -0.1,0.638 0.258,0.68 0.277,0.039 0.396,-0.05 0.473,-0.511 l 0.269,-1.753 0.284,-2.2 c 0.177,-1.211 0.335,-2.218 0.447,-2.941 0.315,-2.015 0.711,-4.037 1.03,-6.048 C 8.831,-3.118 4.433,-1.5 0,0"
             style="fill:#1d1d1b;fill-opacity:1;fill-rule:evenodd;stroke:none"
             id="path112" />
        </g>
        <g
           id="g114"
           transform="translate(151.0065,279.1169)">
          <path
             d="m 0,0 c -0.315,-0.004 -0.396,-0.038 -0.692,-0.065 0,-2.234 0,-4.476 0.031,-6.725 0,-1.046 0.007,-1.949 0.046,-2.637 l 0.054,-1.961 0.019,-1.161 c 0.265,-0.046 0.377,-0.043 0.619,-0.043 3.749,0.043 6.617,2.849 6.559,6.417 C 6.605,-2.699 3.668,0.019 0,0 m 0.146,-13.157 c -3.814,-0.042 -7.067,3.065 -7.097,6.786 -0.058,3.834 3.106,6.905 7.059,6.94 3.906,0.038 7.132,-3.033 7.17,-6.794 0.05,-3.798 -3.107,-6.901 -7.132,-6.932"
             style="fill:#1d1d1b;fill-opacity:1;fill-rule:evenodd;stroke:none"
             id="path116" />
        </g>
        <g
           id="g118"
           transform="translate(172.8179,264.826)">
          <path
             d="m 0,0 -0.258,0.015 -10.184,1.223 -1.227,0.146 c 0.177,1.176 0.338,2.353 0.508,3.549 l 0.296,2.199 0.446,3.449 0.323,2.764 0.119,0.881 5.944,-0.712 C -4.26,11.815 -4.529,10.065 -4.787,8.355 L -5.041,6.121 -5.379,3.499 -5.625,1.292 -5.398,1.276 -3.203,1.003 C -2.126,0.896 -1.077,0.807 -0.019,0.677 0.215,0.669 0.584,0.611 0.534,0.277 0.515,0.015 0.396,-0.039 0,0"
             style="fill:#1d1d1b;fill-opacity:1;fill-rule:evenodd;stroke:none"
             id="path120" />
        </g>
        <g
           id="g122"
           transform="translate(185.2249,275.1031)">
          <path
             d="m 0,0 c -0.304,0.088 -0.392,0.1 -0.681,0.123 -0.622,-2.149 -1.238,-4.31 -1.818,-6.475 -0.288,-1.022 -0.527,-1.887 -0.696,-2.553 l -0.481,-1.891 -0.307,-1.142 c 0.257,-0.123 0.346,-0.142 0.603,-0.212 3.618,-0.926 7.148,1.054 8.09,4.503 C 5.617,-4.279 3.549,-0.907 0,0 m -3.48,-12.719 c -3.698,0.95 -5.97,4.78 -4.971,8.386 1,3.702 4.883,5.852 8.72,4.867 3.776,-0.972 6.033,-4.752 5.021,-8.393 -0.988,-3.687 -4.883,-5.848 -8.77,-4.86"
             style="fill:#1d1d1b;fill-opacity:1;fill-rule:evenodd;stroke:none"
             id="path124" />
        </g>
        <g
           id="g126"
           transform="translate(197.2474,257.2941)">
          <path
             d="m 0,0 c -3.599,1.492 -5.267,5.544 -3.706,9.1 1.503,3.392 5.732,4.987 9.292,3.518 C 7.424,11.869 8.858,10.385 9.554,8.535 9.739,7.986 9.82,7.682 9.731,7.493 9.674,7.347 9.462,7.301 9.293,7.386 9.147,7.44 9.047,7.536 8.997,7.82 8.474,9.87 7.19,11.338 5.329,12.111 5.064,12.219 4.933,12.249 4.618,12.353 L 4.452,11.961 3.345,9.5 2.019,6.505 0.831,3.829 -0.215,1.323 -0.415,0.884 C -0.188,0.696 -0.081,0.65 0.219,0.531 3.345,-0.754 7.009,0.488 8.512,3.341 L 4.283,5.083 C 3.983,5.206 3.68,5.336 3.391,5.467 3.045,5.598 2.98,5.729 3.076,5.933 3.153,6.129 3.314,6.171 3.61,6.04 L 4.518,5.679 9.374,3.672 C 7.724,0.054 3.687,-1.526 0,0"
             style="fill:#1d1d1b;fill-opacity:1;fill-rule:evenodd;stroke:none"
             id="path128" />
        </g>
        <g
           id="g130"
           transform="translate(206.4441,253.5377)">
          <path
             d="M 0,0 0.396,0.611 C 1.907,3.226 3.468,5.806 5.002,8.443 L 6.359,10.85 6.601,11.28 11.815,8.42 11.488,7.859 10.077,5.51 8.436,2.703 6.951,0.165 5.448,-2.43 5.221,-2.86 Z"
             style="fill:#1d1d1b;fill-opacity:1;fill-rule:evenodd;stroke:none"
             id="path132" />
        </g>
        <g
           id="g134"
           transform="translate(224.7453,243.9066)">
          <path
             d="m 0,0 c -1.73,-0.238 -3.718,0.223 -5.102,1.184 -3.222,2.242 -3.964,6.54 -1.653,9.635 2.257,3.057 6.724,3.753 9.858,1.584 C 4.875,11.165 6.021,9.212 6.109,7.205 6.14,6.855 6.109,6.644 6.021,6.513 5.963,6.413 5.744,6.386 5.636,6.475 5.475,6.582 5.46,6.69 5.46,7.028 c 0,1.957 -1.119,3.807 -2.742,4.925 -0.25,0.173 -0.327,0.216 -0.603,0.335 L 1.876,11.973 0.219,9.785 -1.742,7.155 C -2.157,6.594 -2.757,5.798 -3.472,4.791 L -5.114,2.561 -5.39,2.18 C -5.064,1.907 -4.933,1.792 -4.768,1.665 -2.837,0.315 -0.315,0.173 1.926,1.219 2.222,1.357 2.341,1.376 2.449,1.288 2.611,1.184 2.668,1.007 2.58,0.911 2.341,0.592 1.088,0.158 0,0"
             style="fill:#1d1d1b;fill-opacity:1;fill-rule:evenodd;stroke:none"
             id="path136" />
        </g>
        <g
           id="g138"
           transform="translate(235.1261,243.153)">
          <path
             d="m 0,0 -0.534,-0.127 -2.699,-0.754 -2.265,-0.607 -0.408,-0.131 c 1.458,-1.338 4.287,-3.937 4.287,-3.937 z m -2.384,-8.155 0.535,1.869 -4.818,4.464 -1.292,-0.377 c -0.277,-0.1 -0.772,-0.362 -1.007,-0.123 -0.157,0.123 -0.181,0.311 -0.081,0.419 0.296,0.292 2.434,0.773 3.015,0.926 l 4.529,1.211 4.825,1.315 C 4.41,1.845 5.567,2.153 6.636,2.464 L 2.511,-12.711 Z"
             style="fill:#1d1d1b;fill-opacity:1;fill-rule:evenodd;stroke:none"
             id="path140" />
        </g>
        <g
           id="g142"
           transform="translate(259.7249,222.0875)">
          <path
             d="m 0,0 c -0.257,0.792 -0.681,1.484 -1.146,2.169 l -3.983,-2.523 c -1.376,-0.865 -2.364,-1.511 -3.006,-1.93 -0.558,-0.361 -1.596,-1.057 -3.119,-2.068 1.069,-1.557 2.426,-2.784 4.372,-3.157 1.553,-0.238 3.164,0.054 4.479,0.919 C -0.227,-5.198 0.784,-2.438 0,0 m -11.43,-5.198 -0.919,1.326 -2.749,3.991 c 2.326,1.473 4.102,2.607 5.401,3.43 1.55,1.011 2.865,1.872 5.741,3.764 l 2.868,-4.141 c 1.196,-1.746 1.584,-2.476 1.83,-3.51 0.673,-2.511 -0.584,-5.348 -2.78,-6.775 -3.26,-2.095 -7.197,-1.165 -9.392,1.915"
             style="fill:#1d1d1b;fill-opacity:1;fill-rule:evenodd;stroke:none"
             id="path144" />
        </g>
        <g
           id="g146"
           transform="translate(258.4485,198.9843)">
          <path
             d="m 0,0 -0.119,0.277 -4.895,9.704 6.46,2.976 c 1.868,0.869 3.725,1.815 5.586,2.707 l 4.537,-9.04 0.25,-0.469 C 11.934,5.848 11.915,5.686 11.699,5.586 11.461,5.486 11.33,5.54 11.192,5.848 L 11.165,5.871 9.089,10.177 6.317,8.912 6.428,8.685 8.681,4.36 C 8.927,3.891 8.901,3.745 8.662,3.649 8.412,3.53 8.266,3.626 8.051,4.048 7.647,4.86 7.259,5.713 6.844,6.551 L 5.856,8.466 5.775,8.666 C 5.252,8.435 4.744,8.201 4.245,7.955 L -1.819,5.048 0.723,0.146 C 0.919,-0.231 0.919,-0.407 0.673,-0.519 0.407,-0.65 0.327,-0.584 0,0"
             style="fill:#1d1d1b;fill-opacity:1;fill-rule:evenodd;stroke:none"
             id="path148" />
        </g>
        <g
           id="g150"
           transform="translate(276.7034,181.0253)">
          <path
             d="M 0,0 C 0.404,1.388 0.077,3.007 -0.281,4.379 L -0.911,4.245 -4.245,3.472 -7.121,2.822 c -0.868,-0.2 -1.683,-0.403 -2.541,-0.63 -0.027,-0.493 0.069,-1.188 0.258,-1.927 0.673,-2.66 3.252,-4.16 5.971,-3.525 C -1.888,-2.903 -0.407,-1.476 0,0 m -10.035,0.265 c -0.142,0.566 -0.2,1.192 -0.28,1.773 -0.769,-0.185 -1.554,-0.389 -2.323,-0.573 l -1.422,5.633 0.573,0.138 3.787,0.853 3.398,0.781 2.723,0.673 2.145,0.527 0.392,0.088 1.05,-4.202 C 0.473,4.076 0.75,2.622 0.819,1.534 0.938,-0.927 -0.823,-3.272 -3.326,-3.887 -6.409,-4.61 -9.258,-2.864 -10.035,0.265"
             style="fill:#1d1d1b;fill-opacity:1;fill-rule:evenodd;stroke:none"
             id="path152" />
        </g>
        <g
           id="g154"
           transform="translate(274.4465,169.5256)">
          <path
             d="m 0,0 -0.492,0.25 -2.553,1.146 -2.126,0.965 -0.385,0.157 c 0.177,-1.918 0.554,-5.675 0.554,-5.675 z m -7.355,-4.625 1.699,1.046 -0.642,6.436 -1.195,0.55 c -0.308,0.084 -0.842,0.215 -0.873,0.553 -0.019,0.165 0.081,0.335 0.227,0.338 0.427,0.043 2.376,-0.957 2.91,-1.195 L -0.988,1.142 3.56,-0.923 c 1.019,-0.476 2.096,-0.965 3.122,-1.411 l -13.406,-8.854 z"
             style="fill:#1d1d1b;fill-opacity:1;fill-rule:evenodd;stroke:none"
             id="path156" />
        </g>
        <g
           id="g158"
           transform="translate(274.1006,155.5346)">
          <path
             d="m 0,0 -0.473,0.031 -2.353,0.061 c -0.892,0.058 -1.799,0.031 -2.71,0.073 -0.289,0.016 -0.497,0.031 -0.585,0.016 -0.308,0.015 -0.511,0.111 -0.484,0.434 0,0.235 0.161,0.358 0.534,0.327 h 0.038 C -3.856,0.857 -1.653,0.684 0.527,0.577 1.146,0.554 2.038,0.5 3.233,0.477 5.667,0.369 6.04,0.35 7.516,0.342 5.486,-2.576 3.503,-5.525 1.572,-8.516 l -1.711,-2.622 c 0.685,-0.046 1.219,-0.085 1.642,-0.108 1.246,-0.05 2.492,-0.073 3.737,-0.131 0.308,-0.011 0.554,-0.023 0.662,-0.011 0.296,-0.012 0.672,-0.031 0.665,-0.369 -0.019,-0.296 -0.15,-0.381 -0.612,-0.358 l -1.853,0.089 -2.28,0.165 c -1.257,0.069 -2.295,0.123 -3.076,0.158 -2.099,0.1 -4.225,0.123 -6.32,0.226 C -4.906,-7.736 -2.392,-3.879 0,0"
             style="fill:#1d1d1b;fill-opacity:1;fill-rule:evenodd;stroke:none"
             id="path160" />
        </g>
        <g
           id="g162"
           transform="translate(273.6045,135.761)">
          <path
             d="M 0,0 -0.392,0.357 -2.499,2.165 -4.256,3.656 -4.575,3.91 C -4.96,2.019 -5.694,-1.684 -5.694,-1.684 Z m -8.382,-2.468 1.927,0.569 1.276,6.317 -1.019,0.853 c -0.257,0.185 -0.73,0.435 -0.661,0.777 0.031,0.184 0.177,0.296 0.327,0.28 0.415,-0.092 1.988,-1.557 2.43,-1.937 L -0.6,1.342 3.157,-1.861 C 3.999,-2.603 4.868,-3.364 5.756,-4.068 L -9.677,-8.916 Z"
             style="fill:#1d1d1b;fill-opacity:1;fill-rule:evenodd;stroke:none"
             id="path164" />
        </g>
        <g
           id="g166"
           transform="translate(259.4097,114.3033)">
          <path
             d="M 0,0 7.147,-0.6 2.845,5.098 9.727,6.932 C 8.285,7.951 6.813,8.974 5.298,9.839 4.875,10.131 3.837,10.527 4.072,11.146 4.16,11.423 4.318,11.523 4.487,11.45 4.783,11.354 5.079,11.058 5.329,10.858 l 1.73,-1.25 3.033,-2.157 2.769,-1.999 2.553,-1.815 0.592,-0.411 -9.174,-2.284 5.517,-7.294 -0.557,0.043 -2.815,0.211 -4.24,0.281 -3.365,0.204 -3.044,0.188 -0.404,0.031 z"
             style="fill:#1d1d1b;fill-opacity:1;fill-rule:evenodd;stroke:none"
             id="path168" />
        </g>
        <g
           id="g170"
           transform="translate(260.9129,99.6587)">
          <path
             d="m 0,0 -0.258,0.465 -1.414,2.38 -1.169,1.957 -0.216,0.334 C -4.045,3.46 -5.975,0.181 -5.975,0.181 Z m -8.774,0.284 2.03,-0.077 3.291,5.606 -0.68,1.127 c -0.2,0.25 -0.546,0.642 -0.377,0.938 0.088,0.15 0.258,0.227 0.396,0.15 0.365,-0.2 1.377,-2.088 1.673,-2.599 l 2.31,-3.941 2.492,-4.214 c 0.573,-0.95 1.149,-1.949 1.73,-2.887 l -16.225,0.165 z"
             style="fill:#1d1d1b;fill-opacity:1;fill-rule:evenodd;stroke:none"
             id="path172" />
        </g>
        <g
           id="g174"
           transform="translate(131.6057,28.1882)">
          <path
             d="m 0,0 c 0.112,0.723 0.238,1.484 0.369,2.192 l 0.485,2.987 0.423,2.58 0.426,2.749 0.077,0.403 c -0.699,-0.08 -1.392,-0.353 -2.076,-0.253 -0.165,0.019 -0.277,0.173 -0.235,0.365 0.05,0.308 0.108,0.308 1.108,0.396 1.138,0.188 2.33,0.304 3.479,0.381 l 3.511,0.442 C 7.421,11.484 7.309,10.769 7.171,10.012 L 6.786,7.59 C 6.486,5.64 6.213,3.687 5.925,1.745 L 5.629,-0.473 5.598,-0.796 Z"
             style="fill:#1d1d1b;fill-opacity:1;fill-rule:evenodd;stroke:none"
             id="path176" />
        </g>
        <g
           id="g178"
           transform="translate(145.42,26.3313)">
          <path
             d="m 0,0 c -1.484,0.073 -2.818,0.761 -3.48,1.753 -0.088,0.158 -0.176,0.362 -0.176,0.485 0,0.234 0.226,0.395 0.492,0.388 0.546,-0.023 0.553,-1.911 3.295,-2.034 0.296,-0.015 0.434,0 0.819,0.054 l 0.007,0.307 0.15,2.646 0.189,3.26 0.15,2.887 0.107,2.749 0.008,0.469 C 1.396,12.976 1.257,13.007 1.207,13.007 -1.522,13.134 -3.868,11.192 -4.002,8.439 -4.095,6.817 -2.845,5.421 -1.284,5.348 -0.881,5.329 -0.377,5.436 -0.019,5.598 0.3,5.74 0.365,5.763 0.446,5.763 0.604,5.763 0.692,5.648 0.692,5.483 0.654,4.91 -0.819,4.694 -1.323,4.721 c -1.949,0.096 -3.464,1.788 -3.364,3.791 0.139,3.026 2.788,5.237 6.094,5.087 C 5.083,13.445 7.436,10.611 7.228,6.605 7.04,2.733 3.826,-0.188 0,0"
             style="fill:#1d1d1b;fill-opacity:1;fill-rule:evenodd;stroke:none"
             id="path180" />
        </g>
        <g
           id="g182"
           transform="translate(159.215,29.6877)">
          <path
             d="m 0,0 c -1.426,0.596 -2.787,1.238 -4.083,2.03 -1.2,-0.657 -1.653,-1.249 -1.603,-2.118 0.077,-1.688 2.114,-2.776 4.932,-2.645 1.454,0.061 2.738,0.649 2.688,1.207 C 1.926,-1.046 1.384,-0.615 0,0 M -0.95,9.693 C -2.476,9.62 -3.541,9.093 -3.503,8.482 -3.453,7.263 0.781,5.917 1.865,5.452 2.922,6.121 3.28,6.625 3.23,7.582 3.16,8.985 1.58,9.816 -0.95,9.693 m 0.227,-13.057 c -3.225,-0.15 -5.555,1.211 -5.675,3.23 -0.038,1.076 0.492,1.86 1.8,2.618 -1.177,1.015 -1.68,1.945 -1.75,3.264 -0.142,2.468 2.273,4.422 5.633,4.575 2.78,0.116 4.61,-0.934 4.698,-2.779 C 4.025,6.578 3.618,5.906 2.576,5.187 4.072,4.314 5.121,3.357 5.21,1.58 5.337,-0.977 2.649,-3.203 -0.723,-3.364"
             style="fill:#1d1d1b;fill-opacity:1;fill-rule:evenodd;stroke:none"
             id="path184" />
        </g>
        <g
           id="g186"
           transform="translate(168.9346,27.477)">
          <path
             d="M 0,0 C -0.123,0.723 -0.211,1.48 -0.3,2.199 L -0.734,5.16 -1.1,7.778 l -0.395,2.76 -0.062,0.404 c -0.631,-0.284 -1.215,-0.742 -1.884,-0.834 -0.181,-0.023 -0.331,0.092 -0.346,0.288 -0.054,0.304 0.015,0.342 0.946,0.704 1.038,0.476 2.145,0.926 3.214,1.334 l 3.234,1.388 C 3.683,13.064 3.783,12.334 3.883,11.588 L 4.248,9.135 C 4.545,7.194 4.864,5.252 5.16,3.303 L 5.536,1.1 5.602,0.781 Z"
             style="fill:#1d1d1b;fill-opacity:1;fill-rule:evenodd;stroke:none"
             id="path188" />
        </g>
        <g
           id="g190"
           transform="translate(241.6622,64.4214)">
          <path
             d="m 0,0 c -1.553,0.4 -3.699,-0.988 -3.699,-0.988 l -0.976,-0.023 c 1.542,1.618 3.053,3.325 4.506,5.109 C 4.329,3.687 8.443,7.49 7.851,14.064 -1.246,12.196 -1.376,6.959 -1.088,4.975 -3.057,3.268 -4.944,1.649 -6.805,0.142 l 0.169,0.819 c 0,0 1.742,1.849 1.592,3.391 -0.166,1.538 -1.761,3.072 -1.592,4.306 0.15,1.227 0.95,2.465 0.95,2.465 0,0 -5.89,-2.622 -5.89,-6.01 0,-3.383 3.814,-4.621 3.814,-4.621 v -1.146 c -2.365,-1.922 -4.645,-3.698 -6.852,-5.325 v 0.012 c 0,0 1.757,1.853 1.611,3.391 -0.165,1.53 -1.761,3.068 -1.611,4.306 0.165,1.23 0.957,2.465 0.957,2.465 0,0 -5.89,-2.611 -5.89,-6.01 0,-3.383 3.826,-4.606 3.826,-4.606 v -0.384 c -3.045,-2.238 -5.94,-4.207 -8.662,-5.956 l 0.069,0.315 c 0,0 1.749,1.861 1.584,3.403 -0.15,1.534 -1.742,3.076 -1.584,4.295 0.15,1.241 0.949,2.483 0.949,2.483 0,0 -5.882,-2.633 -5.882,-6.005 0,-3.399 3.806,-4.629 3.806,-4.629 v -0.539 c -2.995,-1.876 -5.794,-3.456 -8.412,-4.813 l 0.146,0.738 c 0,0 1.742,1.849 1.584,3.383 -0.162,1.538 -1.738,3.072 -1.584,4.314 0.158,1.234 0.954,2.465 0.954,2.465 0,0 -5.895,-2.622 -5.895,-6.006 0,-3.391 3.826,-4.637 3.826,-4.637 v -0.753 c -3.599,-1.799 -6.824,-3.153 -9.739,-4.199 l 0.177,0.966 c 0,0 1.749,1.829 1.592,3.383 -0.158,1.542 -1.75,3.072 -1.592,4.294 0.158,1.254 0.961,2.488 0.961,2.488 0,0 -5.894,-2.63 -5.894,-6.002 0,-3.402 3.814,-4.637 3.814,-4.637 v -0.822 c -8.558,-2.957 -14.333,-3.245 -18.458,-4.725 -2.707,-1.385 0.792,-3.841 0.792,-3.841 1.226,-0.07 8.67,1.284 18.608,5.086 l 0.673,-0.65 c 0,0 -1.811,-3.483 0.654,-5.886 2.456,-2.411 8.55,-0.246 8.55,-0.246 0,0 -1.453,0.323 -2.483,1.092 -0.996,0.773 -0.988,2.957 -1.984,4.145 -1.019,1.195 -3.61,1.334 -3.61,1.334 l -0.873,0.58 c 3.026,1.192 6.29,2.611 9.654,4.28 l 0.957,-0.55 c 0,0 -0.88,-3.818 2.134,-5.552 2.995,-1.753 8.355,1.799 8.355,1.799 0,0 -1.499,-0.031 -2.688,0.485 -1.168,0.496 -1.718,2.595 -3.006,3.525 -1.284,0.923 -3.826,0.42 -3.826,0.42 l -0.938,0.353 c 2.865,1.461 5.829,3.118 8.809,4.948 l 1.153,-0.515 c 0,0 -0.431,-3.875 2.749,-5.306 3.168,-1.411 8.101,2.661 8.101,2.661 0,0 -1.484,-0.192 -2.711,0.196 -1.219,0.373 -1.987,2.418 -3.383,3.199 -1.361,0.8 -3.845,0.027 -3.845,0.027 l -1.184,0.288 c 3.203,2.046 6.405,4.303 9.527,6.821 l 1.265,-0.385 c 0,0 0.092,-3.883 3.445,-4.902 3.341,-0.984 7.671,3.691 7.671,3.691 0,0 -1.454,-0.373 -2.73,-0.154 -1.254,0.212 -2.292,2.146 -3.776,2.753 -1.473,0.581 -3.825,-0.48 -3.825,-0.48 l -1.238,0.138 c 2.572,2.095 5.082,4.372 7.497,6.832 l 1.126,-0.173 c 0,0 0.673,-3.837 4.122,-4.371 3.452,-0.523 7.051,4.698 7.051,4.698 0,0 -1.384,-0.565 -2.672,-0.519 C 2.876,-2.149 1.553,-0.381 0,0"
             style="fill:#004311;fill-opacity:1;fill-rule:evenodd;stroke:none"
             id="path192" />
        </g>
        <g
           id="g194"
           transform="translate(127.7033,36.42)">
          <path
             d="m 0,0 c -4.152,1.48 -9.916,1.769 -18.476,4.725 v 0.823 c 0,0 3.824,1.234 3.824,4.637 0,3.372 -5.892,6.001 -5.892,6.001 0,0 0.811,-1.234 0.968,-2.487 0.15,-1.223 -1.453,-2.753 -1.603,-4.295 -0.158,-1.553 1.603,-3.383 1.603,-3.383 l 0.17,-0.965 c -2.919,1.046 -6.148,2.399 -9.739,4.198 v 0.754 c 0,0 3.825,1.246 3.825,4.637 0,3.383 -5.882,6.005 -5.882,6.005 0,0 0.78,-1.23 0.95,-2.464 0.157,-1.242 -1.435,-2.776 -1.592,-4.314 -0.15,-1.534 1.592,-3.384 1.592,-3.384 l 0.126,-0.738 c -2.599,1.357 -5.405,2.938 -8.4,4.814 v 0.538 c 0,0 3.814,1.23 3.814,4.629 0,3.372 -5.894,6.006 -5.894,6.006 0,0 0.792,-1.242 0.961,-2.484 0.157,-1.219 -1.442,-2.761 -1.592,-4.295 -0.158,-1.541 1.592,-3.402 1.592,-3.402 l 0.05,-0.316 c -2.719,1.75 -5.575,3.718 -8.643,5.956 v 0.384 c 0,0 3.795,1.223 3.795,4.607 0,3.398 -5.879,6.009 -5.879,6.009 0,0 0.8,-1.234 0.957,-2.464 0.158,-1.238 -1.453,-2.776 -1.592,-4.307 -0.169,-1.538 1.592,-3.391 1.592,-3.391 v -0.011 c -2.184,1.626 -4.468,3.402 -6.832,5.325 v 1.146 c 0,0 3.818,1.238 3.818,4.621 0,3.387 -5.894,6.009 -5.894,6.009 0,0 0.784,-1.238 0.938,-2.464 0.169,-1.234 -1.423,-2.768 -1.58,-4.306 -0.169,-1.542 1.58,-3.392 1.58,-3.392 l 0.169,-0.818 c -1.857,1.507 -3.756,3.125 -5.717,4.832 0.3,1.984 0.161,7.221 -8.924,9.09 -0.615,-6.575 3.507,-10.378 8.009,-9.966 1.453,-1.784 2.964,-3.491 4.525,-5.11 l -0.999,0.023 c 0,0 -2.154,1.388 -3.707,0.988 -1.549,-0.38 -2.868,-2.149 -4.152,-2.18 -1.292,-0.046 -2.68,0.519 -2.68,0.519 0,0 3.603,-5.221 7.071,-4.698 3.452,0.535 4.11,4.372 4.11,4.372 l 1.13,0.173 c 2.422,-2.461 4.925,-4.737 7.486,-6.833 l -1.227,-0.138 c 0,0 -2.341,1.061 -3.806,0.481 -1.484,-0.608 -2.549,-2.542 -3.799,-2.753 -1.276,-0.219 -2.73,0.154 -2.73,0.154 0,0 4.322,-4.676 7.675,-3.691 3.352,1.019 3.452,4.902 3.452,4.902 l 1.246,0.384 c 3.134,-2.518 6.344,-4.775 9.539,-6.82 l -1.184,-0.289 c 0,0 -2.476,0.773 -3.849,-0.027 -1.384,-0.78 -2.153,-2.826 -3.379,-3.198 -1.219,-0.389 -2.719,-0.197 -2.719,-0.197 0,0 4.941,-4.071 8.116,-2.66 3.184,1.43 2.727,5.306 2.727,5.306 l 1.176,0.515 c 2.968,-1.83 5.932,-3.488 8.812,-4.949 l -0.949,-0.353 c 0,0 -2.542,0.503 -3.849,-0.419 -1.261,-0.931 -1.819,-3.03 -2.984,-3.526 -1.176,-0.515 -2.687,-0.484 -2.687,-0.484 0,0 5.348,-3.553 8.351,-1.8 3.018,1.734 2.137,5.552 2.137,5.552 l 0.969,0.55 c 3.353,-1.669 6.625,-3.087 9.639,-4.279 l -0.869,-0.581 c 0,0 -2.591,-0.138 -3.599,-1.334 -1.011,-1.188 -0.999,-3.372 -2.006,-4.145 -1.019,-0.769 -2.473,-1.091 -2.473,-1.091 0,0 6.079,-2.165 8.555,0.246 2.468,2.403 0.65,5.886 0.65,5.886 l 0.684,0.65 c 9.933,-3.803 17.376,-5.156 18.584,-5.087 0,0 3.51,2.457 0.811,3.841"
             style="fill:#004311;fill-opacity:1;fill-rule:evenodd;stroke:none"
             id="path196" />
        </g>
        <g
           id="g198"
           transform="translate(67.354,176.0196)">
          <path
             d="m 0,0 1.919,0.623 v 3.391 l 5.732,-2.465 4.76,0.312 4.141,-2.465 v -5.544 l 4.794,0.308 -0.969,-2.784 4.46,-4.31 3.518,1.234 4.126,-0.607 -2.553,4.617 1.591,1.542 8.601,-7.393 4.145,-0.627 10.194,-0.3 9.22,5.844 9.554,2.784 8.928,5.548 0.949,-1.542 -3.502,-4.006 0.642,-2.465 4.464,2.772 0.73,-1.849 2.442,0.615 4.775,-3.698 0.334,-2.165 -4.152,-1.23 -0.315,-4.926 -1.604,-2.772 -4.763,-0.311 -2.226,-4.302 -4.776,-3.092 h -5.751 l -2.215,-2.149 1.915,-4.006 4.125,-0.311 9.558,-12.95 -3.183,-2.756 -5.721,0.3 -2.553,-4.618 -14.337,-0.927 0.961,5.545 -5.402,8.008 1.257,4.326 -11.459,-0.308 -2.549,3.068 -7.324,1.542 -9.543,4.637 -0.65,-2.165 -2.86,3.08 H 5.09 l -3.171,-1.542 0.941,-4.306 -1.91,-0.934 -4.141,6.782 4.141,2.468 2.56,3.076 -1.591,6.778 5.082,3.995 -7.316,4.006 z"
             style="fill:#004311;fill-opacity:1;fill-rule:evenodd;stroke:none"
             id="path200" />
        </g>
        <g
           id="g202"
           transform="translate(151.7486,176.9538)">
          <path
             d="m 0,0 1.05,-2.461 3.398,0.308 -2.549,-2.465 1.592,-1.238 3.814,0.3 2.88,-5.525 6.693,2.457 14.007,-8.631 5.41,1.234 0.949,-11.392 7.021,-16.025 12.734,-12.311 3.817,6.136 v 4.948 l 2.876,-3.095 8.255,6.175 -0.611,3.383 5.721,6.152 L 51.57,-1.538 H 44.265 L 37.886,2.457 29.297,0.927 7.947,5.859 6.682,3.08 Z"
             style="fill:#004311;fill-opacity:1;fill-rule:evenodd;stroke:none"
             id="path204" />
        </g>
        <g
           id="g206"
           transform="translate(141.2408,225.317)">
          <path
             d="M 0,0 15.59,23.111"
             style="fill:none;stroke:#1d1d1b;stroke-width:0.541;stroke-linecap:butt;stroke-linejoin:miter;stroke-miterlimit:22.926;stroke-dasharray:none;stroke-opacity:1"
             id="path208" />
        </g>
        <g
           id="g210"
           transform="translate(141.3062,225.271)">
          <path
             d="M 0,0 15.602,23.107 15.456,23.203 -0.138,0.096"
             style="fill:#1d1d1b;fill-opacity:1;fill-rule:nonzero;stroke:none"
             id="path212" />
        </g>
        <path
           d="M 94.098,207.754 H 68.619 v -18.478 h 25.479 z"
           style="fill:#7a1c79;fill-opacity:1;fill-rule:evenodd;stroke:none"
           id="path214" />
        <path
           d="m 124.035,207.754 h 28.763 v -18.478 h -28.763 z"
           style="fill:#7a1c79;fill-opacity:1;fill-rule:evenodd;stroke:none"
           id="path216" />
        <g
           id="g218"
           transform="translate(187.7278,207.7543)">
          <path
             d="m 0,0 h -24.833 v -18.478 h 3.825 V -78.56 c 0,0 0,-19.712 -24.533,-19.712 -24.518,0 -24.214,19.712 -24.214,19.712 v 60.082 h 3.51 V 0 h -24.836 v -18.478 h 4.472 V -78.56 c 0,-2.764 0,-35.722 41.395,-35.722 41.396,0 41.704,33.269 41.704,35.722 v 60.082 H 0 Z"
             style="fill:#7a1c79;fill-opacity:1;fill-rule:evenodd;stroke:none"
             id="path220" />
        </g>
        <g
           id="g222"
           transform="translate(187.4125,155.4846)">
          <path
             d="m 0,0 h 26.752 c 2.541,0 14.96,2.38 14.96,18.078 0,15.714 -12.103,15.714 -14.326,15.714 H 3.18 V 52.27 h 23.879 c 0,0 31.847,-0.296 31.847,-33.877 0,-33.587 -27.713,-35.125 -32.154,-35.125 H 0 Z"
             style="fill:#7a1c79;fill-opacity:1;fill-rule:evenodd;stroke:none"
             id="path224" />
        </g>
        <g
           id="g226"
           transform="translate(101.1187,90.6888)">
          <path
             d="M 0,0 H 16.854 V 4.929 C 1.58,13.253 0,24.341 0,24.341 Z"
             style="fill:#7a1c79;fill-opacity:1;fill-rule:evenodd;stroke:none"
             id="path228" />
        </g>
        <g
           id="g230"
           transform="translate(184.2176,90.6888)">
          <path
             d="M 0,0 H -16.878 V 4.929 C -1.584,13.253 0,24.953 0,24.953 Z"
             style="fill:#7a1c79;fill-opacity:1;fill-rule:evenodd;stroke:none"
             id="path232" />
        </g>
        <g
           id="g234"
           transform="translate(132.7054,243.7912)">
          <path
             d="m 0,0 c 0,0 0.7,0.2 1.857,0.396 1.161,0.196 2.772,0.392 4.591,0.392 3.302,0.004 7.278,-0.653 10.43,-3.141 l 0.127,0.158 C 13.803,0.334 9.777,0.992 6.448,0.992 2.787,0.992 -0.05,0.188 -0.05,0.188 Z"
             style="fill:#1d1d1b;fill-opacity:1;fill-rule:nonzero;stroke:none"
             id="path236" />
        </g>
        <g
           id="g238"
           transform="translate(131.0945,241.4343)">
          <path
             d="m 0,0 c 0,0 0.692,0.2 1.849,0.396 1.154,0.192 2.769,0.396 4.587,0.396 3.303,0 7.274,-0.661 10.431,-3.145 l 0.131,0.158 C 13.791,0.331 9.77,0.988 6.436,0.988 c -3.66,0 -6.498,-0.796 -6.498,-0.796 z"
             style="fill:#1d1d1b;fill-opacity:1;fill-rule:nonzero;stroke:none"
             id="path240" />
        </g>
        <g
           id="g242"
           transform="translate(129.7488,239.066)">
          <path
             d="m 0,0 c 0,0 0.704,0.196 1.857,0.392 1.161,0.2 2.772,0.392 4.591,0.392 3.302,0 7.274,-0.653 10.43,-3.137 l 0.127,0.154 C 13.791,0.331 9.77,0.988 6.448,0.988 c -3.668,0 -6.498,-0.8 -6.498,-0.8 z"
             style="fill:#1d1d1b;fill-opacity:1;fill-rule:nonzero;stroke:none"
             id="path244" />
        </g>
        <g
           id="g246"
           transform="translate(137.719,250.7694)">
          <path
             d="m 0,0 c 0,0 0.7,0.2 1.857,0.396 1.157,0.196 2.772,0.396 4.579,0.396 3.314,0 7.286,-0.657 10.439,-3.141 l 0.13,0.15 C 13.791,0.335 9.766,0.992 6.436,0.992 2.78,0.992 -0.05,0.196 -0.061,0.196 Z"
             style="fill:#1d1d1b;fill-opacity:1;fill-rule:nonzero;stroke:none"
             id="path248" />
        </g>
        <g
           id="g250"
           transform="translate(136.0965,248.4204)">
          <path
             d="m 0,0 c 0,0.004 0.692,0.196 1.849,0.392 1.165,0.2 2.78,0.404 4.599,0.404 3.302,0 7.274,-0.662 10.43,-3.145 l 0.12,0.157 c -3.203,2.526 -7.221,3.184 -10.55,3.184 -3.672,0 -6.498,-0.8 -6.506,-0.8 z"
             style="fill:#1d1d1b;fill-opacity:1;fill-rule:nonzero;stroke:none"
             id="path252" />
        </g>
        <g
           id="g254"
           transform="translate(134.7625,246.0518)">
          <path
             d="m 0,0 c 0,0 0.692,0.196 1.849,0.396 1.165,0.2 2.78,0.4 4.595,0.4 3.306,0 7.278,-0.657 10.423,-3.145 l 0.131,0.154 C 13.791,0.335 9.769,0.988 6.444,0.988 2.78,0.988 -0.05,0.192 -0.058,0.192 Z"
             style="fill:#1d1d1b;fill-opacity:1;fill-rule:nonzero;stroke:none"
             id="path256" />
        </g>
        <g
           id="g258"
           transform="translate(128.1187,237.0091)">
          <path
             d="m 0,0 c 0,0 0.7,0.196 1.857,0.388 1.157,0.204 2.772,0.4 4.587,0.4 3.302,0 7.289,-0.653 10.431,-3.141 l 0.13,0.158 C 13.803,0.327 9.777,0.988 6.444,0.988 c -3.664,0 -6.494,-0.8 -6.494,-0.8 z"
             style="fill:#1d1d1b;fill-opacity:1;fill-rule:nonzero;stroke:none"
             id="path260" />
        </g>
        <g
           id="g262"
           transform="translate(126.496,234.6368)">
          <path
             d="m 0,0 c 0,0 0.704,0.204 1.857,0.4 1.157,0.2 2.78,0.396 4.598,0.396 3.303,0 7.279,-0.654 10.424,-3.145 l 0.126,0.157 C 13.803,0.334 9.777,0.992 6.455,0.992 2.787,0.992 -0.05,0.196 -0.05,0.196 Z"
             style="fill:#1d1d1b;fill-opacity:1;fill-rule:nonzero;stroke:none"
             id="path264" />
        </g>
        <g
           id="g266"
           transform="translate(125.162,232.2722)">
          <path
             d="m 0,0 c 0,0 0.704,0.2 1.857,0.396 1.169,0.196 2.78,0.396 4.598,0.396 3.303,0 7.279,-0.653 10.431,-3.141 l 0.119,0.158 c -3.202,2.522 -7.216,3.183 -10.55,3.183 -3.668,0 -6.505,-0.8 -6.505,-0.8 z"
             style="fill:#1d1d1b;fill-opacity:1;fill-rule:nonzero;stroke:none"
             id="path268" />
        </g>
        <g
           id="g270"
           transform="translate(156.0855,242.3495)">
          <path
             d="m 0,0 c 0,0 0.696,0.196 1.865,0.392 1.145,0.204 2.764,0.396 4.575,0.396 3.303,0 7.278,-0.654 10.431,-3.133 l 0.115,0.15 C 13.795,0.331 9.773,0.988 6.44,0.988 2.783,0.988 -0.046,0.192 -0.058,0.192 Z"
             style="fill:#1d1d1b;fill-opacity:1;fill-rule:nonzero;stroke:none"
             id="path272" />
        </g>
        <g
           id="g274"
           transform="translate(154.4668,239.9888)">
          <path
             d="m 0,0 c 0,0 0.7,0.2 1.857,0.396 1.161,0.2 2.772,0.4 4.591,0.4 3.302,0 7.278,-0.658 10.419,-3.145 l 0.131,0.157 c -3.207,2.526 -7.221,3.188 -10.55,3.188 -3.668,0 -6.498,-0.8 -6.506,-0.8 z"
             style="fill:#1d1d1b;fill-opacity:1;fill-rule:nonzero;stroke:none"
             id="path276" />
        </g>
        <g
           id="g278"
           transform="translate(153.1211,237.6203)">
          <path
             d="m 0,0 c 0,0 0.704,0.196 1.861,0.396 1.165,0.2 2.78,0.396 4.598,0.396 3.303,0 7.275,-0.657 10.419,-3.137 l 0.127,0.15 C 13.803,0.335 9.777,0.996 6.459,0.996 2.791,0.996 -0.05,0.188 -0.058,0.188 Z"
             style="fill:#1d1d1b;fill-opacity:1;fill-rule:nonzero;stroke:none"
             id="path280" />
        </g>
        <g
           id="g282"
           transform="translate(161.0798,249.3316)">
          <path
             d="m 0,0 c 0,0 0.704,0.2 1.861,0.396 1.157,0.2 2.768,0.396 4.587,0.396 3.314,0 7.289,-0.65 10.43,-3.137 l 0.127,0.153 C 13.807,0.338 9.781,0.992 6.448,0.992 2.791,0.992 -0.046,0.196 -0.058,0.196 Z"
             style="fill:#1d1d1b;fill-opacity:1;fill-rule:nonzero;stroke:none"
             id="path284" />
        </g>
        <g
           id="g286"
           transform="translate(159.4687,246.9747)">
          <path
             d="m 0,0 c 0,0 0.692,0.196 1.857,0.396 1.157,0.2 2.772,0.396 4.579,0.396 3.314,0.004 7.286,-0.654 10.443,-3.141 l 0.126,0.157 C 13.791,0.334 9.77,0.996 6.436,0.996 2.78,0.996 -0.046,0.192 -0.058,0.192 Z"
             style="fill:#1d1d1b;fill-opacity:1;fill-rule:nonzero;stroke:none"
             id="path288" />
        </g>
        <g
           id="g290"
           transform="translate(158.1347,244.6064)">
          <path
             d="m 0,0 c 0,0 0.692,0.2 1.861,0.396 1.153,0.2 2.768,0.4 4.587,0.4 3.302,0 7.278,-0.658 10.419,-3.138 l 0.131,0.154 C 13.791,0.331 9.77,0.988 6.448,0.988 2.78,0.988 -0.05,0.192 -0.058,0.192 Z"
             style="fill:#1d1d1b;fill-opacity:1;fill-rule:nonzero;stroke:none"
             id="path292" />
        </g>
        <g
           id="g294"
           transform="translate(151.4909,235.5634)">
          <path
             d="m 0,0 c 0.008,0.004 0.704,0.2 1.861,0.4 1.153,0.196 2.768,0.388 4.587,0.388 3.302,0 7.274,-0.65 10.43,-3.141 l 0.127,0.158 C 13.803,0.327 9.777,0.992 6.448,0.992 2.787,0.992 -0.05,0.196 -0.05,0.196 Z"
             style="fill:#1d1d1b;fill-opacity:1;fill-rule:nonzero;stroke:none"
             id="path296" />
        </g>
        <g
           id="g298"
           transform="translate(149.8685,233.2067)">
          <path
             d="m 0,0 c 0,0 0.704,0.2 1.857,0.392 1.161,0.2 2.772,0.4 4.591,0.4 3.302,0 7.278,-0.658 10.43,-3.145 l 0.127,0.158 C 13.791,0.331 9.77,0.988 6.448,0.988 c -3.668,0 -6.498,-0.8 -6.506,-0.8 z"
             style="fill:#1d1d1b;fill-opacity:1;fill-rule:nonzero;stroke:none"
             id="path300" />
        </g>
        <g
           id="g302"
           transform="translate(148.5342,230.8344)">
          <path
             d="m 0,0 c 0,0 0.704,0.2 1.857,0.4 1.161,0.196 2.78,0.396 4.602,0.396 3.299,0 7.263,-0.658 10.42,-3.141 l 0.119,0.157 C 13.803,0.338 9.777,0.996 6.459,0.996 2.788,0.996 -0.05,0.192 -0.058,0.192 Z"
             style="fill:#1d1d1b;fill-opacity:1;fill-rule:nonzero;stroke:none"
             id="path304" />
        </g>
        <g
           id="g306"
           transform="translate(82.9049,78.9507)">
          <path
             d="M 0,0 V 0"
             style="fill:none;stroke:#1d1d1b;stroke-width:0.541;stroke-linecap:round;stroke-linejoin:round;stroke-miterlimit:22.926;stroke-dasharray:none;stroke-opacity:1"
             id="path308" />
        </g>
        <g
           id="g310"
           transform="translate(69.3513,85.4174)">
          <path
             d="M 0,0 V 0"
             style="fill:none;stroke:#1d1d1b;stroke-width:0.541;stroke-linecap:round;stroke-linejoin:round;stroke-miterlimit:22.926;stroke-dasharray:none;stroke-opacity:1"
             id="path312" />
        </g>
        <g
           id="g314"
           transform="translate(82.9049,78.7504)">
          <path
             d="M 0,0 C 1.001,0 1.946,0.502 2.778,1.358 5.266,3.948 6.961,9.834 6.961,16.717 6.961,21.3 6.208,25.44 4.964,28.461 4.348,29.968 3.614,31.2 2.778,32.059 1.946,32.923 1.001,33.421 0,33.421 c -1.02,0 -1.958,-0.498 -2.794,-1.362 -2.496,-2.582 -4.187,-8.472 -4.199,-15.342 0,-4.592 0.758,-8.739 1.998,-11.757 C -4.368,3.449 -3.634,2.221 -2.794,1.358 -1.958,0.502 -1.02,0 0,0 L 0.204,0.2 0,0.408 c -0.867,0 -1.707,0.428 -2.504,1.232 -2.362,2.421 -4.077,8.264 -4.077,15.077 0,4.532 0.758,8.644 1.97,11.595 0.604,1.472 1.331,2.664 2.107,3.469 0.797,0.808 1.637,1.232 2.504,1.232 0.859,0 1.695,-0.424 2.484,-1.232 C 4.846,29.356 6.561,23.517 6.561,16.717 6.561,12.176 5.803,8.064 4.591,5.113 3.987,3.634 3.261,2.449 2.484,1.64 1.695,0.828 0.859,0.408 0,0.408 L -0.212,0.2 Z"
             style="fill:#1d1d1b;fill-opacity:1;fill-rule:nonzero;stroke:none"
             id="path316" />
        </g>
        <g
           id="g318"
           transform="translate(69.1825,85.2918)">
          <path
             d="m 0,0 c 0.746,-0.934 1.997,-1.354 3.571,-1.354 3.653,0.004 9.123,2.261 14.389,6.177 3.069,2.268 5.592,4.752 7.358,7.098 1.754,2.351 2.762,4.564 2.762,6.338 0,0.792 -0.2,1.502 -0.655,2.067 -0.734,0.938 -2.009,1.358 -3.571,1.358 C 20.189,21.68 14.723,19.432 9.473,15.539 6.408,13.259 3.873,10.768 2.115,8.413 0.353,6.059 -0.655,3.842 -0.655,2.076 -0.655,1.279 -0.443,0.565 0,0 l 0.29,-0.035 0.044,0.286 c -0.397,0.483 -0.577,1.095 -0.577,1.825 -0.008,1.609 0.949,3.779 2.691,6.094 1.727,2.319 4.231,4.787 7.268,7.047 5.195,3.858 10.634,6.067 14.138,6.059 1.503,0 2.621,-0.4 3.249,-1.197 0.385,-0.486 0.573,-1.098 0.573,-1.82 0,-1.621 -0.957,-3.787 -2.692,-6.094 C 23.258,9.853 20.758,7.397 17.717,5.148 12.49,1.26 7.059,-0.954 3.571,-0.95 2.068,-0.946 0.957,-0.545 0.334,0.251 L 0.039,0.282 Z"
             style="fill:#1d1d1b;fill-opacity:1;fill-rule:nonzero;stroke:none"
             id="path320" />
        </g>
        <g
           id="g322"
           transform="translate(96.2857,85.5392)">
          <path
             d="m 0,0 c -0.628,-0.793 -1.746,-1.193 -3.241,-1.197 -3.5,-0.004 -8.951,2.209 -14.146,6.098 -3.038,2.248 -5.541,4.705 -7.268,7.02 -1.742,2.307 -2.699,4.47 -2.691,6.09 0,0.722 0.18,1.334 0.576,1.821 0.624,0.796 1.735,1.197 3.238,1.197 3.5,0.008 8.931,-2.202 14.146,-6.059 3.041,-2.26 5.541,-4.728 7.267,-7.047 C -0.385,5.607 0.573,3.437 0.573,1.828 0.573,1.099 0.385,0.486 0,0.004 l 0.028,-0.287 0.294,0.036 c 0.455,0.569 0.655,1.279 0.655,2.075 0,1.766 -1.008,3.983 -2.762,6.338 -1.758,2.354 -4.281,4.846 -7.358,7.126 -5.266,3.893 -10.728,6.141 -14.389,6.145 -1.566,0 -2.826,-0.42 -3.571,-1.358 -0.444,-0.565 -0.656,-1.275 -0.656,-2.068 0,-1.773 1.009,-3.987 2.771,-6.337 1.758,-2.347 4.293,-4.831 7.357,-7.099 5.251,-3.916 10.729,-6.172 14.39,-6.176 1.565,0 2.829,0.42 3.563,1.354 l -0.04,0.286 z"
             style="fill:#1d1d1b;fill-opacity:1;fill-rule:nonzero;stroke:none"
             id="path324" />
        </g>
        <g
           id="g326"
           transform="translate(96.4466,85.4174)">
          <path
             d="M 0,0 V 0"
             style="fill:none;stroke:#1d1d1b;stroke-width:0.541;stroke-linecap:round;stroke-linejoin:round;stroke-miterlimit:22.926;stroke-dasharray:none;stroke-opacity:1"
             id="path328" />
        </g>
        <g
           id="g330"
           transform="translate(82.9049,97.9233)">
          <path
             d="m 0,0 c -1.413,0 -2.562,-1.091 -2.562,-2.456 0,-1.382 1.149,-2.484 2.562,-2.484 1.381,0 2.531,1.102 2.531,2.484 C 2.531,-1.091 1.381,0 0,0"
             style="fill:#1d1d1b;fill-opacity:1;fill-rule:nonzero;stroke:none"
             id="path332" />
        </g>
        <g
           id="g334"
           transform="translate(68.6881,87.9013)">
          <path
             d="m 0,0 c -1.052,0 -1.899,-0.808 -1.899,-1.833 0,-1.02 0.847,-1.84 1.899,-1.844 1.028,0.004 1.887,0.82 1.887,1.844 C 1.887,-0.808 1.028,0 0,0"
             style="fill:#1d1d1b;fill-opacity:1;fill-rule:nonzero;stroke:none"
             id="path336" />
        </g>
        <g
           id="g338"
           transform="translate(96.1445,87.2656)">
          <path
             d="m 0,0 c -1.04,0 -1.887,-0.82 -1.887,-1.844 0,-1.017 0.855,-1.821 1.887,-1.825 1.04,0.004 1.888,0.808 1.895,1.825 C 1.888,-0.82 1.04,-0.008 0,0"
             style="fill:#1d1d1b;fill-opacity:1;fill-rule:nonzero;stroke:none"
             id="path340" />
        </g>
        <g
           id="g342"
           transform="translate(82.532,113.3447)">
          <path
             d="m 0,0 c -1.04,0 -1.88,-0.828 -1.88,-1.844 0,-1.009 0.852,-1.809 1.88,-1.809 1.04,0 1.888,0.796 1.888,1.809 C 1.888,-0.828 1.04,0 0,0"
             style="fill:#1d1d1b;fill-opacity:1;fill-rule:evenodd;stroke:none"
             id="path344" />
        </g>
        <g
           id="g346"
           transform="translate(82.9049,93.3126)">
          <path
             d="M 0,0 C 1.201,0 2.209,0.958 2.209,2.154 2.209,3.331 1.201,4.285 0,4.285 -1.232,4.285 -2.229,3.331 -2.229,2.154 -2.229,0.958 -1.232,0 0,0"
             style="fill:#e42613;fill-opacity:1;fill-rule:evenodd;stroke:none"
             id="path348" />
        </g>
        <g
           id="g350"
           transform="translate(82.532,110.0132)">
          <path
             d="M 0,0 C 0.855,0 1.55,0.667 1.55,1.487 1.55,2.319 0.855,3.006 0,3.006 -0.859,3.006 -1.542,2.319 -1.542,1.487 -1.542,0.667 -0.859,0 0,0"
             style="fill:#e42613;fill-opacity:1;fill-rule:evenodd;stroke:none"
             id="path352" />
        </g>
        <g
           id="g354"
           transform="translate(68.6881,84.5541)">
          <path
             d="M 0,0 C 0.848,0 1.554,0.675 1.554,1.515 1.554,2.35 0.848,3.021 0,3.021 -0.879,3.021 -1.578,2.35 -1.578,1.515 -1.578,0.675 -0.879,0 0,0"
             style="fill:#e42613;fill-opacity:1;fill-rule:evenodd;stroke:none"
             id="path356" />
        </g>
        <g
           id="g358"
           transform="translate(96.1445,83.9224)">
          <path
             d="M 0,0 C 0.859,0 1.562,0.671 1.562,1.499 1.562,2.335 0.859,3.014 0,3.014 -0.855,3.014 -1.554,2.335 -1.554,1.499 -1.554,0.671 -0.855,0 0,0"
             style="fill:#e42613;fill-opacity:1;fill-rule:evenodd;stroke:none"
             id="path360" />
        </g>
        <g
           id="g362"
           transform="translate(222.6627,98.8372)">
          <path
             d="M 0,0 V 0 C 0.035,-0.153 0.07,-0.282 0.108,-0.411 0.101,-0.766 -0.177,-1.037 -0.546,-1.072 h -0.161 -6.81 C -7.9,-0.313 -8.547,0.303 -9.323,0.682 V 7.249 7.42 c 0.034,0.341 0.313,0.605 0.678,0.612 0.119,-0.014 0.251,-0.059 0.404,-0.101 h 0.007 V 7.928 C -4.214,6.926 -1.065,3.88 0,0 m -9.602,-2.829 c 0,-0.811 -0.682,-1.48 -1.542,-1.483 -0.849,0.003 -1.538,0.672 -1.538,1.483 0,0.814 0.689,1.486 1.538,1.486 0.86,0 1.542,-0.672 1.542,-1.486 M -22.277,0 c 1.065,3.88 4.218,6.926 8.234,7.928 l 0.011,0.003 c 0.149,0.042 0.285,0.087 0.41,0.101 0.352,-0.003 0.637,-0.275 0.672,-0.609 V 7.249 0.679 c -0.78,-0.38 -1.413,-0.992 -1.806,-1.751 h -6.814 -0.167 c -0.369,0.035 -0.627,0.303 -0.637,0.661 0.028,0.136 0.062,0.268 0.097,0.411 m -0.007,-5.638 v 0 c -0.028,0.129 -0.062,0.264 -0.09,0.397 0.01,0.341 0.268,0.612 0.644,0.664 h 0.181 6.793 c 0.393,-0.776 1.026,-1.381 1.806,-1.761 v -6.581 -0.163 c -0.028,-0.345 -0.32,-0.616 -0.689,-0.63 -0.125,0.035 -0.278,0.08 -0.418,0.122 h -0.01 c -4.009,1.019 -7.169,4.079 -8.217,7.952 m 13.65,-8.074 c -0.376,0.014 -0.644,0.278 -0.689,0.633 v 0.16 6.581 c 0.776,0.38 1.423,0.982 1.816,1.761 h 6.79 0.171 C -0.177,-4.629 0.101,-4.904 0.108,-5.234 0.07,-5.374 0.045,-5.509 0.007,-5.614 L 0,-5.631 v -0.007 c -1.041,-3.873 -4.18,-6.933 -8.199,-7.952 -0.16,-0.042 -0.303,-0.087 -0.435,-0.122 M 3.901,-0.964 C 3.821,-0.338 3.696,0.282 3.529,0.88 L 6.059,1.862 4.681,5.241 2.14,4.263 C 1.754,4.942 1.316,5.572 0.842,6.177 L 2.756,8.032 0.091,10.625 -1.834,8.746 C -2.38,9.174 -2.979,9.56 -3.588,9.898 l 1.03,2.446 -3.456,1.389 -1.047,-2.429 c -0.735,0.202 -1.493,0.341 -2.262,0.438 v 2.659 h -3.77 v -2.68 c -0.717,-0.09 -1.423,-0.229 -2.112,-0.417 l -1.055,2.429 -3.476,-1.392 1.058,-2.443 C -19.294,9.56 -19.886,9.174 -20.45,8.746 l -1.935,1.879 -2.648,-2.593 1.935,-1.855 C -23.589,5.568 -24.02,4.935 -24.407,4.263 l -2.53,0.978 -1.396,-3.379 2.524,-0.985 c -0.16,-0.595 -0.279,-1.215 -0.359,-1.841 h -2.812 v -3.661 h 2.795 c 0.076,-0.651 0.216,-1.298 0.376,-1.914 l -2.524,-0.985 1.396,-3.383 2.53,0.978 c 0.387,-0.661 0.818,-1.302 1.309,-1.911 l -1.935,-1.865 2.648,-2.558 1.935,1.848 c 0.564,-0.425 1.156,-0.804 1.772,-1.142 l -1.058,-2.443 3.476,-1.399 1.055,2.436 c 0.689,-0.188 1.395,-0.33 2.112,-0.421 v -2.61 h 3.77 v 2.593 c 0.776,0.083 1.527,0.24 2.262,0.438 l 1.047,-2.436 3.456,1.399 -1.03,2.443 c 0.609,0.338 1.197,0.714 1.761,1.138 l 1.918,-1.844 2.665,2.558 -1.914,1.862 c 0.474,0.609 0.912,1.246 1.298,1.914 l 2.541,-0.978 1.378,3.383 -2.53,0.985 c 0.167,0.619 0.303,1.263 0.383,1.914 H 6.55 v 0.289 3.372 z"
             style="fill:#1d1d1b;fill-opacity:1;fill-rule:nonzero;stroke:none"
             id="path364" />
        </g>
        <g
           id="g366"
           transform="translate(214.9853,97.4729)">
          <path
             d="M 0,0 V 0 C -0.376,0.832 -1.082,1.51 -1.945,1.876 V 8.614 8.812 C -1.89,9.303 -1.476,9.693 -0.95,9.693 -0.79,9.668 -0.637,9.616 -0.484,9.571 3.633,8.547 6.873,5.419 7.963,1.441 8.001,1.27 8.046,1.124 8.081,0.971 8.081,0.449 7.67,0.049 7.159,0 H 6.971 Z m -4.977,1.876 v 0 C -5.836,1.51 -6.532,0.832 -6.908,0 h -6.985 -0.185 C -14.599,0.049 -15,0.449 -15,0.971 c 0.045,0.153 0.08,0.299 0.126,0.47 1.082,3.978 4.312,7.106 8.439,8.13 0.153,0.045 0.303,0.097 0.473,0.122 0.512,0 0.94,-0.39 0.985,-0.881 V 8.614 Z M 7.166,-2.923 v 0 C 7.67,-2.989 8.081,-3.386 8.081,-3.894 8.046,-4.037 8.018,-4.197 7.963,-4.343 6.898,-8.321 3.668,-11.46 -0.449,-12.508 c -0.17,-0.045 -0.331,-0.097 -0.484,-0.136 -0.543,0 -0.957,0.401 -1.012,0.902 v 0.188 6.748 c 0.863,0.372 1.569,1.03 1.945,1.883 h 6.961 z m -14.074,0 v 0 c 0.376,-0.853 1.072,-1.511 1.931,-1.883 v -6.748 -0.188 c -0.045,-0.501 -0.473,-0.902 -1.002,-0.902 -0.16,0.039 -0.331,0.091 -0.484,0.136 -4.117,1.048 -7.347,4.187 -8.429,8.165 -0.028,0.146 -0.063,0.306 -0.108,0.449 0.007,0.508 0.401,0.905 0.912,0.971 h 0.216 z m 3.442,-0.314 v 0 c -1.01,0 -1.834,0.794 -1.834,1.772 0,0.978 0.824,1.778 1.834,1.778 1.013,0 1.837,-0.8 1.837,-1.778 0,-0.978 -0.824,-1.772 -1.837,-1.772 m 17.411,0.265 v 3.076 h -2.617 c -0.087,0.794 -0.25,1.573 -0.466,2.318 L 13.361,3.393 12.188,6.23 9.693,5.273 C 9.254,6.087 8.715,6.849 8.126,7.573 l 1.887,1.824 -2.245,2.185 -1.89,-1.855 c -0.672,0.54 -1.402,1.016 -2.165,1.42 h 0.011 l 1.009,2.402 -2.909,1.169 -1.037,-2.391 c -0.878,0.254 -1.8,0.432 -2.732,0.529 v 2.621 h -3.174 v -2.638 c -0.877,-0.098 -1.747,-0.265 -2.586,-0.512 l -1.041,2.391 -2.927,-1.169 1.038,-2.402 c -0.759,-0.404 -1.494,-0.88 -2.165,-1.42 l -1.907,1.855 -2.228,-2.185 1.897,-1.824 c -0.599,-0.724 -1.117,-1.486 -1.573,-2.3 l -2.488,0.957 -1.173,-2.837 2.488,-0.971 C -18,1.677 -18.153,0.898 -18.24,0.104 h -2.767 v -3.076 h 2.757 c 0.073,-0.811 0.25,-1.615 0.466,-2.381 l -2.488,-0.971 1.173,-2.85 2.488,0.964 c 0.456,-0.8 0.974,-1.576 1.573,-2.297 l -1.897,-1.834 2.228,-2.151 1.907,1.817 c 0.671,-0.532 1.406,-1.002 2.165,-1.392 l -1.038,-2.408 2.927,-1.184 1.041,2.398 c 0.839,-0.236 1.709,-0.417 2.586,-0.508 v -2.575 h 3.174 v 2.558 c 0.932,0.083 1.854,0.282 2.732,0.525 l 1.037,-2.398 2.909,1.184 -1.009,2.408 c 0.752,0.39 1.482,0.86 2.154,1.392 l 1.89,-1.817 2.245,2.151 -1.887,1.834 c 0.589,0.721 1.128,1.497 1.567,2.297 l 2.495,-0.964 1.173,2.85 -2.499,0.971 c 0.216,0.766 0.386,1.57 0.477,2.381 z"
             style="fill:#b78e00;fill-opacity:1;fill-rule:evenodd;stroke:none"
             id="path368" />
        </g>
      </g>
    </g>
  </g>
</svg>
